<svg xmlns="http://www.w3.org/2000/svg" viewBox="0 0 588.4 817.2"><defs><style>.cls-1{fill:#fff;}.cls-2{fill:#ee2e2b;}</style></defs><g id="Layer_2" data-name="Layer 2"><g id="Layer_1-2" data-name="Layer 1"><path class="cls-1" d="M496.38,817.2H92c-50.85,0-92-37.8-92-84.5V84.5C0,37.8,41.17,0,92,0H496.38c50.85,0,92,37.8,92,84.5V732.7C588.4,779.4,547.23,817.2,496.38,817.2Z"/><path class="cls-2" d="M508.47,777.7H79.83c-20.37,0-36.92-15.2-36.92-33.9V73.3c0-18.7,16.55-33.9,36.92-33.9H508.47c20.36,0,36.91,15.2,36.91,33.9V743.8C545.38,762.5,528.83,777.7,508.47,777.7ZM79.83,47.3c-15.69,0-28.32,11.7-28.32,26V743.8c0,14.4,12.74,26,28.32,26H508.47c15.68,0,28.31-11.7,28.31-26V73.3c0-14.4-12.74-26-28.31-26Z"/><path class="cls-2" d="M475.47,734.3H112.93c-12.52,0-22.65-9.3-22.65-20.8V103.7c0-11.5,10.13-20.8,22.65-20.8H475.47c12.52,0,22.65,9.3,22.65,20.8V713.5C498.12,725,487.88,734.3,475.47,734.3ZM112.93,90.7c-7.84,0-14.16,5.8-14.16,13V713.5c0,7.2,6.32,13,14.16,13H475.47c7.84,0,14.16-5.8,14.16-13V103.7c0-7.2-6.32-13-14.16-13Z"/><path class="cls-2" d="M246.45,57.7c2.39-5.2,7,1.8,7,4.7a9.16,9.16,0,0,1-6.21,8.5c-7.73,2.8-13.18-4-18.41-8-10.89-8.1-27.55-15.7-41.92-12.4-11.55,2.6-20,16-10.13,24.8,9.36,8.3,24.07,1.7,24.39-9.7.11-4.2-7-4.2-7.08,0-.21,7.5-11.76,9.9-14.37,2.2-2.72-8.3,9.15-11.9,15.68-11.5,7.95.5,16,3.7,22.65,7.5,6.1,3.5,10.78,9.1,17.1,12.2,11,5.5,24.83-1.3,25.37-13,.22-5-2.17-10.4-7.29-12.7-4.68-2-10.67-.5-12.74,4-2,3.9,4.13,7.3,6,3.4Z"/><path class="cls-2" d="M124.37,59.1c-.22,9.4,11.1,17.5,21.12,14.9,5.12-1.3,6.76-6.1,11.22-8.3a14.61,14.61,0,0,1,14.81,1.4c3.6,2.5,7.19-3.1,3.6-5.6a22.17,22.17,0,0,0-20.91-1.9c-3.82,1.6-5.56,4.3-8.5,6.8-5.33,4.5-14.37-1.6-14.26-7.3.1-4.2-7-4.2-7.08,0Z"/><path class="cls-2" d="M136.89,58.5a3.25,3.25,0,1,0,0-6.5,3.25,3.25,0,1,0,0,6.5Z"/><path class="cls-2" d="M210.18,76.3a3.25,3.25,0,1,0,0-6.5,3.25,3.25,0,1,0,0,6.5Z"/><path class="cls-2" d="M126.33,62.2c-4.14,2-8.82.1-12.74-1.3-4.47-1.6-8.93-3.4-13.4-4.9-6.64-2.3-14.37-3.5-20.69.3C67.08,63.6,76,81.6,90.06,75.8c4.14-1.7.55-7.3-3.59-5.6a4.35,4.35,0,0,1-6-4.2c.11-3.1,3.27-4.9,6.32-5.5,5.22-1,10.67,1.4,15.35,3.2,8.6,3.2,18.62,8.6,27.88,4.2,3.92-2,.44-7.6-3.7-5.7Z"/><path class="cls-2" d="M79.83,81c-2.73-4.9-8.28-8.5-14.49-7.4-5.66,1-9.91,5.4-9.69,10.8.11,6.1,5,10.5,9.26,14.7,2.72,2.6,4.79,5.2,5.44,8.9.76,4.3.55,8.9.76,13.2s7.3,4.2,7.08,0c-.43-8.8.22-17.7-6.31-24.8-3-3.3-7.41-6.1-8.72-10.3-1-3,.66-6.2,4.47-6.2,2.94,0,4.9,2.2,6.1,4.4,2.07,3.7,8.16.4,6.1-3.3Z"/><path class="cls-2" d="M61.09,222.9a8.29,8.29,0,0,0-4.57,11.3c2.18,4.7,7.95,7.2,13.29,7.2,13,0,20.91-13,14.81-23.4-3.27-5.6-9.15-9.7-12.85-15.1-4.14-6-7.52-13.1-8.39-20.3-.76-6.1,2.29-17.2,11.54-15.6,9,1.5,7.08,13.1-1.63,13.3-4.57.1-4.57,6.6,0,6.5,12.09-.3,19.6-13.2,11-22-9.47-9.7-24.5-1.9-27.44,8.9-3.49,13,4.46,28,13.07,37.9,4.35,5,12.3,10.2,9.14,17.5a10,10,0,0,1-9.25,5.7c-3.16,0-10.78-4.1-5.12-6.4,4.14-1.5.54-7.1-3.6-5.5Z"/><path class="cls-2" d="M66.21,123c5.77-.1,12.2,7.1,8.71,12.1-2.28,3.3-6.2,5-8.16,8.7A17.45,17.45,0,0,0,68.83,163c2.72,3.3,8.93.1,6.09-3.3-3.15-3.8-4-8.6-1.85-13s7.84-6.1,9.37-10.9c2.94-9.3-6.1-19.6-16.23-19.4-4.57.2-4.57,6.7,0,6.6Z"/><path class="cls-2" d="M62,131.3a3.25,3.25,0,1,0,0-6.5,3.25,3.25,0,1,0,0,6.5Z"/><path class="cls-2" d="M81.35,198.6a3.25,3.25,0,1,0,0-6.5,3.25,3.25,0,1,0,0,6.5Z"/><path class="cls-2" d="M58.48,253.4c6.75,6.5,16.23,3.4,23.63-.1,4-1.9.44-7.6-3.59-5.6-4.47,2.1-10.78,5.2-15,1.2-3.16-3.1-8.17,1.5-5,4.5Z"/><path class="cls-2" d="M63.93,262.7c-7,4.8-10.89,14.2-7.41,22,3.38,7.6,13.83,10.1,21,5.3a18.68,18.68,0,0,0,7-9.6c1.2-3.6,3.16-9.4.65-12.9C82,263,67.85,257.1,64.25,263.8c-2,3.8,4.14,7.1,6.1,3.3l.33-.6c-.66.5-1.42,1-2.07,1.5,3.37-1.2,10.45.6,10.45,4.3,0,3.9-1.85,9.6-5.22,12.2a7,7,0,0,1-11.33-4.3,12.68,12.68,0,0,1,5-11.7c3.59-2.6.11-8.3-3.59-5.8Z"/><path class="cls-2" d="M74.6,275.6v-.3A3.56,3.56,0,0,0,71,272a3.48,3.48,0,0,0-3.59,3.3v.3a3.61,3.61,0,0,0,7.19,0Z"/><path class="cls-2" d="M63.16,308.3c-2.94-2.8,4.58-5.6,6.21-5.8a6.65,6.65,0,0,1,6.86,2.9c2.51,3.8,1.31,8.8-1.09,12.4-5.44,8.4-15.46,13.4-19.38,22.8-3.49,8.2-.33,17.5,6.21,23.6,3.59,3.4,8.16,5.6,12,8.7a13.77,13.77,0,0,1,4.47,5.4c.76,1.9,1.52,8.3-3.16,6.8-4.35-1.4-6.21,4.9-1.85,6.3a9.67,9.67,0,0,0,11.65-5c2.07-4.1,1.09-8.9-1.2-12.7-5.88-9.8-21.78-12.2-22.43-25.1-.65-12.4,15.68-19.2,21-29.3,4.14-7.7,2.94-19.1-6.86-22.6-9.59-3.4-27.23,6.9-17.32,16.2,3.16,3,8.17-1.7,4.9-4.6Z"/><path class="cls-2" d="M67.63,387v-.3a3.56,3.56,0,0,0-3.6-3.3,3.48,3.48,0,0,0-3.59,3.3v.3a3.61,3.61,0,0,0,7.19,0Z"/><path class="cls-2" d="M75.25,335.5c-7.84,5.5-7.84,15-1.2,21.4,3.16,3.1,8.17-1.6,5-4.6s-4.35-8.3-.21-11.2c3.59-2.4,0-8.1-3.6-5.6Z"/><path class="cls-2" d="M60,323.4a3.25,3.25,0,1,0,0-6.5,3.25,3.25,0,1,0,0,6.5Z"/><path class="cls-2" d="M61.64,413,67,407.8c1.53-1.5,3.27-3.9,5.12-5.1H68.5c2,1,3.81,3.5,5.23,5.1,1.74,1.8,3.37,3.6,4.9,5.5,2.83,3.3,7.84-1.3,5-4.6-3.16-3.7-7-9.3-11.55-11.6a4.11,4.11,0,0,0-3.59,0c-4.47,2.7-8.28,7.7-11.87,11.3-3.05,3,2,7.7,5,4.6Z"/><path class="cls-2" d="M61.64,431.5,67,426.3c1.53-1.5,3.27-3.9,5.12-5.1H68.5c2,1,3.81,3.5,5.23,5.1,1.74,1.8,3.37,3.6,4.9,5.5,2.83,3.3,7.84-1.3,5-4.6-3.16-3.7-7-9.3-11.55-11.6a4.11,4.11,0,0,0-3.59,0c-4.47,2.7-8.28,7.7-11.87,11.3-3.05,3.1,2,7.7,5,4.6Z"/><path class="cls-2" d="M76.78,437.4a44.58,44.58,0,0,1-17.86,13.2c-2.29,1-2.29,4.7,0,5.6,5.77,2.4,6.42,9.4,10.67,13.2a11.68,11.68,0,0,0,13.07,1.9l-4.9-4.5a54.56,54.56,0,0,1-15.25,14.5c-1.74,1.1-2.61,3.6-.76,5.1a92.28,92.28,0,0,0,17.42,11c4,1.9,7.63-3.7,3.6-5.6a84.72,84.72,0,0,1-16-9.9c-.22,1.7-.44,3.4-.77,5.1a60.69,60.69,0,0,0,17.76-16.8c2-2.8-1.86-6-4.9-4.5-4.47,2.3-7.3-5.1-8.83-7.7-1.85-3.1-4.13-5.9-7.73-7.4v5.6a49.86,49.86,0,0,0,20.48-15.5c2.83-3.4-3.38-6.6-6-3.3Z"/><path class="cls-2" d="M68.5,486.9c-5.55,3-9.26,8.1-9.8,14-.55,6.3,2.94,11.3,7.29,15.9,5.67,5.8,11.11,11.1,8.17,19.6-1.09,3.3-4.24,7.4-8.71,6.4-5-1.2-3.7-11.4-.54-10.3,4.24,1.5,6.09-4.8,1.85-6.3C56,522.5,52.6,537.4,56.41,543.9c4.68,8.2,17,6.3,22-.5,5.88-8.1,4.25-18.6-2.18-25.8-3.37-3.7-8.06-7-9.91-11.7-2-5.1.87-10.6,5.77-13.3,3.92-2.2.33-7.8-3.59-5.7Z"/><path class="cls-2" d="M78.3,510.8a3.25,3.25,0,1,0,0-6.5,3.25,3.25,0,1,0,0,6.5Z"/><path class="cls-2" d="M63.27,473.8l.44-.4a3.11,3.11,0,0,0,0-4.6,3.82,3.82,0,0,0-5,0l-.44.4a3.11,3.11,0,0,0,0,4.6,3.82,3.82,0,0,0,5,0Z"/><path class="cls-2" d="M66,547.8c3.38,7.6,6.65,15.1,10,22.7,1.09-1.4,2.29-2.7,3.38-4.1-15.14,1.2-22.87,15.9-21.78,28.7.43,5.5,3.7,11.2,9.91,12.7,5.44,1.3,11.11-1.7,12.41-6.7,1.09-4.1-5.77-5.8-6.86-1.7-1.09,4.4-6.31,1.5-7.62-1.1-1.74-3.4-1-7.8-.11-11.2,1.63-6.6,5.88-13.5,13.94-14.1,2.07-.2,4.36-2,3.38-4.1-3.38-7.6-6.65-15.1-10-22.7-1.42-3.9-8.28-2.2-6.65,1.6Z"/><path class="cls-2" d="M76.89,593.7a3.25,3.25,0,1,0,0-6.5,3.25,3.25,0,1,0,0,6.5Z"/><path class="cls-2" d="M61.75,563.7a3.25,3.25,0,1,0,0-6.5,3.25,3.25,0,1,0,0,6.5Z"/><path class="cls-2" d="M342,758.5c-2.39,5.2-7-1.8-7-4.7a9.16,9.16,0,0,1,6.21-8.5c7.73-2.8,13.18,4,18.41,8,10.89,8.1,27.55,15.7,41.92,12.4,11.55-2.6,20-16,10.13-24.8-9.36-8.3-24.07-1.7-24.39,9.7-.11,4.2,7,4.2,7.08,0,.21-7.5,11.76-9.9,14.37-2.2,2.72,8.3-9.15,11.9-15.68,11.5-7.95-.5-16-3.7-22.65-7.5-6.1-3.5-10.78-9.1-17.1-12.2-11-5.5-24.83,1.3-25.37,13-.22,5,2.17,10.4,7.29,12.7,4.68,2,10.67.5,12.74-4,1.85-3.9-4.24-7.3-6-3.4Z"/><path class="cls-2" d="M463.92,757.1c.22-9.4-11.1-17.5-21.12-14.9-5.12,1.3-6.75,6.1-11.22,8.3a14.61,14.61,0,0,1-14.81-1.4c-3.59-2.5-7.19,3.1-3.59,5.6a22.16,22.16,0,0,0,20.91,1.9c3.81-1.6,5.55-4.3,8.49-6.8,5.34-4.5,14.37,1.6,14.27,7.3-.11,4.1,7,4.1,7.07,0Z"/><path class="cls-2" d="M451.4,764.2a3.25,3.25,0,1,0,0-6.5,3.25,3.25,0,1,0,0,6.5Z"/><path class="cls-2" d="M378.22,746.4a3.25,3.25,0,1,0,0-6.5,3.25,3.25,0,1,0,0,6.5Z"/><path class="cls-2" d="M462,753.9c4.14-2,8.83-.1,12.75,1.3,4.46,1.6,8.93,3.4,13.39,4.9,6.64,2.3,14.38,3.5,20.69-.3,12.42-7.3,3.49-25.3-10.56-19.5-4.14,1.7-.55,7.3,3.59,5.6a4.35,4.35,0,0,1,6,4.2c-.11,3.1-3.26,4.9-6.31,5.5-5.23,1-10.68-1.4-15.36-3.2-8.6-3.2-18.62-8.6-27.88-4.2-3.92,2.1-.33,7.7,3.7,5.7Z"/><path class="cls-2" d="M508.47,735.2c2.72,4.9,8.27,8.5,14.48,7.4,5.66-1,9.91-5.4,9.69-10.8-.11-6.1-5-10.5-9.25-14.7-2.73-2.6-4.8-5.2-5.45-8.9-.76-4.3-.54-8.9-.76-13.2s-7.3-4.2-7.08,0c.43,8.8-.22,17.7,6.32,24.8,3,3.3,7.4,6.1,8.71,10.3,1,3-.66,6.2-4.47,6.2-2.94,0-4.9-2.2-6.1-4.4-2-3.7-8.16-.4-6.09,3.3Z"/><path class="cls-2" d="M527.31,593.3a8.29,8.29,0,0,0,4.57-11.3c-2.18-4.7-8-7.2-13.29-7.2-13,0-20.91,13-14.81,23.4,3.27,5.6,9.15,9.7,12.85,15.1,4.14,6,7.52,13.1,8.39,20.3.76,6.1-2.29,17.2-11.54,15.6-9-1.5-7.08-13.1,1.63-13.3,4.57-.1,4.57-6.6,0-6.5-12.09.3-19.6,13.2-11,22,9.47,9.7,24.5,1.9,27.44-8.9,3.49-13-4.46-28-13.07-37.9-4.35-5-12.3-10.2-9.14-17.5a10,10,0,0,1,9.25-5.7c3.16,0,10.78,4.1,5.12,6.4-4.14,1.5-.54,7.1,3.6,5.5Z"/><path class="cls-2" d="M522.19,693.1c-5.77.1-12.2-7.1-8.71-12.1,2.28-3.3,6.2-5,8.16-8.7a17.45,17.45,0,0,0-2.07-19.2c-2.72-3.3-8.93-.1-6.09,3.3,3.15,3.8,4,8.6,1.85,13s-7.84,6.1-9.37,10.9c-2.94,9.3,6.1,19.6,16.23,19.4a3.3,3.3,0,1,0,0-6.6Z"/><path class="cls-2" d="M526.43,691.4a3.25,3.25,0,1,0,0-6.5,3.25,3.25,0,1,0,0,6.5Z"/><path class="cls-2" d="M507.05,624.2a3.25,3.25,0,1,0,0-6.5,3.25,3.25,0,1,0,0,6.5Z"/><path class="cls-2" d="M529.81,562.8c-6.75-6.5-16.23-3.4-23.63.1-4,1.9-.44,7.6,3.59,5.6,4.47-2.1,10.78-5.2,15-1.2,3.16,3.1,8.17-1.5,5-4.5Z"/><path class="cls-2" d="M524.37,553.5c7-4.8,10.89-14.2,7.4-22-3.38-7.6-13.83-10.1-21-5.3a18.68,18.68,0,0,0-7,9.6c-1.2,3.6-3.16,9.4-.65,12.9,3.16,4.5,17.31,10.4,20.91,3.7,2-3.8-4.14-7.1-6.1-3.3l-.33.6c.66-.5,1.42-1,2.07-1.5-3.37,1.2-10.45-.6-10.45-4.3,0-3.9,1.85-9.6,5.23-12.2a7,7,0,0,1,11.32,4.3,12.66,12.66,0,0,1-5,11.7c-3.59,2.6,0,8.3,3.6,5.8Z"/><path class="cls-2" d="M513.8,540.6v.3a3.56,3.56,0,0,0,3.6,3.3,3.48,3.48,0,0,0,3.59-3.3v-.3a3.55,3.55,0,0,0-3.59-3.3,3.49,3.49,0,0,0-3.6,3.3Z"/><path class="cls-2" d="M525.13,507.9c2.94,2.8-4.58,5.6-6.21,5.8a6.65,6.65,0,0,1-6.86-2.9c-2.51-3.8-1.31-8.8,1.09-12.4,5.44-8.4,15.46-13.4,19.38-22.8,3.49-8.2.33-17.5-6.2-23.6-3.6-3.4-8.17-5.6-12-8.7a13.77,13.77,0,0,1-4.47-5.4c-.76-1.9-1.52-8.3,3.16-6.8,4.36,1.4,6.21-4.9,1.85-6.3a9.67,9.67,0,0,0-11.65,5c-2.07,4.1-1.09,8.9,1.2,12.7,5.88,9.8,21.78,12.2,22.43,25.1.65,12.4-15.68,19.2-21,29.3-4.14,7.7-2.94,19.1,6.86,22.6,9.59,3.4,27.23-6.9,17.32-16.2-3-3-8.06,1.6-4.9,4.6Z"/><path class="cls-2" d="M520.66,429.2v.3a3.56,3.56,0,0,0,3.6,3.3,3.48,3.48,0,0,0,3.59-3.3v-.3a3.61,3.61,0,0,0-7.19,0Z"/><path class="cls-2" d="M513.15,480.6c7.84-5.5,7.84-15,1.2-21.4-3.16-3.1-8.17,1.6-5,4.6s4.35,8.3.21,11.2c-3.59,2.5-.1,8.2,3.6,5.6Z"/><path class="cls-2" d="M528.29,499.3a3.25,3.25,0,1,0,0-6.5,3.25,3.25,0,1,0,0,6.5Z"/><path class="cls-2" d="M526.65,403.2l-5.33,5.2c-1.53,1.5-3.27,3.9-5.12,5.1h3.59c-2-1-3.81-3.5-5.23-5.1-1.74-1.8-3.37-3.6-4.9-5.5-2.83-3.3-7.84,1.3-5,4.6,3.16,3.7,7,9.3,11.55,11.6a4.11,4.11,0,0,0,3.59,0c4.47-2.7,8.28-7.7,11.87-11.3,3.16-3-1.85-7.7-5-4.6Z"/><path class="cls-2" d="M526.65,384.7l-5.33,5.2c-1.53,1.5-3.27,3.9-5.12,5.1h3.59c-2-1-3.81-3.5-5.23-5.1-1.74-1.8-3.37-3.6-4.9-5.5-2.83-3.3-7.84,1.3-5,4.6,3.16,3.7,7,9.3,11.55,11.6a4.11,4.11,0,0,0,3.59,0c4.47-2.7,8.28-7.7,11.87-11.3,3.16-3.1-1.85-7.7-5-4.6Z"/><path class="cls-2" d="M511.62,378.8a44.58,44.58,0,0,1,17.86-13.2c2.29-1,2.29-4.7,0-5.6-5.77-2.4-6.42-9.4-10.67-13.2a11.68,11.68,0,0,0-13.07-1.9l4.9,4.5a54.56,54.56,0,0,1,15.25-14.5c1.74-1.1,2.61-3.6.76-5.1a92.28,92.28,0,0,0-17.42-11c-4-1.9-7.63,3.7-3.6,5.6a84.72,84.72,0,0,1,16,9.9c.22-1.7.44-3.4.77-5.1A60.69,60.69,0,0,0,504.65,346c-2,2.8,1.86,6,4.9,4.5,4.47-2.3,7.3,5.1,8.83,7.7,1.85,3.1,4.13,5.9,7.73,7.4V360a49.86,49.86,0,0,0-20.48,15.5c-2.83,3.4,3.27,6.6,6,3.3Z"/><path class="cls-2" d="M519.9,329.3c5.55-3,9.26-8.1,9.8-14,.55-6.3-2.94-11.3-7.29-15.9-5.67-5.8-11.11-11.1-8.17-19.6,1.09-3.3,4.24-7.4,8.71-6.4,5,1.2,3.7,11.4.54,10.3-4.24-1.5-6.09,4.8-1.85,6.3,10.78,3.7,14.16-11.2,10.35-17.7-4.68-8.2-17-6.3-22,.5-5.88,8.1-4.25,18.6,2.18,25.8,3.37,3.7,8.06,7,9.91,11.7,2,5.1-.87,10.6-5.77,13.3-3.92,2.2-.33,7.8,3.59,5.7Z"/><path class="cls-2" d="M510.1,311.9a3.25,3.25,0,1,0,0-6.5,3.25,3.25,0,1,0,0,6.5Z"/><path class="cls-2" d="M525,342.4l-.44.4a3.11,3.11,0,0,0,0,4.6,3.82,3.82,0,0,0,5,0l.44-.4a3.1,3.1,0,0,0,0-4.6,3.82,3.82,0,0,0-5,0Z"/><path class="cls-2" d="M522.3,268.3c-3.38-7.6-6.65-15.1-10-22.7-1.09,1.4-2.29,2.7-3.38,4.1,15.14-1.2,22.87-15.9,21.78-28.7-.43-5.5-3.7-11.2-9.91-12.7-5.44-1.3-11.11,1.7-12.41,6.7-1.09,4.1,5.77,5.8,6.86,1.7,1.09-4.4,6.31-1.5,7.62,1.1,1.74,3.4,1,7.8.11,11.2-1.63,6.6-5.88,13.5-13.94,14.1-2.07.2-4.36,2-3.38,4.1,3.38,7.6,6.65,15.1,10,22.7,1.53,4,8.39,2.3,6.65-1.6Z"/><path class="cls-2" d="M511.51,229a3.25,3.25,0,1,0,0-6.5,3.25,3.25,0,1,0,0,6.5Z"/><path class="cls-2" d="M526.54,259a3.25,3.25,0,1,0,0-6.5,3.25,3.25,0,1,0,0,6.5Z"/><path class="cls-2" d="M246.45,57.7c2.39-5.2,7,1.8,7,4.7a9.16,9.16,0,0,1-6.21,8.5c-7.73,2.8-13.18-4-18.41-8-10.89-8.1-27.55-15.7-41.92-12.4-11.55,2.6-20,16-10.13,24.8,9.36,8.3,24.07,1.7,24.39-9.7.11-4.2-7-4.2-7.08,0-.21,7.5-11.76,9.9-14.37,2.2-2.72-8.3,9.15-11.9,15.68-11.5,7.95.5,16,3.7,22.65,7.5,6.1,3.5,10.78,9.1,17.1,12.2,11,5.5,24.83-1.3,25.37-13,.22-5-2.17-10.4-7.29-12.7-4.68-2-10.67-.5-12.74,4-2,3.9,4.13,7.3,6,3.4Z"/><path class="cls-2" d="M124.37,59.1c-.22,9.4,11.1,17.5,21.12,14.9,5.12-1.3,6.76-6.1,11.22-8.3a14.61,14.61,0,0,1,14.81,1.4c3.6,2.5,7.19-3.1,3.6-5.6a22.17,22.17,0,0,0-20.91-1.9c-3.82,1.6-5.56,4.3-8.5,6.8-5.33,4.5-14.37-1.6-14.26-7.3.1-4.2-7-4.2-7.08,0Z"/><path class="cls-2" d="M136.89,58.5a3.25,3.25,0,1,0,0-6.5,3.25,3.25,0,1,0,0,6.5Z"/><path class="cls-2" d="M210.18,76.3a3.25,3.25,0,1,0,0-6.5,3.25,3.25,0,1,0,0,6.5Z"/><path class="cls-2" d="M126.33,62.2c-4.14,2-8.82.1-12.74-1.3-4.47-1.6-8.93-3.4-13.4-4.9-6.64-2.3-14.37-3.5-20.69.3C67.08,63.6,76,81.6,90.06,75.8c4.14-1.7.55-7.3-3.59-5.6a4.35,4.35,0,0,1-6-4.2c.11-3.1,3.27-4.9,6.32-5.5,5.22-1,10.67,1.4,15.35,3.2,8.6,3.2,18.62,8.6,27.88,4.2,3.92-2,.44-7.6-3.7-5.7Z"/><path class="cls-2" d="M79.83,81c-2.73-4.9-8.28-8.5-14.49-7.4-5.66,1-9.91,5.4-9.69,10.8.11,6.1,5,10.5,9.26,14.7,2.72,2.6,4.79,5.2,5.44,8.9.76,4.3.55,8.9.76,13.2s7.3,4.2,7.08,0c-.43-8.8.22-17.7-6.31-24.8-3-3.3-7.41-6.1-8.72-10.3-1-3,.66-6.2,4.47-6.2,2.94,0,4.9,2.2,6.1,4.4,2.07,3.7,8.16.4,6.1-3.3Z"/><path class="cls-2" d="M61.09,222.9a8.29,8.29,0,0,0-4.57,11.3c2.18,4.7,7.95,7.2,13.29,7.2,13,0,20.91-13,14.81-23.4-3.27-5.6-9.15-9.7-12.85-15.1-4.14-6-7.52-13.1-8.39-20.3-.76-6.1,2.29-17.2,11.54-15.6,9,1.5,7.08,13.1-1.63,13.3-4.57.1-4.57,6.6,0,6.5,12.09-.3,19.6-13.2,11-22-9.47-9.7-24.5-1.9-27.44,8.9-3.49,13,4.46,28,13.07,37.9,4.35,5,12.3,10.2,9.14,17.5a10,10,0,0,1-9.25,5.7c-3.16,0-10.78-4.1-5.12-6.4,4.14-1.5.54-7.1-3.6-5.5Z"/><path class="cls-2" d="M66.21,123c5.77-.1,12.2,7.1,8.71,12.1-2.28,3.3-6.2,5-8.16,8.7A17.45,17.45,0,0,0,68.83,163c2.72,3.3,8.93.1,6.09-3.3-3.15-3.8-4-8.6-1.85-13s7.84-6.1,9.37-10.9c2.94-9.3-6.1-19.6-16.23-19.4-4.57.2-4.57,6.7,0,6.6Z"/><path class="cls-2" d="M62,131.3a3.25,3.25,0,1,0,0-6.5,3.25,3.25,0,1,0,0,6.5Z"/><path class="cls-2" d="M81.35,198.6a3.25,3.25,0,1,0,0-6.5,3.25,3.25,0,1,0,0,6.5Z"/><path class="cls-2" d="M58.48,253.4c6.75,6.5,16.23,3.4,23.63-.1,4-1.9.44-7.6-3.59-5.6-4.47,2.1-10.78,5.2-15,1.2-3.16-3.1-8.17,1.5-5,4.5Z"/><path class="cls-2" d="M63.93,262.7c-7,4.8-10.89,14.2-7.41,22,3.38,7.6,13.83,10.1,21,5.3a18.68,18.68,0,0,0,7-9.6c1.2-3.6,3.16-9.4.65-12.9C82,263,67.85,257.1,64.25,263.8c-2,3.8,4.14,7.1,6.1,3.3l.33-.6c-.66.5-1.42,1-2.07,1.5,3.37-1.2,10.45.6,10.45,4.3,0,3.9-1.85,9.6-5.22,12.2a7,7,0,0,1-11.33-4.3,12.68,12.68,0,0,1,5-11.7c3.59-2.6.11-8.3-3.59-5.8Z"/><path class="cls-2" d="M74.6,275.6v-.3A3.56,3.56,0,0,0,71,272a3.48,3.48,0,0,0-3.59,3.3v.3a3.61,3.61,0,0,0,7.19,0Z"/><path class="cls-2" d="M63.16,308.3c-2.94-2.8,4.58-5.6,6.21-5.8a6.65,6.65,0,0,1,6.86,2.9c2.51,3.8,1.31,8.8-1.09,12.4-5.44,8.4-15.46,13.4-19.38,22.8-3.49,8.2-.33,17.5,6.21,23.6,3.59,3.4,8.16,5.6,12,8.7a13.77,13.77,0,0,1,4.47,5.4c.76,1.9,1.52,8.3-3.16,6.8-4.35-1.4-6.21,4.9-1.85,6.3a9.67,9.67,0,0,0,11.65-5c2.07-4.1,1.09-8.9-1.2-12.7-5.88-9.8-21.78-12.2-22.43-25.1-.65-12.4,15.68-19.2,21-29.3,4.14-7.7,2.94-19.1-6.86-22.6-9.59-3.4-27.23,6.9-17.32,16.2,3.16,3,8.17-1.7,4.9-4.6Z"/><path class="cls-2" d="M67.63,387v-.3a3.56,3.56,0,0,0-3.6-3.3,3.48,3.48,0,0,0-3.59,3.3v.3a3.61,3.61,0,0,0,7.19,0Z"/><path class="cls-2" d="M75.25,335.5c-7.84,5.5-7.84,15-1.2,21.4,3.16,3.1,8.17-1.6,5-4.6s-4.35-8.3-.21-11.2c3.59-2.4,0-8.1-3.6-5.6Z"/><path class="cls-2" d="M60,323.4a3.25,3.25,0,1,0,0-6.5,3.25,3.25,0,1,0,0,6.5Z"/><path class="cls-2" d="M61.64,413,67,407.8c1.53-1.5,3.27-3.9,5.12-5.1H68.5c2,1,3.81,3.5,5.23,5.1,1.74,1.8,3.37,3.6,4.9,5.5,2.83,3.3,7.84-1.3,5-4.6-3.16-3.7-7-9.3-11.55-11.6a4.11,4.11,0,0,0-3.59,0c-4.47,2.7-8.28,7.7-11.87,11.3-3.05,3,2,7.7,5,4.6Z"/><path class="cls-2" d="M61.64,431.5,67,426.3c1.53-1.5,3.27-3.9,5.12-5.1H68.5c2,1,3.81,3.5,5.23,5.1,1.74,1.8,3.37,3.6,4.9,5.5,2.83,3.3,7.84-1.3,5-4.6-3.16-3.7-7-9.3-11.55-11.6a4.11,4.11,0,0,0-3.59,0c-4.47,2.7-8.28,7.7-11.87,11.3-3.05,3.1,2,7.7,5,4.6Z"/><path class="cls-2" d="M76.78,437.4a44.58,44.58,0,0,1-17.86,13.2c-2.29,1-2.29,4.7,0,5.6,5.77,2.4,6.42,9.4,10.67,13.2a11.68,11.68,0,0,0,13.07,1.9l-4.9-4.5a54.56,54.56,0,0,1-15.25,14.5c-1.74,1.1-2.61,3.6-.76,5.1a92.28,92.28,0,0,0,17.42,11c4,1.9,7.63-3.7,3.6-5.6a84.72,84.72,0,0,1-16-9.9c-.22,1.7-.44,3.4-.77,5.1a60.69,60.69,0,0,0,17.76-16.8c2-2.8-1.86-6-4.9-4.5-4.47,2.3-7.3-5.1-8.83-7.7-1.85-3.1-4.13-5.9-7.73-7.4v5.6a49.86,49.86,0,0,0,20.48-15.5c2.83-3.4-3.38-6.6-6-3.3Z"/><path class="cls-2" d="M68.5,486.9c-5.55,3-9.26,8.1-9.8,14-.55,6.3,2.94,11.3,7.29,15.9,5.67,5.8,11.11,11.1,8.17,19.6-1.09,3.3-4.24,7.4-8.71,6.4-5-1.2-3.7-11.4-.54-10.3,4.24,1.5,6.09-4.8,1.85-6.3C56,522.5,52.6,537.4,56.41,543.9c4.68,8.2,17,6.3,22-.5,5.88-8.1,4.25-18.6-2.18-25.8-3.37-3.7-8.06-7-9.91-11.7-2-5.1.87-10.6,5.77-13.3,3.92-2.2.33-7.8-3.59-5.7Z"/><path class="cls-2" d="M78.3,510.8a3.25,3.25,0,1,0,0-6.5,3.25,3.25,0,1,0,0,6.5Z"/><path class="cls-2" d="M63.27,473.8l.44-.4a3.11,3.11,0,0,0,0-4.6,3.82,3.82,0,0,0-5,0l-.44.4a3.11,3.11,0,0,0,0,4.6,3.82,3.82,0,0,0,5,0Z"/><path class="cls-2" d="M66,547.8c3.38,7.6,6.65,15.1,10,22.7,1.09-1.4,2.29-2.7,3.38-4.1-15.14,1.2-22.87,15.9-21.78,28.7.43,5.5,3.7,11.2,9.91,12.7,5.44,1.3,11.11-1.7,12.41-6.7,1.09-4.1-5.77-5.8-6.86-1.7-1.09,4.4-6.31,1.5-7.62-1.1-1.74-3.4-1-7.8-.11-11.2,1.63-6.6,5.88-13.5,13.94-14.1,2.07-.2,4.36-2,3.38-4.1-3.38-7.6-6.65-15.1-10-22.7-1.42-3.9-8.28-2.2-6.65,1.6Z"/><path class="cls-2" d="M76.89,593.7a3.25,3.25,0,1,0,0-6.5,3.25,3.25,0,1,0,0,6.5Z"/><path class="cls-2" d="M61.75,563.7a3.25,3.25,0,1,0,0-6.5,3.25,3.25,0,1,0,0,6.5Z"/><path class="cls-2" d="M342,758.5c-2.39,5.2-7-1.8-7-4.7a9.16,9.16,0,0,1,6.21-8.5c7.73-2.8,13.18,4,18.41,8,10.89,8.1,27.55,15.7,41.92,12.4,11.55-2.6,20-16,10.13-24.8-9.36-8.3-24.07-1.7-24.39,9.7-.11,4.2,7,4.2,7.08,0,.21-7.5,11.76-9.9,14.37-2.2,2.72,8.3-9.15,11.9-15.68,11.5-7.95-.5-16-3.7-22.65-7.5-6.1-3.5-10.78-9.1-17.1-12.2-11-5.5-24.83,1.3-25.37,13-.22,5,2.17,10.4,7.29,12.7,4.68,2,10.67.5,12.74-4,1.85-3.9-4.24-7.3-6-3.4Z"/><path class="cls-2" d="M463.92,757.1c.22-9.4-11.1-17.5-21.12-14.9-5.12,1.3-6.75,6.1-11.22,8.3a14.61,14.61,0,0,1-14.81-1.4c-3.59-2.5-7.19,3.1-3.59,5.6a22.16,22.16,0,0,0,20.91,1.9c3.81-1.6,5.55-4.3,8.49-6.8,5.34-4.5,14.37,1.6,14.27,7.3-.11,4.1,7,4.1,7.07,0Z"/><path class="cls-2" d="M451.4,764.2a3.25,3.25,0,1,0,0-6.5,3.25,3.25,0,1,0,0,6.5Z"/><path class="cls-2" d="M378.22,746.4a3.25,3.25,0,1,0,0-6.5,3.25,3.25,0,1,0,0,6.5Z"/><path class="cls-2" d="M462,753.9c4.14-2,8.83-.1,12.75,1.3,4.46,1.6,8.93,3.4,13.39,4.9,6.64,2.3,14.38,3.5,20.69-.3,12.42-7.3,3.49-25.3-10.56-19.5-4.14,1.7-.55,7.3,3.59,5.6a4.35,4.35,0,0,1,6,4.2c-.11,3.1-3.26,4.9-6.31,5.5-5.23,1-10.68-1.4-15.36-3.2-8.6-3.2-18.62-8.6-27.88-4.2-3.92,2.1-.33,7.7,3.7,5.7Z"/><path class="cls-2" d="M508.47,735.2c2.72,4.9,8.27,8.5,14.48,7.4,5.66-1,9.91-5.4,9.69-10.8-.11-6.1-5-10.5-9.25-14.7-2.73-2.6-4.8-5.2-5.45-8.9-.76-4.3-.54-8.9-.76-13.2s-7.3-4.2-7.08,0c.43,8.8-.22,17.7,6.32,24.8,3,3.3,7.4,6.1,8.71,10.3,1,3-.66,6.2-4.47,6.2-2.94,0-4.9-2.2-6.1-4.4-2-3.7-8.16-.4-6.09,3.3Z"/><path class="cls-2" d="M527.31,593.3a8.29,8.29,0,0,0,4.57-11.3c-2.18-4.7-8-7.2-13.29-7.2-13,0-20.91,13-14.81,23.4,3.27,5.6,9.15,9.7,12.85,15.1,4.14,6,7.52,13.1,8.39,20.3.76,6.1-2.29,17.2-11.54,15.6-9-1.5-7.08-13.1,1.63-13.3,4.57-.1,4.57-6.6,0-6.5-12.09.3-19.6,13.2-11,22,9.47,9.7,24.5,1.9,27.44-8.9,3.49-13-4.46-28-13.07-37.9-4.35-5-12.3-10.2-9.14-17.5a10,10,0,0,1,9.25-5.7c3.16,0,10.78,4.1,5.12,6.4-4.14,1.5-.54,7.1,3.6,5.5Z"/><path class="cls-2" d="M522.19,693.1c-5.77.1-12.2-7.1-8.71-12.1,2.28-3.3,6.2-5,8.16-8.7a17.45,17.45,0,0,0-2.07-19.2c-2.72-3.3-8.93-.1-6.09,3.3,3.15,3.8,4,8.6,1.85,13s-7.84,6.1-9.37,10.9c-2.94,9.3,6.1,19.6,16.23,19.4a3.3,3.3,0,1,0,0-6.6Z"/><path class="cls-2" d="M526.43,691.4a3.25,3.25,0,1,0,0-6.5,3.25,3.25,0,1,0,0,6.5Z"/><path class="cls-2" d="M507.05,624.2a3.25,3.25,0,1,0,0-6.5,3.25,3.25,0,1,0,0,6.5Z"/><path class="cls-2" d="M529.81,562.8c-6.75-6.5-16.23-3.4-23.63.1-4,1.9-.44,7.6,3.59,5.6,4.47-2.1,10.78-5.2,15-1.2,3.16,3.1,8.17-1.5,5-4.5Z"/><path class="cls-2" d="M524.37,553.5c7-4.8,10.89-14.2,7.4-22-3.38-7.6-13.83-10.1-21-5.3a18.68,18.68,0,0,0-7,9.6c-1.2,3.6-3.16,9.4-.65,12.9,3.16,4.5,17.31,10.4,20.91,3.7,2-3.8-4.14-7.1-6.1-3.3l-.33.6c.66-.5,1.42-1,2.07-1.5-3.37,1.2-10.45-.6-10.45-4.3,0-3.9,1.85-9.6,5.23-12.2a7,7,0,0,1,11.32,4.3,12.66,12.66,0,0,1-5,11.7c-3.59,2.6,0,8.3,3.6,5.8Z"/><path class="cls-2" d="M513.8,540.6v.3a3.56,3.56,0,0,0,3.6,3.3,3.48,3.48,0,0,0,3.59-3.3v-.3a3.55,3.55,0,0,0-3.59-3.3,3.49,3.49,0,0,0-3.6,3.3Z"/><path class="cls-2" d="M525.13,507.9c2.94,2.8-4.58,5.6-6.21,5.8a6.65,6.65,0,0,1-6.86-2.9c-2.51-3.8-1.31-8.8,1.09-12.4,5.44-8.4,15.46-13.4,19.38-22.8,3.49-8.2.33-17.5-6.2-23.6-3.6-3.4-8.17-5.6-12-8.7a13.77,13.77,0,0,1-4.47-5.4c-.76-1.9-1.52-8.3,3.16-6.8,4.36,1.4,6.21-4.9,1.85-6.3a9.67,9.67,0,0,0-11.65,5c-2.07,4.1-1.09,8.9,1.2,12.7,5.88,9.8,21.78,12.2,22.43,25.1.65,12.4-15.68,19.2-21,29.3-4.14,7.7-2.94,19.1,6.86,22.6,9.59,3.4,27.23-6.9,17.32-16.2-3-3-8.06,1.6-4.9,4.6Z"/><path class="cls-2" d="M520.66,429.2v.3a3.56,3.56,0,0,0,3.6,3.3,3.48,3.48,0,0,0,3.59-3.3v-.3a3.61,3.61,0,0,0-7.19,0Z"/><path class="cls-2" d="M513.15,480.6c7.84-5.5,7.84-15,1.2-21.4-3.16-3.1-8.17,1.6-5,4.6s4.35,8.3.21,11.2c-3.59,2.5-.1,8.2,3.6,5.6Z"/><path class="cls-2" d="M528.29,499.3a3.25,3.25,0,1,0,0-6.5,3.25,3.25,0,1,0,0,6.5Z"/><path class="cls-2" d="M526.65,403.2l-5.33,5.2c-1.53,1.5-3.27,3.9-5.12,5.1h3.59c-2-1-3.81-3.5-5.23-5.1-1.74-1.8-3.37-3.6-4.9-5.5-2.83-3.3-7.84,1.3-5,4.6,3.16,3.7,7,9.3,11.55,11.6a4.11,4.11,0,0,0,3.59,0c4.47-2.7,8.28-7.7,11.87-11.3,3.16-3-1.85-7.7-5-4.6Z"/><path class="cls-2" d="M526.65,384.7l-5.33,5.2c-1.53,1.5-3.27,3.9-5.12,5.1h3.59c-2-1-3.81-3.5-5.23-5.1-1.74-1.8-3.37-3.6-4.9-5.5-2.83-3.3-7.84,1.3-5,4.6,3.16,3.7,7,9.3,11.55,11.6a4.11,4.11,0,0,0,3.59,0c4.47-2.7,8.28-7.7,11.87-11.3,3.16-3.1-1.85-7.7-5-4.6Z"/><path class="cls-2" d="M511.62,378.8a44.58,44.58,0,0,1,17.86-13.2c2.29-1,2.29-4.7,0-5.6-5.77-2.4-6.42-9.4-10.67-13.2a11.68,11.68,0,0,0-13.07-1.9l4.9,4.5a54.56,54.56,0,0,1,15.25-14.5c1.74-1.1,2.61-3.6.76-5.1a92.28,92.28,0,0,0-17.42-11c-4-1.9-7.63,3.7-3.6,5.6a84.72,84.72,0,0,1,16,9.9c.22-1.7.44-3.4.77-5.1A60.69,60.69,0,0,0,504.65,346c-2,2.8,1.86,6,4.9,4.5,4.47-2.3,7.3,5.1,8.83,7.7,1.85,3.1,4.13,5.9,7.73,7.4V360a49.86,49.86,0,0,0-20.48,15.5c-2.83,3.4,3.27,6.6,6,3.3Z"/><path class="cls-2" d="M519.9,329.3c5.55-3,9.26-8.1,9.8-14,.55-6.3-2.94-11.3-7.29-15.9-5.67-5.8-11.11-11.1-8.17-19.6,1.09-3.3,4.24-7.4,8.71-6.4,5,1.2,3.7,11.4.54,10.3-4.24-1.5-6.09,4.8-1.85,6.3,10.78,3.7,14.16-11.2,10.35-17.7-4.68-8.2-17-6.3-22,.5-5.88,8.1-4.25,18.6,2.18,25.8,3.37,3.7,8.06,7,9.91,11.7,2,5.1-.87,10.6-5.77,13.3-3.92,2.2-.33,7.8,3.59,5.7Z"/><path class="cls-2" d="M510.1,311.9a3.25,3.25,0,1,0,0-6.5,3.25,3.25,0,1,0,0,6.5Z"/><path class="cls-2" d="M525,342.4l-.44.4a3.11,3.11,0,0,0,0,4.6,3.82,3.82,0,0,0,5,0l.44-.4a3.1,3.1,0,0,0,0-4.6,3.82,3.82,0,0,0-5,0Z"/><path class="cls-2" d="M522.3,268.3c-3.38-7.6-6.65-15.1-10-22.7-1.09,1.4-2.29,2.7-3.38,4.1,15.14-1.2,22.87-15.9,21.78-28.7-.43-5.5-3.7-11.2-9.91-12.7-5.44-1.3-11.11,1.7-12.41,6.7-1.09,4.1,5.77,5.8,6.86,1.7,1.09-4.4,6.31-1.5,7.62,1.1,1.74,3.4,1,7.8.11,11.2-1.63,6.6-5.88,13.5-13.94,14.1-2.07.2-4.36,2-3.38,4.1,3.38,7.6,6.65,15.1,10,22.7,1.53,4,8.39,2.3,6.65-1.6Z"/><path class="cls-2" d="M511.51,229a3.25,3.25,0,1,0,0-6.5,3.25,3.25,0,1,0,0,6.5Z"/><path class="cls-2" d="M526.54,259a3.25,3.25,0,1,0,0-6.5,3.25,3.25,0,1,0,0,6.5Z"/><path class="cls-2" d="M246.45,57.7c2.39-5.2,7,1.8,7,4.7a9.16,9.16,0,0,1-6.21,8.5c-7.73,2.8-13.18-4-18.41-8-10.89-8.1-27.55-15.7-41.92-12.4-11.55,2.6-20,16-10.13,24.8,9.36,8.3,24.07,1.7,24.39-9.7.11-4.2-7-4.2-7.08,0-.21,7.5-11.76,9.9-14.37,2.2-2.72-8.3,9.15-11.9,15.68-11.5,7.95.5,16,3.7,22.65,7.5,6.1,3.5,10.78,9.1,17.1,12.2,11,5.5,24.83-1.3,25.37-13,.22-5-2.17-10.4-7.29-12.7-4.68-2-10.67-.5-12.74,4-2,3.9,4.13,7.3,6,3.4Z"/><path class="cls-2" d="M124.37,59.1c-.22,9.4,11.1,17.5,21.12,14.9,5.12-1.3,6.76-6.1,11.22-8.3a14.61,14.61,0,0,1,14.81,1.4c3.6,2.5,7.19-3.1,3.6-5.6a22.17,22.17,0,0,0-20.91-1.9c-3.82,1.6-5.56,4.3-8.5,6.8-5.33,4.5-14.37-1.6-14.26-7.3.1-4.2-7-4.2-7.08,0Z"/><path class="cls-2" d="M136.89,58.5a3.25,3.25,0,1,0,0-6.5,3.25,3.25,0,1,0,0,6.5Z"/><path class="cls-2" d="M210.18,76.3a3.25,3.25,0,1,0,0-6.5,3.25,3.25,0,1,0,0,6.5Z"/><path class="cls-2" d="M126.33,62.2c-4.14,2-8.82.1-12.74-1.3-4.47-1.6-8.93-3.4-13.4-4.9-6.64-2.3-14.37-3.5-20.69.3C67.08,63.6,76,81.6,90.06,75.8c4.14-1.7.55-7.3-3.59-5.6a4.35,4.35,0,0,1-6-4.2c.11-3.1,3.27-4.9,6.32-5.5,5.22-1,10.67,1.4,15.35,3.2,8.6,3.2,18.62,8.6,27.88,4.2,3.92-2,.44-7.6-3.7-5.7Z"/><path class="cls-2" d="M79.83,81c-2.73-4.9-8.28-8.5-14.49-7.4-5.66,1-9.91,5.4-9.69,10.8.11,6.1,5,10.5,9.26,14.7,2.72,2.6,4.79,5.2,5.44,8.9.76,4.3.55,8.9.76,13.2s7.3,4.2,7.08,0c-.43-8.8.22-17.7-6.31-24.8-3-3.3-7.41-6.1-8.72-10.3-1-3,.66-6.2,4.47-6.2,2.94,0,4.9,2.2,6.1,4.4,2.07,3.7,8.16.4,6.1-3.3Z"/><path class="cls-2" d="M61.09,222.9a8.29,8.29,0,0,0-4.57,11.3c2.18,4.7,7.95,7.2,13.29,7.2,13,0,20.91-13,14.81-23.4-3.27-5.6-9.15-9.7-12.85-15.1-4.14-6-7.52-13.1-8.39-20.3-.76-6.1,2.29-17.2,11.54-15.6,9,1.5,7.08,13.1-1.63,13.3-4.57.1-4.57,6.6,0,6.5,12.09-.3,19.6-13.2,11-22-9.47-9.7-24.5-1.9-27.44,8.9-3.49,13,4.46,28,13.07,37.9,4.35,5,12.3,10.2,9.14,17.5a10,10,0,0,1-9.25,5.7c-3.16,0-10.78-4.1-5.12-6.4,4.14-1.5.54-7.1-3.6-5.5Z"/><path class="cls-2" d="M66.21,123c5.77-.1,12.2,7.1,8.71,12.1-2.28,3.3-6.2,5-8.16,8.7A17.45,17.45,0,0,0,68.83,163c2.72,3.3,8.93.1,6.09-3.3-3.15-3.8-4-8.6-1.85-13s7.84-6.1,9.37-10.9c2.94-9.3-6.1-19.6-16.23-19.4-4.57.2-4.57,6.7,0,6.6Z"/><path class="cls-2" d="M62,131.3a3.25,3.25,0,1,0,0-6.5,3.25,3.25,0,1,0,0,6.5Z"/><path class="cls-2" d="M81.35,198.6a3.25,3.25,0,1,0,0-6.5,3.25,3.25,0,1,0,0,6.5Z"/><path class="cls-2" d="M58.48,253.4c6.75,6.5,16.23,3.4,23.63-.1,4-1.9.44-7.6-3.59-5.6-4.47,2.1-10.78,5.2-15,1.2-3.16-3.1-8.17,1.5-5,4.5Z"/><path class="cls-2" d="M63.93,262.7c-7,4.8-10.89,14.2-7.41,22,3.38,7.6,13.83,10.1,21,5.3a18.68,18.68,0,0,0,7-9.6c1.2-3.6,3.16-9.4.65-12.9C82,263,67.85,257.1,64.25,263.8c-2,3.8,4.14,7.1,6.1,3.3l.33-.6c-.66.5-1.42,1-2.07,1.5,3.37-1.2,10.45.6,10.45,4.3,0,3.9-1.85,9.6-5.22,12.2a7,7,0,0,1-11.33-4.3,12.68,12.68,0,0,1,5-11.7c3.59-2.6.11-8.3-3.59-5.8Z"/><path class="cls-2" d="M74.6,275.6v-.3A3.56,3.56,0,0,0,71,272a3.48,3.48,0,0,0-3.59,3.3v.3a3.61,3.61,0,0,0,7.19,0Z"/><path class="cls-2" d="M63.16,308.3c-2.94-2.8,4.58-5.6,6.21-5.8a6.65,6.65,0,0,1,6.86,2.9c2.51,3.8,1.31,8.8-1.09,12.4-5.44,8.4-15.46,13.4-19.38,22.8-3.49,8.2-.33,17.5,6.21,23.6,3.59,3.4,8.16,5.6,12,8.7a13.77,13.77,0,0,1,4.47,5.4c.76,1.9,1.52,8.3-3.16,6.8-4.35-1.4-6.21,4.9-1.85,6.3a9.67,9.67,0,0,0,11.65-5c2.07-4.1,1.09-8.9-1.2-12.7-5.88-9.8-21.78-12.2-22.43-25.1-.65-12.4,15.68-19.2,21-29.3,4.14-7.7,2.94-19.1-6.86-22.6-9.59-3.4-27.23,6.9-17.32,16.2,3.16,3,8.17-1.7,4.9-4.6Z"/><path class="cls-2" d="M67.63,387v-.3a3.56,3.56,0,0,0-3.6-3.3,3.48,3.48,0,0,0-3.59,3.3v.3a3.61,3.61,0,0,0,7.19,0Z"/><path class="cls-2" d="M75.25,335.5c-7.84,5.5-7.84,15-1.2,21.4,3.16,3.1,8.17-1.6,5-4.6s-4.35-8.3-.21-11.2c3.59-2.4,0-8.1-3.6-5.6Z"/><path class="cls-2" d="M60,323.4a3.25,3.25,0,1,0,0-6.5,3.25,3.25,0,1,0,0,6.5Z"/><path class="cls-2" d="M61.64,413,67,407.8c1.53-1.5,3.27-3.9,5.12-5.1H68.5c2,1,3.81,3.5,5.23,5.1,1.74,1.8,3.37,3.6,4.9,5.5,2.83,3.3,7.84-1.3,5-4.6-3.16-3.7-7-9.3-11.55-11.6a4.11,4.11,0,0,0-3.59,0c-4.47,2.7-8.28,7.7-11.87,11.3-3.05,3,2,7.7,5,4.6Z"/><path class="cls-2" d="M61.64,431.5,67,426.3c1.53-1.5,3.27-3.9,5.12-5.1H68.5c2,1,3.81,3.5,5.23,5.1,1.74,1.8,3.37,3.6,4.9,5.5,2.83,3.3,7.84-1.3,5-4.6-3.16-3.7-7-9.3-11.55-11.6a4.11,4.11,0,0,0-3.59,0c-4.47,2.7-8.28,7.7-11.87,11.3-3.05,3.1,2,7.7,5,4.6Z"/><path class="cls-2" d="M76.78,437.4a44.58,44.58,0,0,1-17.86,13.2c-2.29,1-2.29,4.7,0,5.6,5.77,2.4,6.42,9.4,10.67,13.2a11.68,11.68,0,0,0,13.07,1.9l-4.9-4.5a54.56,54.56,0,0,1-15.25,14.5c-1.74,1.1-2.61,3.6-.76,5.1a92.28,92.28,0,0,0,17.42,11c4,1.9,7.63-3.7,3.6-5.6a84.72,84.72,0,0,1-16-9.9c-.22,1.7-.44,3.4-.77,5.1a60.69,60.69,0,0,0,17.76-16.8c2-2.8-1.86-6-4.9-4.5-4.47,2.3-7.3-5.1-8.83-7.7-1.85-3.1-4.13-5.9-7.73-7.4v5.6a49.86,49.86,0,0,0,20.48-15.5c2.83-3.4-3.38-6.6-6-3.3Z"/><path class="cls-2" d="M68.5,486.9c-5.55,3-9.26,8.1-9.8,14-.55,6.3,2.94,11.3,7.29,15.9,5.67,5.8,11.11,11.1,8.17,19.6-1.09,3.3-4.24,7.4-8.71,6.4-5-1.2-3.7-11.4-.54-10.3,4.24,1.5,6.09-4.8,1.85-6.3C56,522.5,52.6,537.4,56.41,543.9c4.68,8.2,17,6.3,22-.5,5.88-8.1,4.25-18.6-2.18-25.8-3.37-3.7-8.06-7-9.91-11.7-2-5.1.87-10.6,5.77-13.3,3.92-2.2.33-7.8-3.59-5.7Z"/><path class="cls-2" d="M78.3,510.8a3.25,3.25,0,1,0,0-6.5,3.25,3.25,0,1,0,0,6.5Z"/><path class="cls-2" d="M63.27,473.8l.44-.4a3.11,3.11,0,0,0,0-4.6,3.82,3.82,0,0,0-5,0l-.44.4a3.11,3.11,0,0,0,0,4.6,3.82,3.82,0,0,0,5,0Z"/><path class="cls-2" d="M66,547.8c3.38,7.6,6.65,15.1,10,22.7,1.09-1.4,2.29-2.7,3.38-4.1-15.14,1.2-22.87,15.9-21.78,28.7.43,5.5,3.7,11.2,9.91,12.7,5.44,1.3,11.11-1.7,12.41-6.7,1.09-4.1-5.77-5.8-6.86-1.7-1.09,4.4-6.31,1.5-7.62-1.1-1.74-3.4-1-7.8-.11-11.2,1.63-6.6,5.88-13.5,13.94-14.1,2.07-.2,4.36-2,3.38-4.1-3.38-7.6-6.65-15.1-10-22.7-1.42-3.9-8.28-2.2-6.65,1.6Z"/><path class="cls-2" d="M76.89,593.7a3.25,3.25,0,1,0,0-6.5,3.25,3.25,0,1,0,0,6.5Z"/><path class="cls-2" d="M61.75,563.7a3.25,3.25,0,1,0,0-6.5,3.25,3.25,0,1,0,0,6.5Z"/><path class="cls-2" d="M342,758.5c-2.39,5.2-7-1.8-7-4.7a9.16,9.16,0,0,1,6.21-8.5c7.73-2.8,13.18,4,18.41,8,10.89,8.1,27.55,15.7,41.92,12.4,11.55-2.6,20-16,10.13-24.8-9.36-8.3-24.07-1.7-24.39,9.7-.11,4.2,7,4.2,7.08,0,.21-7.5,11.76-9.9,14.37-2.2,2.72,8.3-9.15,11.9-15.68,11.5-7.95-.5-16-3.7-22.65-7.5-6.1-3.5-10.78-9.1-17.1-12.2-11-5.5-24.83,1.3-25.37,13-.22,5,2.17,10.4,7.29,12.7,4.68,2,10.67.5,12.74-4,1.85-3.9-4.24-7.3-6-3.4Z"/><path class="cls-2" d="M463.92,757.1c.22-9.4-11.1-17.5-21.12-14.9-5.12,1.3-6.75,6.1-11.22,8.3a14.61,14.61,0,0,1-14.81-1.4c-3.59-2.5-7.19,3.1-3.59,5.6a22.16,22.16,0,0,0,20.91,1.9c3.81-1.6,5.55-4.3,8.49-6.8,5.34-4.5,14.37,1.6,14.27,7.3-.11,4.1,7,4.1,7.07,0Z"/><path class="cls-2" d="M451.4,764.2a3.25,3.25,0,1,0,0-6.5,3.25,3.25,0,1,0,0,6.5Z"/><path class="cls-2" d="M378.22,746.4a3.25,3.25,0,1,0,0-6.5,3.25,3.25,0,1,0,0,6.5Z"/><path class="cls-2" d="M462,753.9c4.14-2,8.83-.1,12.75,1.3,4.46,1.6,8.93,3.4,13.39,4.9,6.64,2.3,14.38,3.5,20.69-.3,12.42-7.3,3.49-25.3-10.56-19.5-4.14,1.7-.55,7.3,3.59,5.6a4.35,4.35,0,0,1,6,4.2c-.11,3.1-3.26,4.9-6.31,5.5-5.23,1-10.68-1.4-15.36-3.2-8.6-3.2-18.62-8.6-27.88-4.2-3.92,2.1-.33,7.7,3.7,5.7Z"/><path class="cls-2" d="M508.47,735.2c2.72,4.9,8.27,8.5,14.48,7.4,5.66-1,9.91-5.4,9.69-10.8-.11-6.1-5-10.5-9.25-14.7-2.73-2.6-4.8-5.2-5.45-8.9-.76-4.3-.54-8.9-.76-13.2s-7.3-4.2-7.08,0c.43,8.8-.22,17.7,6.32,24.8,3,3.3,7.4,6.1,8.71,10.3,1,3-.66,6.2-4.47,6.2-2.94,0-4.9-2.2-6.1-4.4-2-3.7-8.16-.4-6.09,3.3Z"/><path class="cls-2" d="M527.31,593.3a8.29,8.29,0,0,0,4.57-11.3c-2.18-4.7-8-7.2-13.29-7.2-13,0-20.91,13-14.81,23.4,3.27,5.6,9.15,9.7,12.85,15.1,4.14,6,7.52,13.1,8.39,20.3.76,6.1-2.29,17.2-11.54,15.6-9-1.5-7.08-13.1,1.63-13.3,4.57-.1,4.57-6.6,0-6.5-12.09.3-19.6,13.2-11,22,9.47,9.7,24.5,1.9,27.44-8.9,3.49-13-4.46-28-13.07-37.9-4.35-5-12.3-10.2-9.14-17.5a10,10,0,0,1,9.25-5.7c3.16,0,10.78,4.1,5.12,6.4-4.14,1.5-.54,7.1,3.6,5.5Z"/><path class="cls-2" d="M522.19,693.1c-5.77.1-12.2-7.1-8.71-12.1,2.28-3.3,6.2-5,8.16-8.7a17.45,17.45,0,0,0-2.07-19.2c-2.72-3.3-8.93-.1-6.09,3.3,3.15,3.8,4,8.6,1.85,13s-7.84,6.1-9.37,10.9c-2.94,9.3,6.1,19.6,16.23,19.4a3.3,3.3,0,1,0,0-6.6Z"/><path class="cls-2" d="M526.43,691.4a3.25,3.25,0,1,0,0-6.5,3.25,3.25,0,1,0,0,6.5Z"/><path class="cls-2" d="M507.05,624.2a3.25,3.25,0,1,0,0-6.5,3.25,3.25,0,1,0,0,6.5Z"/><path class="cls-2" d="M529.81,562.8c-6.75-6.5-16.23-3.4-23.63.1-4,1.9-.44,7.6,3.59,5.6,4.47-2.1,10.78-5.2,15-1.2,3.16,3.1,8.17-1.5,5-4.5Z"/><path class="cls-2" d="M524.37,553.5c7-4.8,10.89-14.2,7.4-22-3.38-7.6-13.83-10.1-21-5.3a18.68,18.68,0,0,0-7,9.6c-1.2,3.6-3.16,9.4-.65,12.9,3.16,4.5,17.31,10.4,20.91,3.7,2-3.8-4.14-7.1-6.1-3.3l-.33.6c.66-.5,1.42-1,2.07-1.5-3.37,1.2-10.45-.6-10.45-4.3,0-3.9,1.85-9.6,5.23-12.2a7,7,0,0,1,11.32,4.3,12.66,12.66,0,0,1-5,11.7c-3.59,2.6,0,8.3,3.6,5.8Z"/><path class="cls-2" d="M513.8,540.6v.3a3.56,3.56,0,0,0,3.6,3.3,3.48,3.48,0,0,0,3.59-3.3v-.3a3.55,3.55,0,0,0-3.59-3.3,3.49,3.49,0,0,0-3.6,3.3Z"/><path class="cls-2" d="M525.13,507.9c2.94,2.8-4.58,5.6-6.21,5.8a6.65,6.65,0,0,1-6.86-2.9c-2.51-3.8-1.31-8.8,1.09-12.4,5.44-8.4,15.46-13.4,19.38-22.8,3.49-8.2.33-17.5-6.2-23.6-3.6-3.4-8.17-5.6-12-8.7a13.77,13.77,0,0,1-4.47-5.4c-.76-1.9-1.52-8.3,3.16-6.8,4.36,1.4,6.21-4.9,1.85-6.3a9.67,9.67,0,0,0-11.65,5c-2.07,4.1-1.09,8.9,1.2,12.7,5.88,9.8,21.78,12.2,22.43,25.1.65,12.4-15.68,19.2-21,29.3-4.14,7.7-2.94,19.1,6.86,22.6,9.59,3.4,27.23-6.9,17.32-16.2-3-3-8.06,1.6-4.9,4.6Z"/><path class="cls-2" d="M520.66,429.2v.3a3.56,3.56,0,0,0,3.6,3.3,3.48,3.48,0,0,0,3.59-3.3v-.3a3.61,3.61,0,0,0-7.19,0Z"/><path class="cls-2" d="M513.15,480.6c7.84-5.5,7.84-15,1.2-21.4-3.16-3.1-8.17,1.6-5,4.6s4.35,8.3.21,11.2c-3.59,2.5-.1,8.2,3.6,5.6Z"/><path class="cls-2" d="M528.29,499.3a3.25,3.25,0,1,0,0-6.5,3.25,3.25,0,1,0,0,6.5Z"/><path class="cls-2" d="M526.65,403.2l-5.33,5.2c-1.53,1.5-3.27,3.9-5.12,5.1h3.59c-2-1-3.81-3.5-5.23-5.1-1.74-1.8-3.37-3.6-4.9-5.5-2.83-3.3-7.84,1.3-5,4.6,3.16,3.7,7,9.3,11.55,11.6a4.11,4.11,0,0,0,3.59,0c4.47-2.7,8.28-7.7,11.87-11.3,3.16-3-1.85-7.7-5-4.6Z"/><path class="cls-2" d="M526.65,384.7l-5.33,5.2c-1.53,1.5-3.27,3.9-5.12,5.1h3.59c-2-1-3.81-3.5-5.23-5.1-1.74-1.8-3.37-3.6-4.9-5.5-2.83-3.3-7.84,1.3-5,4.6,3.16,3.7,7,9.3,11.55,11.6a4.11,4.11,0,0,0,3.59,0c4.47-2.7,8.28-7.7,11.87-11.3,3.16-3.1-1.85-7.7-5-4.6Z"/><path class="cls-2" d="M511.62,378.8a44.58,44.58,0,0,1,17.86-13.2c2.29-1,2.29-4.7,0-5.6-5.77-2.4-6.42-9.4-10.67-13.2a11.68,11.68,0,0,0-13.07-1.9l4.9,4.5a54.56,54.56,0,0,1,15.25-14.5c1.74-1.1,2.61-3.6.76-5.1a92.28,92.28,0,0,0-17.42-11c-4-1.9-7.63,3.7-3.6,5.6a84.72,84.72,0,0,1,16,9.9c.22-1.7.44-3.4.77-5.1A60.69,60.69,0,0,0,504.65,346c-2,2.8,1.86,6,4.9,4.5,4.47-2.3,7.3,5.1,8.83,7.7,1.85,3.1,4.13,5.9,7.73,7.4V360a49.86,49.86,0,0,0-20.48,15.5c-2.83,3.4,3.27,6.6,6,3.3Z"/><path class="cls-2" d="M519.9,329.3c5.55-3,9.26-8.1,9.8-14,.55-6.3-2.94-11.3-7.29-15.9-5.67-5.8-11.11-11.1-8.17-19.6,1.09-3.3,4.24-7.4,8.71-6.4,5,1.2,3.7,11.4.54,10.3-4.24-1.5-6.09,4.8-1.85,6.3,10.78,3.7,14.16-11.2,10.35-17.7-4.68-8.2-17-6.3-22,.5-5.88,8.1-4.25,18.6,2.18,25.8,3.37,3.7,8.06,7,9.91,11.7,2,5.1-.87,10.6-5.77,13.3-3.92,2.2-.33,7.8,3.59,5.7Z"/><path class="cls-2" d="M510.1,311.9a3.25,3.25,0,1,0,0-6.5,3.25,3.25,0,1,0,0,6.5Z"/><path class="cls-2" d="M525,342.4l-.44.4a3.11,3.11,0,0,0,0,4.6,3.82,3.82,0,0,0,5,0l.44-.4a3.1,3.1,0,0,0,0-4.6,3.82,3.82,0,0,0-5,0Z"/><path class="cls-2" d="M522.3,268.3c-3.38-7.6-6.65-15.1-10-22.7-1.09,1.4-2.29,2.7-3.38,4.1,15.14-1.2,22.87-15.9,21.78-28.7-.43-5.5-3.7-11.2-9.91-12.7-5.44-1.3-11.11,1.7-12.41,6.7-1.09,4.1,5.77,5.8,6.86,1.7,1.09-4.4,6.31-1.5,7.62,1.1,1.74,3.4,1,7.8.11,11.2-1.63,6.6-5.88,13.5-13.94,14.1-2.07.2-4.36,2-3.38,4.1,3.38,7.6,6.65,15.1,10,22.7,1.53,4,8.39,2.3,6.65-1.6Z"/><path class="cls-2" d="M511.51,229a3.25,3.25,0,1,0,0-6.5,3.25,3.25,0,1,0,0,6.5Z"/><path class="cls-2" d="M526.54,259a3.25,3.25,0,1,0,0-6.5,3.25,3.25,0,1,0,0,6.5Z"/><path class="cls-2" d="M240.24,761.8c2.07,4.4,7.73,6,12.3,4.2,5.12-2,7.85-7.3,7.85-12.2,0-11.9-14.16-19.2-25.49-13.6-6.1,3-10.56,8.4-16.44,11.8-6.54,3.8-14.27,6.9-22.11,7.7-6.64.7-18.73-2.1-17-10.6,1.64-8.3,14.27-6.5,14.49,1.5.11,4.2,7.18,4.2,7.08,0-.33-11.1-14.38-18-24-10.1-10.57,8.7-2.07,22.5,9.69,25.2,14.16,3.2,30.49-4.1,41.27-12,5.45-4,11.11-11.3,19.06-8.4a9.16,9.16,0,0,1,6.21,8.5c0,2.9-4.47,9.9-7,4.7-1.64-3.9-7.73-.5-6,3.3Z"/><path class="cls-2" d="M131.45,757.1c-.11-5.3,7.73-11.2,13.17-8,3.6,2.1,5.45,5.7,9.48,7.5A21.92,21.92,0,0,0,175,754.7c3.59-2.5.11-8.2-3.6-5.6a14.62,14.62,0,0,1-14.15,1.7c-4.8-2-6.65-7.2-11.88-8.6-10.12-2.7-21.34,5.6-21.12,14.9.22,4.1,7.29,4.2,7.19,0Z"/><path class="cls-2" d="M136.89,764.2a3.25,3.25,0,1,0,0-6.5,3.25,3.25,0,1,0,0,6.5Z"/><path class="cls-2" d="M210.18,746.4a3.25,3.25,0,1,0,0-6.5,3.25,3.25,0,1,0,0,6.5Z"/><path class="cls-2" d="M129.92,748.3c-9.15-4.4-19.17,1-27.88,4.2-4.68,1.7-10.13,4.1-15.35,3.2-2.94-.5-6.21-2.4-6.32-5.5a4.35,4.35,0,0,1,6-4.2c4.14,1.7,7.73-3.9,3.59-5.6C76,734.6,67.08,752.7,79.39,759.9c6.32,3.7,14,2.5,20.69.3,4.58-1.5,8.93-3.3,13.4-4.9,4-1.4,8.6-3.3,12.74-1.3s7.73-3.7,3.7-5.7Z"/><path class="cls-2" d="M73.73,731.9c-1.2,2.2-3.16,4.4-6.1,4.4A4.45,4.45,0,0,1,63,730.9c1-4.7,5.77-7.7,8.93-11.2,6.64-7.1,6-15.9,6.31-24.8.22-4.2-6.86-4.2-7.08,0s-.11,8.2-.65,12.3-2.5,6.9-5.55,9.9c-4.25,4.1-9,8.6-9.26,14.7-.11,5.4,4,9.8,9.69,10.8,6.21,1.1,11.76-2.5,14.49-7.4,2.06-3.7-4-7-6.1-3.3Z"/><path class="cls-2" d="M66.21,699.7c10.24.2,19.06-10.2,16.23-19.4-1.42-4.7-6.64-6.2-9-10.3-2.61-4.5-1.74-9.6,1.52-13.6,2.73-3.3-3.37-6.6-6.09-3.3a17.64,17.64,0,0,0-2.07,19.2c1.74,3.5,4.68,5.1,7.4,7.8,4.9,4.9-1.74,13.2-8,13.1-4.57-.1-4.57,6.4,0,6.5Z"/><path class="cls-2" d="M62,691.4a3.25,3.25,0,1,0,0-6.5,3.25,3.25,0,1,0,0,6.5Z"/><path class="cls-2" d="M81.35,624.2a3.25,3.25,0,1,0,0-6.5,3.25,3.25,0,1,0,0,6.5Z"/><path class="cls-2" d="M348.05,55.4c-2.07-4.4-7.73-6-12.3-4.2-5.12,2-7.84,7.3-7.84,12.2,0,11.9,14.15,19.2,25.48,13.6,6.1-3,10.56-8.4,16.44-11.8,6.54-3.8,14.27-6.9,22.11-7.7,6.64-.7,18.73,2.1,17,10.6-1.63,8.3-14.27,6.5-14.49-1.5-.1-4.2-7.18-4.2-7.07,0,.32,11.1,14.37,18,23.95,10.1,10.57-8.7,2.07-22.5-9.69-25.2-14.16-3.2-30.49,4.1-41.27,12-5.45,4-11.11,11.3-19.06,8.4a9.16,9.16,0,0,1-6.21-8.5c0-2.9,4.47-9.9,7-4.7,1.64,3.9,7.73.5,6-3.3Z"/><path class="cls-2" d="M456.85,60.1c.1,5.3-7.74,11.2-13.18,8-3.6-2.1-5.45-5.7-9.48-7.5a21.92,21.92,0,0,0-20.91,1.9c-3.59,2.5-.1,8.2,3.6,5.6A14.64,14.64,0,0,1,431,66.4c4.79,2,6.64,7.2,11.87,8.6C453,77.7,464.25,69.4,464,60.1c-.21-4.1-7.29-4.2-7.18,0Z"/><path class="cls-2" d="M451.4,59.5a3.25,3.25,0,1,0,0-6.5,3.25,3.25,0,1,0,0,6.5Z"/><path class="cls-2" d="M378.22,77.3a3.25,3.25,0,1,0,0-6.5,3.25,3.25,0,1,0,0,6.5Z"/><path class="cls-2" d="M458.37,68.9c9.15,4.4,19.17-1,27.88-4.2,4.68-1.7,10.13-4.1,15.35-3.2,2.95.5,6.21,2.4,6.32,5.5a4.35,4.35,0,0,1-6,4.2c-4.14-1.7-7.73,3.9-3.59,5.6,13.94,5.8,22.87-12.3,10.56-19.5-6.32-3.7-14-2.5-20.69-.3-4.57,1.5-8.93,3.3-13.4,4.9-4,1.4-8.6,3.3-12.74,1.3s-7.73,3.7-3.7,5.7Z"/><path class="cls-2" d="M514.67,85.3c1.2-2.2,3.16-4.4,6.1-4.4a4.45,4.45,0,0,1,4.68,5.4c-1,4.7-5.77,7.7-8.93,11.2-6.64,7.1-6,15.9-6.31,24.8-.22,4.2,6.86,4.2,7.08,0s.11-8.2.65-12.3,2.5-6.9,5.55-9.9c4.25-4.1,9-8.6,9.26-14.7.11-5.4-4-9.8-9.69-10.8-6.21-1.1-11.76,2.5-14.49,7.4-2.17,3.7,4,7,6.1,3.3Z"/><path class="cls-2" d="M522.19,117.5c-10.24-.2-19.06,10.2-16.23,19.4,1.42,4.7,6.64,6.2,9,10.3,2.61,4.5,1.74,9.6-1.53,13.6-2.72,3.3,3.38,6.6,6.1,3.3a17.64,17.64,0,0,0,2.07-19.2c-1.74-3.5-4.68-5.1-7.4-7.8-4.9-4.9,1.74-13.2,8-13.1,4.57.1,4.57-6.4,0-6.5Z"/><path class="cls-2" d="M526.43,132.3a3.25,3.25,0,1,0,0-6.5,3.25,3.25,0,1,0,0,6.5Z"/><path class="cls-2" d="M507.05,199.6a3.25,3.25,0,1,0,0-6.5,3.25,3.25,0,1,0,0,6.5Z"/><path class="cls-2" d="M74.05,617.8c-9.47-7.4-23.41,6.7-14.7,14.8a15.74,15.74,0,0,0,6.86,3.5c3.49,1,8.06,1,10.35,4.1a6.33,6.33,0,0,1-.44,7.9c-3.7,3.7-9.91,1.4-9.58-3.6.33-4.2-6.86-4.2-7.08,0-1,14.2,21.67,15.7,25.05,2.5a12.93,12.93,0,0,0-5.77-13.9c-3.49-2.1-7.52-2.2-11.33-3.5-2.07-.7-4-1.9-3.59-4.1.32-1.4,3.48-4.4,5.12-3.1,3.48,2.7,8.6-1.9,5.11-4.6Z"/><path class="cls-2" d="M288.16,739.6c-2.62,4.8-8.06,6.3-13.29,7.9a28.52,28.52,0,0,1-16.12.4c-4.35-1.2-6.21,5.1-1.85,6.3,7.3,2,14.16,1.4,21.24-.8,6.53-2,13-4.5,16.11-10.5,2.07-3.8-4-7.1-6.09-3.3Z"/><path class="cls-2" d="M289.14,744.1a44.94,44.94,0,0,0,40.94,9.2c4.36-1.2,2.51-7.5-1.85-6.3a37.59,37.59,0,0,1-34.08-7.5c-3.38-2.9-8.39,1.7-5,4.6Z"/><path class="cls-2" d="M291.75,762.3a3.25,3.25,0,1,0,0-6.5,3.25,3.25,0,1,0,0,6.5Z"/><path class="cls-2" d="M271.38,763.8h.22a3.57,3.57,0,0,0,3.6-3.3,3.49,3.49,0,0,0-3.6-3.3h-.22a3.31,3.31,0,1,0,0,6.6Z"/><path class="cls-2" d="M310.92,764.1a3.25,3.25,0,1,0,0-6.5,3.25,3.25,0,1,0,0,6.5Z"/><path class="cls-2" d="M514.35,199.4c9.47,7.4,23.41-6.7,14.7-14.8a15.74,15.74,0,0,0-6.86-3.5c-3.49-1-8.06-1-10.35-4.1a6.33,6.33,0,0,1,.44-7.9c3.7-3.7,9.91-1.4,9.58,3.6-.33,4.2,6.86,4.2,7.08,0,1-14.2-21.67-15.7-25.05-2.5a12.93,12.93,0,0,0,5.77,13.9c3.49,2.1,7.52,2.2,11.33,3.5,2.07.7,4,1.9,3.59,4.1-.32,1.4-3.48,4.4-5.12,3.1-3.59-2.7-8.6,1.9-5.11,4.6Z"/><path class="cls-2" d="M300.14,77.6c2.61-4.8,8.05-6.3,13.28-7.9a28.52,28.52,0,0,1,16.12-.4c4.35,1.2,6.21-5.1,1.85-6.3-7.3-2-14.16-1.4-21.24.8-6.53,2-13,4.5-16.11,10.5-2.07,3.8,4,7.1,6.1,3.3Z"/><path class="cls-2" d="M299.26,73.1a44.94,44.94,0,0,0-40.94-9.2c-4.36,1.2-2.51,7.5,1.85,6.3a37.59,37.59,0,0,1,34.08,7.5c3.27,2.9,8.28-1.7,5-4.6Z"/><path class="cls-2" d="M296.65,61.4a3.25,3.25,0,1,0,0-6.5,3.25,3.25,0,1,0,0,6.5Z"/><path class="cls-2" d="M316.91,53.4h-.22a3.57,3.57,0,0,0-3.6,3.3,3.49,3.49,0,0,0,3.6,3.3h.22a3.56,3.56,0,0,0,3.59-3.3,3.48,3.48,0,0,0-3.59-3.3Z"/><path class="cls-2" d="M277.48,59.7a3.25,3.25,0,1,0,0-6.5,3.25,3.25,0,1,0,0,6.5Z"/><path class="cls-2" d="M108.68,702.5V114.7c0-8.2,7.19-14.8,16.12-14.8H463.49c8.93,0,16.12,6.6,16.12,14.8V702.6c0,8.2-7.19,14.8-16.12,14.8H124.8C115.87,717.4,108.68,710.7,108.68,702.5Z"/><path class="cls-1" d="M248.3,221.8c6.21-13.7,10.78-29.9,1.52-43.4-8.38-12.2-23.63-14.3-37.35-8.5a43.84,43.84,0,0,0-24.83,27.9c-3.49,12.5,0,25.5,7.51,36.1s18.3,18.7,28.64,26.8c12.09,9.4,23.31,19.4,32.57,31.3,9.69,12.6,17.64,26.6,22.54,41.3,4.46,13.6,6.64,29.2.33,42.6-7.52,16-27.23,24.7-45.53,19.8-9-2.5-17.53-8.1-22-15.8s-3.71-19.3,6.86-22.2c4.35-1.2,2.5-7.5-1.85-6.3-15.36,4.3-17.86,20.9-10.68,32.4,7.63,12.3,23.2,19.9,38.34,19.9,15.35,0,30.05-7.7,38.11-19.6,8.17-12.1,8.82-26.9,6.32-40.5-5.45-29.7-24.94-57.9-48.57-78.3-19.39-16.7-52.38-34.5-46.39-63.4,3.05-14.8,19.05-31.7,37.24-28.5,8.93,1.6,14.7,9.4,16.34,17.2,2.17,10.1-2,20.4-6.1,29.5-1.64,3.8,5.23,5.5,7,1.7Z"/><path class="cls-1" d="M205.17,163.8c-18.62-.1-34.74,12.2-41,27.9-7.41,18.3-.77,39.4,11.1,54.8,12.64,16.3,30.39,27.4,47.81,38.8,15.58,10.1,36.48,25.2,33.87,45.1-1.31,10.5-12.74,17.2-23.52,12.4-10.13-4.6-10-17.7-2.18-24,3.48-2.8-1.63-7.4-5-4.6-14.7,11.8-7.3,34.8,12.31,36.6,9.25.8,18.4-3.3,22.65-11,4.57-8.3,3.37-18.3-.44-26.6-8.49-18.3-27.88-29.3-44.87-40.3-19.92-12.9-39.64-28.9-46-51.4-3.27-11.7-2.51-24.6,4.79-34.9,6.64-9.5,17.86-16.2,30.38-16.1,4.69-.2,4.69-6.7.11-6.7Z"/><path class="cls-1" d="M149.31,208a55,55,0,0,0-25.71-10.6c-2.72-.4-5.88,2.2-4,4.8a55.46,55.46,0,0,1,8.28,17.9c1.64,5.7,3.27,11.4,7.41,16,6.64,7.6,19.71,9.8,26.13.8,2.51-3.5-3.59-6.8-6.1-3.3s-8,3.3-11.65,1.1c-4-2.6-6.1-7.2-7.51-11.3-2.83-8.6-4.9-16.7-10.46-24.4-1.3,1.6-2.72,3.2-4,4.8a46.42,46.42,0,0,1,22.55,9c3.59,2.4,8.6-2.2,5.12-4.8Z"/><path class="cls-1" d="M146.47,187.2a25.73,25.73,0,0,1-3.37-29.5c4.35-8.1,10.45-16.6,3.05-24.9-2.73-3-7.19.8-5.56,3.9,2.83,5.5,8.39,8.2,13.4,11.6,6.64,4.5,10.56,11.1,11,18.7.22,4.2,7.29,4.2,7.08,0a30.72,30.72,0,0,0-8.5-19.6c-5-5.2-13.5-7.6-16.88-14l-5.55,3.9c4.24,4.8-.87,11.4-3.38,15.7a34,34,0,0,0-4.68,13.2c-1.09,9.3,2.07,18.3,8.38,25.6,2.84,3.3,7.85-1.3,5-4.6Z"/><path class="cls-1" d="M155.08,179.9a3.25,3.25,0,1,0,0-6.5,3.25,3.25,0,1,0,0,6.5Z"/><path class="cls-1" d="M147.56,228.5a3.25,3.25,0,1,0,0-6.5,3.25,3.25,0,1,0,0,6.5Z"/><path class="cls-1" d="M177.29,262.2c-15.68-5.1-29.51,11.7-19.38,24,5,6.1,13.5,8.9,20.36,12.9,8.28,4.8,15.69,11,18.95,19.7,5.56,15.3-1.2,36-17.64,43.3-17.21,7.7-41.82-4.4-47.81-20.4-3.48-9.2-1-20.6,9.37-25,9.91-4.3,21.67,2.2,20.25,12.6-.54,4.1,6.54,4.1,7.08,0,1.09-8.2-4.57-16.1-12.74-19.2-8.38-3.2-18-.6-24.39,5-15.9,13.8-6.43,35.9,8.6,46.4,16.66,11.6,39.86,13.4,54.45-1.9,13.29-13.9,16.45-36.8,4.47-52.3-6.86-8.9-17.1-14.1-27.12-19.4-4.79-2.6-10.35-5.8-10.13-11.6.22-6.8,7.41-10.1,13.94-8,4.25,1.6,6.1-4.7,1.74-6.1Z"/><path class="cls-1" d="M134.28,301.3c-9.7-6.4-3.27-19.1.76-26.6-1.85.2-3.7.4-5.56.7,4,3.9,8,7.8,12,11.7,3.49,3.5,8.72,8.4,5.67,13.5-2.18,3.7,3.92,7,6.1,3.3,3.26-5.6,1.74-11.5-2.18-16.4-4.79-6-11.11-11.2-16.56-16.6-1.52-1.5-4.57-1.2-5.55.7-6.21,11.3-11.76,26.6,1.74,35.6,3.71,2.2,7.19-3.4,3.6-5.9Z"/><path class="cls-1" d="M138.09,298.8a3.25,3.25,0,1,0,0-6.5,3.25,3.25,0,1,0,0,6.5Z"/><path class="cls-1" d="M145.6,346.6a3.25,3.25,0,1,0,0-6.5,3.25,3.25,0,1,0,0,6.5Z"/><path class="cls-1" d="M157.91,351.8a3.25,3.25,0,1,0,0-6.5,3.25,3.25,0,1,0,0,6.5Z"/><path class="cls-1" d="M174,350.9a3.25,3.25,0,1,0,0-6.5,3.25,3.25,0,1,0,0,6.5Z"/><path class="cls-1" d="M195.7,155.5c2-3.7,3.92-7.6,7.19-10.5,4.68-4.2,10.12-3.4,16-1.9,10.35,2.7,19.93,2.7,29.63-1.8l-4.91-1.2c4.58,7.6,10.13,16.9,5.45,25.6-2.07,3.7,4.14,7,6.1,3.3,6-11.1.54-22.2-5.45-32.2-1-1.6-3.15-1.9-4.9-1.2a30.5,30.5,0,0,1-18.62,2.5c-5.77-1.1-11.33-3.5-17.32-2.9-10,1-15.46,9.3-19.38,16.9-2,3.9,4.14,7.2,6.21,3.4Z"/><path class="cls-1" d="M215.63,156.4h1a3.56,3.56,0,0,0,3.59-3.3,3.48,3.48,0,0,0-3.59-3.3h-1a3.57,3.57,0,0,0-3.6,3.3,3.43,3.43,0,0,0,3.6,3.3Z"/><path class="cls-1" d="M231,157.5v.9a3.56,3.56,0,0,0,3.6,3.3,3.48,3.48,0,0,0,3.59-3.3v-.9a3.55,3.55,0,0,0-3.59-3.3c-2,.2-3.6,1.5-3.6,3.3Z"/><path class="cls-1" d="M192,285.8h1a3.56,3.56,0,0,0,3.59-3.3,3.49,3.49,0,0,0-3.59-3.3h-1a3.56,3.56,0,0,0-3.6,3.3,3.49,3.49,0,0,0,3.6,3.3Z"/><path class="cls-1" d="M206.15,293.6a3.25,3.25,0,1,0,0-6.5,3.25,3.25,0,1,0,0,6.5Z"/><path class="cls-1" d="M218.46,303.2a3.25,3.25,0,1,0,0-6.5,3.25,3.25,0,1,0,0,6.5Z"/><path class="cls-1" d="M150.18,259.1v-.9a3.56,3.56,0,0,0-3.6-3.3,3.48,3.48,0,0,0-3.59,3.3v.9a3.61,3.61,0,0,0,7.19,0Z"/><path class="cls-1" d="M130.47,253.7a3.25,3.25,0,1,0,0-6.5,3.25,3.25,0,1,0,0,6.5Z"/><path class="cls-1" d="M225.32,376c8.82,15.7,32.56,16,42.25,1,2.29-3.6-3.81-6.9-6.1-3.3-7.07,11-23.74,10.3-30.05-1-2.07-3.7-8.17-.4-6.1,3.3Z"/><path class="cls-1" d="M346.85,220c-6.2-13.6-12.52-34.7,4.14-44.5,14.81-8.7,33.33,4.7,39.75,16.7,7,12.9,4.25,27.1-4.25,38.8-8.05,11-19.92,19.2-30.71,27.7-24.93,19.5-44.65,45-53.79,74.1-4.25,13.5-6.1,28.6-1,42.1a44.61,44.61,0,0,0,31.58,27.3c16.55,4,35.06-1.5,46-13.7,5.45-6.1,8.93-14,7.3-22a19.83,19.83,0,0,0-14.48-15.2c-4.36-1.2-6.21,5.1-1.85,6.3,8.93,2.5,11.21,11.8,8.38,19.1-2.94,7.5-9.91,13.4-17.42,16.8-15.14,6.9-33.65,3.4-44.87-8.1-11-11.2-12-27.4-9.15-41.5,3.05-15,9.91-29.3,18.51-42.3a154.27,154.27,0,0,1,31.48-34.7c10.34-8.4,21.67-16,30.6-25.7,8.82-9.5,15.35-21.4,15-34.2-.44-12.4-7.08-24.5-17.64-32.2-12.53-9.1-31.59-12.2-43,0-12.74,13.6-8.17,32-1.31,47,1.74,3.8,8.61,2.1,6.75-1.8Z"/><path class="cls-1" d="M383.12,170.3c24.39-.1,38.88,22.4,36.81,42.8-2.4,23.4-21.13,41.5-40.62,55-17,11.7-37.14,21.6-48.46,38.8-5.23,8.1-8.39,17.8-6,27.2,2.07,8.4,9.14,14.9,18.51,16.3,9.8,1.5,20.26-2.6,24.39-11.2A20.53,20.53,0,0,0,362,314c-3.37-2.7-8.49,1.8-5,4.6,6.75,5.4,8.17,16.2,1.09,22s-19.38,4.2-24.28-3.3c-5.45-8.5-2-19.4,3.15-27.2,5.34-8.1,13.07-14.6,21.24-20.2,17-11.9,35.5-21.9,49.44-37.1,13.61-14.9,22.44-34.3,18.62-54-3.7-18.9-21.67-35.2-43.12-35.1-4.47.1-4.58,6.6,0,6.6Z"/><path class="cls-1" d="M444.1,212.6a48.44,48.44,0,0,1,22.55-9c-1.31-1.6-2.73-3.2-4-4.8-5.45,7.7-7.52,15.8-10.46,24.4-1.3,4-3.16,8.1-6.86,10.8-3.48,2.6-9.47,3.4-12.3-.6-2.51-3.5-8.61-.2-6.1,3.3,6.42,9,19.49,6.8,26.13-.8,3.92-4.4,5.67-9.9,7.19-15.3a56.93,56.93,0,0,1,8.39-18.6c1.85-2.6-1.2-5.2-4-4.8a54.92,54.92,0,0,0-25.7,10.6c-3.38,2.8,1.74,7.4,5.22,4.8Z"/><path class="cls-1" d="M446.94,191.8a32.91,32.91,0,0,0,8.38-25.6,34.57,34.57,0,0,0-4.68-13.2c-2.51-4.3-7.62-10.9-3.38-15.7l-5.55-3.9c-3.38,6.5-11.87,8.9-16.88,14a29.63,29.63,0,0,0-8.5,19.6c-.21,4.2,6.87,4.2,7.08,0,.44-7.6,4.36-14.2,11-18.7,5-3.4,10.57-6.2,13.4-11.6,1.63-3.1-2.83-7-5.56-3.9-7.4,8.3-1.3,16.9,3.05,24.9a25.91,25.91,0,0,1-3.37,29.5c-2.84,3.3,2.17,7.9,5,4.6Z"/><path class="cls-1" d="M433.21,179.9a3.25,3.25,0,1,0,0-6.5,3.25,3.25,0,1,0,0,6.5Z"/><path class="cls-1" d="M440.84,228.5a3.25,3.25,0,1,0,0-6.5,3.25,3.25,0,1,0,0,6.5Z"/><path class="cls-1" d="M412.85,268.5c5.55-1.8,12,.2,13.61,5.8s-2.61,9.7-7.4,12.5c-8.61,5-17.86,9-25.05,15.8-14.59,13.9-15.25,36.1-4.14,52,5,7.1,12.31,13,21.24,15.3,10.34,2.7,21.45.3,30.71-4.3,16.88-8.4,31.25-28.7,19.38-45.9-5.33-7.8-16-12.7-26-10.3-9.36,2.3-16.44,11-15.13,20,.54,4.1,7.62,4.2,7.08,0-1.09-8.4,7-15.3,16-13.9a18.2,18.2,0,0,1,15.14,18.9c-.65,17.8-23.74,32.6-42.36,29.8-18.41-2.8-28-22.1-26.46-37.7.87-9.4,6.09-17.2,13.93-23,7-5.2,15.58-8.2,22.55-13.3,6.64-4.7,9.91-12.2,6.53-19.6-3.48-7.7-13.07-11.2-21.56-8.4-4.14,1.4-2.29,7.7,2,6.3Z"/><path class="cls-1" d="M457.72,307c13.5-9,7.95-24.2,1.74-35.6-1-1.9-4-2.1-5.55-.7-5.56,5.4-11.87,10.6-16.56,16.6-3.92,4.9-5.44,10.9-2.18,16.4,2.18,3.7,8.28.4,6.1-3.3-2.94-5.1,2.18-10,5.67-13.5,3.92-3.9,7.95-7.8,12-11.7-1.85-.2-3.7-.4-5.55-.7,4.14,7.5,10.46,20.2.76,26.6-3.7,2.7-.11,8.3,3.6,5.9Z"/><path class="cls-1" d="M450.31,298.8a3.25,3.25,0,1,0,0-6.5,3.25,3.25,0,1,0,0,6.5Z"/><path class="cls-1" d="M442.69,346.6a3.25,3.25,0,1,0,0-6.5,3.25,3.25,0,1,0,0,6.5Z"/><path class="cls-1" d="M430.38,351.8a3.25,3.25,0,1,0,0-6.5,3.25,3.25,0,1,0,0,6.5Z"/><path class="cls-1" d="M414.37,350.9a3.25,3.25,0,1,0,0-6.5,3.25,3.25,0,1,0,0,6.5Z"/><path class="cls-1" d="M398.8,152.2c-3.92-7.5-9.47-15.9-19.38-16.9-5.78-.6-11,1.6-16.56,2.7a31.38,31.38,0,0,1-19.38-2.3,3.77,3.77,0,0,0-4.9,1.2c-6,10-11.44,21.1-5.45,32.2,2.07,3.8,8.17.5,6.1-3.3-4.68-8.7.87-18,5.45-25.6l-4.9,1.2c9.69,4.5,19.38,4.5,29.62,1.8,5.55-1.4,10.89-2.4,15.57,1.5,3.49,2.9,5.66,7,7.62,10.9,2.07,3.7,8.17.4,6.21-3.4Z"/><path class="cls-1" d="M372.77,149.9h-1a3.56,3.56,0,0,0-3.59,3.3,3.48,3.48,0,0,0,3.59,3.3h1a3.31,3.31,0,1,0,0-6.6Z"/><path class="cls-1" d="M350.34,157.5v.9a3.55,3.55,0,0,0,3.59,3.3,3.49,3.49,0,0,0,3.6-3.3v-.9a3.56,3.56,0,0,0-3.6-3.3c-2,.2-3.59,1.5-3.59,3.3Z"/><path class="cls-1" d="M396.4,279.3h-1a3.56,3.56,0,0,0-3.59,3.3,3.49,3.49,0,0,0,3.59,3.3h1a3.31,3.31,0,1,0,0-6.6Z"/><path class="cls-1" d="M382.25,293.6a3.25,3.25,0,1,0,0-6.5,3.25,3.25,0,1,0,0,6.5Z"/><path class="cls-1" d="M369.94,303.2a3.25,3.25,0,1,0,0-6.5,3.25,3.25,0,1,0,0,6.5Z"/><path class="cls-1" d="M445.3,259.1v-.9a3.55,3.55,0,0,0-3.59-3.3,3.49,3.49,0,0,0-3.6,3.3v.9a3.61,3.61,0,0,0,7.19,0Z"/><path class="cls-1" d="M457.83,253.7a3.25,3.25,0,1,0,0-6.5,3.25,3.25,0,1,0,0,6.5Z"/><path class="cls-1" d="M356.87,372.7c-6.31,11.2-22.87,12-30.05,1-2.29-3.6-8.5-.3-6.1,3.3,9.69,15,33.43,14.7,42.25-1,2.07-3.7-4-7-6.1-3.3Z"/><path class="cls-1" d="M241.44,597.2c6.2,13.6,12.52,34.7-4.14,44.5C222.49,650.4,204,637,197.55,625c-7-12.9-4.25-27.1,4.25-38.8,8.06-11,19.93-19.2,30.71-27.7,24.94-19.5,44.65-45,53.79-74.1,4.25-13.5,6.1-28.6,1-42.1A44.59,44.59,0,0,0,255.7,415c-16.55-4-35.06,1.5-45.95,13.7-5.45,6.1-8.93,14-7.3,22a19.84,19.84,0,0,0,14.48,15.2c4.36,1.2,6.21-5.1,1.85-6.3-8.93-2.5-11.21-11.8-8.38-19.1,2.94-7.5,9.91-13.4,17.42-16.8,15.14-6.9,33.65-3.4,44.87,8.1,11,11.2,12,27.4,9.15,41.5-3,15-9.91,29.3-18.51,42.3a154.27,154.27,0,0,1-31.48,34.7c-10.34,8.4-21.67,16-30.6,25.7-8.82,9.5-15.35,21.4-15,34.2.44,12.4,7.08,24.5,17.65,32.2,12.52,9.1,31.58,12.2,43,0,12.74-13.6,8.17-32,1.31-47-1.63-3.8-8.5-2.1-6.75,1.8Z"/><path class="cls-1" d="M205.17,646.9c-24.39.1-38.88-22.4-36.81-42.8,2.4-23.4,21.13-41.5,40.62-55,17-11.7,37.14-21.6,48.47-38.8,5.22-8.1,8.38-17.8,6-27.2-2.07-8.4-9.15-14.9-18.52-16.3-9.8-1.5-20.25,2.6-24.39,11.2a20.53,20.53,0,0,0,5.77,25.2c3.38,2.7,8.49-1.8,5-4.6-6.75-5.4-8.17-16.2-1.09-22s19.38-4.2,24.29,3.3c5.44,8.5,2,19.4-3.16,27.2-5.34,8.1-13.07,14.6-21.24,20.2-17,11.9-35.5,21.9-49.44,37.1-13.61,14.9-22.43,34.3-18.62,54,3.7,18.9,21.67,35.2,43.12,35.1a3.3,3.3,0,1,0,0-6.6Z"/><path class="cls-1" d="M144.3,604.6a48.44,48.44,0,0,1-22.55,9c1.31,1.6,2.73,3.2,4,4.8,5.45-7.7,7.52-15.8,10.46-24.4,1.3-4,3.16-8.1,6.86-10.8,3.48-2.6,9.47-3.4,12.3.6,2.51,3.5,8.61.2,6.1-3.3-6.42-9-19.49-6.8-26.13.8-3.92,4.4-5.67,9.9-7.19,15.3a56.93,56.93,0,0,1-8.39,18.6c-1.85,2.6,1.2,5.2,4,4.8a54.92,54.92,0,0,0,25.7-10.6c3.27-2.8-1.74-7.4-5.22-4.8Z"/><path class="cls-1" d="M141.46,625.4a32.91,32.91,0,0,0-8.38,25.6,34.57,34.57,0,0,0,4.68,13.2c2.51,4.3,7.62,10.9,3.38,15.7l5.55,3.9c3.38-6.5,11.87-8.9,16.88-14a29.63,29.63,0,0,0,8.5-19.6c.21-4.2-6.86-4.2-7.08,0-.44,7.6-4.36,14.2-11,18.7-5,3.4-10.57,6.2-13.4,11.6-1.63,3.1,2.83,7,5.56,3.9,7.4-8.3,1.3-16.9-3.05-24.9a25.91,25.91,0,0,1,3.37-29.5c2.84-3.3-2.17-7.9-5-4.6Z"/><path class="cls-1" d="M155.08,643.8a3.25,3.25,0,1,0,0-6.5,3.25,3.25,0,1,0,0,6.5Z"/><path class="cls-1" d="M147.56,595.2a3.25,3.25,0,1,0,0-6.5,3.25,3.25,0,1,0,0,6.5Z"/><path class="cls-1" d="M175.44,548.7c-5.55,1.8-12-.2-13.61-5.8s2.61-9.7,7.4-12.5c8.61-5,17.86-9,25.05-15.8,14.59-13.9,15.25-36.1,4.14-52-5-7.1-12.31-13-21.24-15.3-10.34-2.7-21.45-.3-30.71,4.3-16.88,8.4-31.25,28.7-19.38,45.9,5.34,7.8,16,12.7,26,10.3,9.36-2.3,16.44-11,15.13-20-.54-4.1-7.62-4.2-7.07,0,1.08,8.4-7,15.3-16,13.9A18.21,18.21,0,0,1,130,482.8c.65-17.8,23.74-32.6,42.36-29.8,18.41,2.8,28,22.1,26.47,37.7-.88,9.4-6.1,17.2-13.94,23-7,5.2-15.58,8.2-22.55,13.3-6.64,4.7-9.91,12.2-6.53,19.6,3.48,7.7,13.07,11.2,21.56,8.4,4.25-1.4,2.4-7.7-2-6.3Z"/><path class="cls-1" d="M130.68,510.2c-13.5,9-8,24.2-1.74,35.6,1,1.9,4,2.1,5.55.7,5.56-5.4,11.87-10.6,16.56-16.6,3.92-4.9,5.44-10.9,2.18-16.4-2.18-3.7-8.28-.4-6.1,3.3,2.94,5.1-2.18,10-5.67,13.5-3.92,3.9-8,7.8-12,11.7,1.85.2,3.7.4,5.55.7-4.14-7.5-10.46-20.2-.76-26.6,3.59-2.7.11-8.3-3.6-5.9Z"/><path class="cls-1" d="M138.09,524.9a3.25,3.25,0,1,0,0-6.5,3.25,3.25,0,1,0,0,6.5Z"/><path class="cls-1" d="M145.6,477.1a3.25,3.25,0,1,0,0-6.5,3.25,3.25,0,1,0,0,6.5Z"/><path class="cls-1" d="M157.91,471.9a3.25,3.25,0,1,0,0-6.5,3.25,3.25,0,1,0,0,6.5Z"/><path class="cls-1" d="M174,472.8a3.25,3.25,0,1,0,0-6.5,3.25,3.25,0,1,0,0,6.5Z"/><path class="cls-1" d="M189.49,665c3.92,7.5,9.47,15.9,19.38,16.9,5.78.6,11-1.6,16.56-2.7a31.38,31.38,0,0,1,19.38,2.3,3.77,3.77,0,0,0,4.9-1.2c6-10,11.44-21.1,5.45-32.2-2.07-3.8-8.17-.5-6.1,3.3,4.68,8.7-.87,18-5.45,25.6l4.91-1.2c-9.7-4.5-19.39-4.5-29.63-1.8-5.55,1.4-10.89,2.4-15.57-1.5-3.48-2.9-5.66-7-7.62-10.9-2.07-3.7-8.17-.4-6.21,3.4Z"/><path class="cls-1" d="M215.63,667.3h1a3.56,3.56,0,0,0,3.59-3.3,3.48,3.48,0,0,0-3.59-3.3h-1A3.57,3.57,0,0,0,212,664a3.49,3.49,0,0,0,3.6,3.3Z"/><path class="cls-1" d="M238.06,659.7v-.9a3.55,3.55,0,0,0-3.59-3.3,3.49,3.49,0,0,0-3.6,3.3v.9a3.56,3.56,0,0,0,3.6,3.3c2-.2,3.59-1.5,3.59-3.3Z"/><path class="cls-1" d="M192,537.9h1a3.56,3.56,0,0,0,3.59-3.3,3.49,3.49,0,0,0-3.59-3.3h-1a3.56,3.56,0,0,0-3.6,3.3,3.49,3.49,0,0,0,3.6,3.3Z"/><path class="cls-1" d="M206.15,530.1a3.25,3.25,0,1,0,0-6.5,3.25,3.25,0,1,0,0,6.5Z"/><path class="cls-1" d="M218.46,520.6a3.25,3.25,0,1,0,0-6.5,3.25,3.25,0,1,0,0,6.5Z"/><path class="cls-1" d="M143,558.1v.9a3.55,3.55,0,0,0,3.59,3.3,3.49,3.49,0,0,0,3.6-3.3v-.9a3.61,3.61,0,0,0-7.19,0Z"/><path class="cls-1" d="M130.47,570a3.25,3.25,0,1,0,0-6.5,3.25,3.25,0,1,0,0,6.5Z"/><path class="cls-1" d="M231.42,444.5c6.31-11.2,22.87-12,30.05-1,2.29,3.6,8.5.3,6.1-3.3-9.69-15-33.43-14.7-42.25,1-2.07,3.7,4,7,6.1,3.3Z"/><path class="cls-1" d="M340.1,595.4c-6.21,13.7-10.78,29.9-1.52,43.4,8.38,12.2,23.63,14.3,37.35,8.5a43.84,43.84,0,0,0,24.83-27.9c3.49-12.5,0-25.5-7.51-36.1s-18.3-18.7-28.64-26.8c-12.09-9.4-23.31-19.4-32.57-31.3-9.69-12.6-17.64-26.6-22.54-41.3-4.46-13.6-6.64-29.2-.33-42.6,7.52-16,27.23-24.7,45.53-19.8,9,2.5,17.53,8.1,22,15.8s3.71,19.3-6.86,22.2c-4.35,1.2-2.5,7.5,1.85,6.3,15.36-4.3,17.86-20.9,10.68-32.4-7.63-12.3-23.2-19.9-38.34-19.9-15.35,0-30,7.7-38.11,19.6-8.17,12.1-8.82,26.9-6.32,40.5,5.45,29.7,24.94,57.9,48.57,78.3,19.39,16.7,52.38,34.5,46.39,63.4-3.05,14.8-19.05,31.7-37.24,28.5-8.93-1.6-14.7-9.4-16.34-17.2-2.17-10.1,2-20.4,6.1-29.5,1.64-3.8-5.23-5.5-7-1.7Z"/><path class="cls-1" d="M383.12,653.4c18.62.1,34.74-12.2,41.06-27.9,7.4-18.3.76-39.4-11.11-54.8-12.64-16.3-30.39-27.4-47.81-38.8-15.57-10.1-36.48-25.2-33.87-45.1,1.31-10.5,12.74-17.2,23.52-12.4,10.13,4.6,10,17.7,2.18,24-3.48,2.8,1.63,7.4,5,4.6,14.7-11.8,7.3-34.8-12.31-36.6-9.25-.8-18.4,3.3-22.65,11-4.57,8.3-3.37,18.3.44,26.6,8.49,18.3,27.88,29.3,44.87,40.3,19.93,12.9,39.64,28.9,45.95,51.4,3.27,11.7,2.51,24.6-4.79,34.9-6.64,9.5-17.86,16.2-30.38,16.1-4.69.2-4.69,6.7-.11,6.7Z"/><path class="cls-1" d="M439.09,609.2a55,55,0,0,0,25.71,10.6c2.72.4,5.88-2.2,4-4.8a55.46,55.46,0,0,1-8.28-17.9c-1.64-5.7-3.27-11.4-7.41-16-6.64-7.6-19.71-9.8-26.13-.8-2.51,3.5,3.59,6.8,6.1,3.3s8.05-3.3,11.65-1.1c4,2.6,6.1,7.2,7.51,11.3,2.83,8.6,4.9,16.7,10.46,24.4,1.3-1.6,2.72-3.2,4-4.8a46.42,46.42,0,0,1-22.55-9c-3.59-2.4-8.71,2.2-5.12,4.8Z"/><path class="cls-1" d="M441.93,630a25.73,25.73,0,0,1,3.37,29.5c-4.35,8.1-10.45,16.6-3.05,24.9,2.73,3,7.19-.8,5.56-3.9-2.83-5.5-8.39-8.2-13.4-11.6-6.64-4.5-10.56-11.1-11-18.7-.22-4.2-7.29-4.2-7.08,0a30.72,30.72,0,0,0,8.5,19.6c5,5.2,13.5,7.6,16.88,14l5.55-3.9c-4.24-4.8.87-11.4,3.38-15.7a34,34,0,0,0,4.68-13.2c1.09-9.3-2.07-18.3-8.38-25.6-2.84-3.3-7.85,1.3-5,4.6Z"/><path class="cls-1" d="M433.21,643.8a3.25,3.25,0,1,0,0-6.5,3.25,3.25,0,1,0,0,6.5Z"/><path class="cls-1" d="M440.84,595.2a3.25,3.25,0,1,0,0-6.5,3.25,3.25,0,1,0,0,6.5Z"/><path class="cls-1" d="M411,555c15.68,5.1,29.51-11.7,19.38-24-5-6.1-13.5-8.9-20.36-12.9-8.28-4.8-15.68-11-18.95-19.7-5.56-15.3,1.2-36,17.64-43.3,17.21-7.7,41.82,4.4,47.81,20.4,3.48,9.2,1,20.6-9.37,25-9.91,4.3-21.67-2.2-20.25-12.6.54-4.1-6.54-4.1-7.08,0-1.09,8.2,4.57,16.1,12.74,19.2,8.39,3.2,18,.6,24.39-5,15.9-13.8,6.43-35.9-8.6-46.4-16.66-11.6-39.86-13.4-54.45,1.9-13.29,13.9-16.44,36.8-4.46,52.3,6.86,8.9,17.09,14.1,27.11,19.4,4.79,2.6,10.35,5.8,10.13,11.6-.22,6.8-7.41,10.1-13.94,8-4.14-1.6-6,4.7-1.74,6.1Z"/><path class="cls-1" d="M454.12,515.9c9.7,6.4,3.27,19.1-.76,26.6,1.85-.2,3.7-.4,5.55-.7-4-3.9-7.94-7.8-12-11.7-3.49-3.5-8.72-8.4-5.67-13.5,2.18-3.7-3.92-7-6.1-3.3-3.26,5.6-1.74,11.5,2.18,16.4,4.79,6,11.11,11.2,16.56,16.6,1.52,1.5,4.57,1.2,5.55-.7,6.21-11.3,11.76-26.6-1.74-35.6-3.71-2.2-7.3,3.4-3.6,5.9Z"/><path class="cls-1" d="M450.31,524.9a3.25,3.25,0,1,0,0-6.5,3.25,3.25,0,1,0,0,6.5Z"/><path class="cls-1" d="M442.69,477.1a3.25,3.25,0,1,0,0-6.5,3.25,3.25,0,1,0,0,6.5Z"/><path class="cls-1" d="M430.38,471.9a3.25,3.25,0,1,0,0-6.5,3.25,3.25,0,1,0,0,6.5Z"/><path class="cls-1" d="M414.37,472.8a3.25,3.25,0,1,0,0-6.5,3.25,3.25,0,1,0,0,6.5Z"/><path class="cls-1" d="M392.7,661.7c-2,3.7-3.92,7.6-7.19,10.5-4.68,4.2-10.12,3.4-16,1.9-10.35-2.7-19.93-2.7-29.63,1.8l4.91,1.2c-4.58-7.6-10.13-16.9-5.45-25.6,2.07-3.7-4.14-7-6.1-3.3-6,11.1-.54,22.2,5.45,32.2,1,1.6,3.15,1.9,4.9,1.2a30.5,30.5,0,0,1,18.62-2.5c5.77,1.1,11.33,3.5,17.32,2.9,10-1,15.46-9.3,19.38-16.9,1.85-3.9-4.25-7.2-6.21-3.4Z"/><path class="cls-1" d="M372.77,660.8h-1a3.56,3.56,0,0,0-3.59,3.3,3.48,3.48,0,0,0,3.59,3.3h1a3.57,3.57,0,0,0,3.6-3.3,3.5,3.5,0,0,0-3.6-3.3Z"/><path class="cls-1" d="M357.42,659.7v-.9a3.56,3.56,0,0,0-3.6-3.3,3.48,3.48,0,0,0-3.59,3.3v.9a3.55,3.55,0,0,0,3.59,3.3c2-.2,3.6-1.5,3.6-3.3Z"/><path class="cls-1" d="M396.4,531.4h-1a3.56,3.56,0,0,0-3.59,3.3,3.49,3.49,0,0,0,3.59,3.3h1a3.31,3.31,0,1,0,0-6.6Z"/><path class="cls-1" d="M382.25,530.1a3.25,3.25,0,1,0,0-6.5,3.25,3.25,0,1,0,0,6.5Z"/><path class="cls-1" d="M369.94,520.6a3.25,3.25,0,1,0,0-6.5,3.25,3.25,0,1,0,0,6.5Z"/><path class="cls-1" d="M438.22,558.1v.9a3.56,3.56,0,0,0,3.6,3.3,3.48,3.48,0,0,0,3.59-3.3v-.9a3.61,3.61,0,0,0-7.19,0Z"/><path class="cls-1" d="M457.83,570a3.25,3.25,0,1,0,0-6.5,3.25,3.25,0,1,0,0,6.5Z"/><path class="cls-1" d="M363,441.2c-8.82-15.7-32.56-16-42.25-1-2.29,3.6,3.81,6.9,6.1,3.3,7.07-11,23.74-10.3,30.05,1,2.07,3.7,8.17.4,6.1-3.3Z"/><path class="cls-1" d="M284,513.5c-4,29.3-27.34,51-52.38,67.4-10.57,6.9-22.33,15.6-22.77,28.7-.43,10.9,8.83,20.7,20.37,22.6,4.46.7,6.42-5.6,1.85-6.3-6.21-1-11.54-4.7-13.94-10.1-2.5-5.7-.65-11.6,2.94-16.5,3.92-5.3,9.59-9.1,15.25-12.8s11-7.3,16.22-11.4c20.37-15.9,36.27-36.8,39.65-61.6.43-4.1-6.65-4.1-7.19,0Z"/><path class="cls-1" d="M233.92,627.5c-5.77-11.2,0-23.5,12-28.3,4.14-1.7.55-7.3-3.59-5.6-15.79,6.4-21.78,23.1-14.59,37.2,2.06,3.7,8.16.4,6.2-3.3Z"/><path class="cls-1" d="M279.55,561a97.51,97.51,0,0,1-23.63,26.4,3.1,3.1,0,0,0,0,4.6c9.37,9.2,12.52,22.3,8.28,34.3-1.42,4,5.44,5.7,6.86,1.7,4.9-14.2,1-29.8-10.13-40.7v4.6a103.31,103.31,0,0,0,24.72-27.7c2.18-3.5-3.92-6.8-6.1-3.2Z"/><path class="cls-1" d="M296.87,513.5c3.48,24.8,19.27,45.7,39.64,61.6,5,3.9,10.24,7.5,15.57,11,5.56,3.6,11.44,7.4,15.47,12.6,3.81,4.9,5.88,11.2,3.37,17-2.39,5.5-7.73,9.1-13.94,10.1-4.46.7-2.61,7,1.85,6.3,11.44-1.9,20.8-11.7,20.37-22.6-.55-13-12.2-21.7-22.76-28.7-25.05-16.4-48.35-38.1-52.38-67.4-.66-4-7.74-4-7.19.1Z"/><path class="cls-1" d="M360.14,630.8c7.3-14.1,1.31-30.8-14.59-37.2-4.14-1.7-7.73,3.9-3.6,5.6,12.09,4.8,17.75,17.1,12,28.3-1.85,3.7,4.25,7,6.21,3.3Z"/><path class="cls-1" d="M302.31,564.3A102.15,102.15,0,0,0,327,592v-4.6c-11.1,10.8-15,26.5-10.12,40.7,1.41,4,8.27,2.3,6.86-1.7A32.69,32.69,0,0,1,332,592.1a3.1,3.1,0,0,0,0-4.6,97.51,97.51,0,0,1-23.63-26.4c-2.18-3.7-8.27-.4-6.1,3.2Z"/><path class="cls-1" d="M274,595.3a64.28,64.28,0,0,0,39.75-.3c4.25-1.4,2.39-7.7-1.85-6.3A56.67,56.67,0,0,1,276,589c-4.36-1.4-6.21,4.9-2,6.3Z"/><path class="cls-1" d="M277.37,610.5a133.31,133.31,0,0,1,13.18,15.8c1.42,1.9,4.9,2.3,6.1,0A80.08,80.08,0,0,1,309.17,609c2.94-3.1-2-7.8-5-4.6A89.13,89.13,0,0,0,290.55,623h6.1a159.43,159.43,0,0,0-14.37-17.1c-2.95-3.2-7.95,1.4-4.91,4.6Z"/><path class="cls-1" d="M293.49,580.4a3.25,3.25,0,1,0,0-6.5,3.25,3.25,0,1,0,0,6.5Z"/><path class="cls-1" d="M189.82,386.8c-9.48.9-17.75,6.6-25.92,10.7-8.93,4.5-18.3,8.7-28.64,9.6-3.16.3-5.23,4.5-1.75,6.1,10.46,4.6,20.91,9.6,31.7,13.7,9.69,3.7,20,4.1,30.27,2.3,4.46-.8,2.61-7.1-1.85-6.3a49.84,49.84,0,0,1-29.08-3.4c-9.15-3.9-18.19-8-27.33-12-.55,2-1.2,4-1.75,6.1,9.48-.8,18.19-3.8,26.58-7.7,4.35-2,8.49-4.2,12.74-6.4,4.68-2.4,9.8-5.7,15.24-6.2,4.36-.4,4.36-6.9-.21-6.5Z"/><path class="cls-1" d="M194.61,408.1v-.6a3.56,3.56,0,0,0-3.6-3.3,3.48,3.48,0,0,0-3.59,3.3v.6a3.55,3.55,0,0,0,3.59,3.3,3.49,3.49,0,0,0,3.6-3.3Z"/><path class="cls-1" d="M133.84,381.5c4.9,5.1,11.54,7.9,18.84,8.6,4.58.4,4.47-6.1,0-6.5a22,22,0,0,1-13.83-6.7c-3-3.2-8.06,1.4-5,4.6Z"/><path class="cls-1" d="M139.4,444.6a22.54,22.54,0,0,1,11.65-5.5c4.46-.7,2.61-7-1.85-6.3a28.54,28.54,0,0,0-14.81,7.2c-3.27,2.9,1.85,7.5,5,4.6Z"/><path class="cls-1" d="M394.88,434.7c9.47-.9,17.75-6.6,25.92-10.7,8.93-4.5,18.29-8.7,28.64-9.6,3.16-.3,5.23-4.5,1.74-6.1-10.45-4.6-20.91-9.6-31.69-13.7-9.69-3.7-20-4.1-30.27-2.3-4.47.8-2.62,7.1,1.85,6.3a49.84,49.84,0,0,1,29.08,3.4c9.14,3.9,18.18,8,27.33,12,.54-2,1.2-4,1.74-6.1-9.47.8-18.18,3.8-26.57,7.7-4.36,2-8.49,4.2-12.74,6.4-4.68,2.4-9.8,5.7-15.25,6.2-4.24.3-4.35,6.9.22,6.5Z"/><path class="cls-1" d="M390.09,413.3v.6a3.55,3.55,0,0,0,3.59,3.3,3.49,3.49,0,0,0,3.6-3.3v-.6a3.61,3.61,0,0,0-7.19,0Z"/><path class="cls-1" d="M451,440c-4.91-5.1-11.55-7.9-18.85-8.6-4.57-.4-4.46,6.1,0,6.5A22.07,22.07,0,0,1,446,444.6c2.94,3.1,8-1.5,5-4.6Z"/><path class="cls-1" d="M445.3,376.9a22.58,22.58,0,0,1-11.65,5.5c-4.47.7-2.61,7,1.85,6.3a28.58,28.58,0,0,0,14.81-7.2c3.27-3-1.74-7.6-5-4.6Z"/><path class="cls-1" d="M263,643.9c2.61,13.9,15.68,25.5,31.47,25.4a29.54,29.54,0,0,0,19.71-7.4c5.78-5.3,8.17-12.7,10.13-19.7,1.2-4.1-5.66-5.8-6.86-1.7-3.16,11.1-8.6,22.2-23,22.4-12.85.1-22.65-9.6-24.72-20.7-.65-4.1-7.51-2.4-6.75,1.7Z"/><path class="cls-1" d="M293.17,647.5a3.25,3.25,0,1,0,0-6.5,3.25,3.25,0,1,0,0,6.5Z"/><path class="cls-1" d="M291.1,303.7c-3.49-24.8-19.28-45.7-39.64-61.6-5-3.9-10.24-7.5-15.58-11-5.55-3.6-11.43-7.4-15.46-12.6-3.81-4.9-5.88-11.2-3.38-17,2.4-5.5,7.73-9.1,13.94-10.1,4.47-.7,2.62-7-1.85-6.3-11.43,1.9-20.8,11.7-20.36,22.6.54,13,12.19,21.7,22.76,28.7,25,16.4,48.35,38.1,52.38,67.4.65,4,7.73,4,7.19-.1Z"/><path class="cls-1" d="M227.82,186.4c-7.29,14.1-1.3,30.8,14.6,37.2,4.14,1.7,7.73-3.9,3.59-5.6-12.09-4.8-17.75-17.1-12-28.3,1.85-3.7-4.25-7-6.21-3.3Z"/><path class="cls-1" d="M285.65,252.9a101.82,101.82,0,0,0-24.72-27.7v4.6c11.11-10.8,15-26.5,10.13-40.7-1.42-4-8.28-2.3-6.86,1.7a32.68,32.68,0,0,1-8.28,34.3,3.1,3.1,0,0,0,0,4.6,97.51,97.51,0,0,1,23.63,26.4c2.18,3.7,8.28.4,6.1-3.2Z"/><path class="cls-1" d="M304,303.7c4-29.3,27.33-51,52.38-67.4,10.56-6.9,22.32-15.6,22.76-28.7.44-10.9-8.82-20.7-20.37-22.6-4.46-.7-6.42,5.6-1.85,6.3,6.21,1,11.55,4.7,13.94,10.1,2.51,5.7.66,11.6-2.94,16.5-3.92,5.3-9.58,9.1-15.24,12.8s-11,7.3-16.23,11.4C316,258,300.14,278.9,296.76,303.7c-.44,4.1,6.64,4.1,7.19,0Z"/><path class="cls-1" d="M354,189.7c5.77,11.2,0,23.5-12,28.3-4.14,1.7-.54,7.3,3.6,5.6,15.79-6.4,21.78-23.1,14.59-37.2-2-3.7-8.17-.4-6.21,3.3Z"/><path class="cls-1" d="M308.41,256.2A97.51,97.51,0,0,1,332,229.8a3.1,3.1,0,0,0,0-4.6c-9.36-9.2-12.52-22.3-8.27-34.3,1.41-4-5.45-5.7-6.86-1.7-4.9,14.2-1,29.8,10.12,40.7v-4.6A103.65,103.65,0,0,0,302.31,253c-2.17,3.5,3.92,6.8,6.1,3.2Z"/><path class="cls-1" d="M275.85,228.2a56.66,56.66,0,0,1,35.94.3c4.24,1.5,6.1-4.8,1.85-6.3a62.85,62.85,0,0,0-39.75-.3c-4.14,1.4-2.29,7.7,2,6.3Z"/><path class="cls-1" d="M282.38,211.3a158.37,158.37,0,0,0,14.38-17.1h-6.1a80.84,80.84,0,0,0,13.61,18.6c3.05,3.2,8-1.5,5-4.6a80.08,80.08,0,0,1-12.52-17.3c-1.2-2.3-4.79-1.9-6.1,0a155,155,0,0,1-13.18,15.8c-3.15,3.2,1.85,7.8,4.9,4.6Z"/><path class="cls-1" d="M293.49,243.3a3.25,3.25,0,1,0,0-6.5,3.25,3.25,0,1,0,0,6.5Z"/><path class="cls-1" d="M269.86,175a25.15,25.15,0,0,1,24.72-20.7c14.38,0,19.93,11.4,23,22.4,1.2,4.1,7.95,2.3,6.86-1.7-2-6.9-4.25-13.9-9.58-19.2a29.53,29.53,0,0,0-20.26-7.9c-15.79-.1-28.86,11.5-31.47,25.4-.87,4.1,6,5.8,6.75,1.7Z"/><path class="cls-1" d="M293.17,176.2a3.25,3.25,0,1,0,0-6.5,3.25,3.25,0,1,0,0,6.5Z"/></g></g></svg>