<svg xmlns="http://www.w3.org/2000/svg" viewBox="0 0 540.3 817.2"><defs><style>.cls-1{fill:#fff;}.cls-2{fill:#ee2e2b;}</style></defs><g id="Layer_2" data-name="Layer 2"><g id="Layer_1-2" data-name="Layer 1"><path class="cls-1" d="M455.8,817.2H84.5A84.46,84.46,0,0,1,0,732.7V84.5A84.46,84.46,0,0,1,84.5,0H455.8a84.46,84.46,0,0,1,84.5,84.5V732.7A84.46,84.46,0,0,1,455.8,817.2Z"/><path class="cls-2" d="M466.9,777.7H73.3a33.93,33.93,0,0,1-33.9-33.9V73.3A33.93,33.93,0,0,1,73.3,39.4H466.9a33.93,33.93,0,0,1,33.9,33.9V743.8A33.93,33.93,0,0,1,466.9,777.7ZM73.3,47.3a26,26,0,0,0-26,26V743.8a26,26,0,0,0,26,26H466.9a26,26,0,0,0,26-26V73.3a26,26,0,0,0-26-26Z"/><path class="cls-2" d="M436.6,734.3H103.7a20.78,20.78,0,0,1-20.8-20.8V103.7a20.78,20.78,0,0,1,20.8-20.8H436.6a20.78,20.78,0,0,1,20.8,20.8V713.5A20.85,20.85,0,0,1,436.6,734.3ZM103.7,90.7a13,13,0,0,0-13,13V713.5a13,13,0,0,0,13,13H436.6a13,13,0,0,0,13-13V103.7a13,13,0,0,0-13-13Z"/><path class="cls-2" d="M226.3,57.7c2.2-5.2,6.4,1.8,6.4,4.7a9.12,9.12,0,0,1-5.7,8.5c-7.1,2.8-12.1-4-16.9-8-10-8.1-25.3-15.7-38.5-12.4-10.6,2.6-18.4,16-9.3,24.8,8.6,8.3,22.1,1.7,22.4-9.7.1-4.2-6.4-4.2-6.5,0-.2,7.5-10.8,9.9-13.2,2.2-2.5-8.3,8.4-11.9,14.4-11.5,7.3.5,14.7,3.7,20.8,7.5,5.6,3.5,9.9,9.1,15.7,12.2,10.1,5.5,22.8-1.3,23.3-13,.2-5-2-10.4-6.7-12.7-4.3-2-9.8-.5-11.7,4-1.8,3.9,3.8,7.3,5.5,3.4Z"/><path class="cls-2" d="M114.2,59.1c-.2,9.4,10.2,17.5,19.4,14.9,4.7-1.3,6.2-6.1,10.3-8.3,4.5-2.4,9.6-1.6,13.6,1.4,3.3,2.5,6.6-3.1,3.3-5.6a18.93,18.93,0,0,0-19.2-1.9c-3.5,1.6-5.1,4.3-7.8,6.8-4.9,4.5-13.2-1.6-13.1-7.3.1-4.2-6.4-4.2-6.5,0Z"/><path class="cls-2" d="M125.7,58.5c4.2,0,4.2-6.5,0-6.5s-4.2,6.5,0,6.5Z"/><path class="cls-2" d="M193,76.3c4.2,0,4.2-6.5,0-6.5s-4.2,6.5,0,6.5Z"/><path class="cls-2" d="M116,62.2c-3.8,2-8.1.1-11.7-1.3-4.1-1.6-8.2-3.4-12.3-4.9-6.1-2.3-13.2-3.5-19,.3-11.4,7.3-3.2,25.3,9.7,19.5,3.8-1.7.5-7.3-3.3-5.6-2.9,1.3-5.6-1.3-5.5-4.2.1-3.1,3-4.9,5.8-5.5,4.8-1,9.8,1.4,14.1,3.2,7.9,3.2,17.1,8.6,25.6,4.2,3.6-2,.4-7.6-3.4-5.7Z"/><path class="cls-2" d="M73.3,81c-2.5-4.9-7.6-8.5-13.3-7.4a10.68,10.68,0,0,0-8.9,10.8c.1,6.1,4.6,10.5,8.5,14.7,2.5,2.6,4.4,5.2,5,8.9.7,4.3.5,8.9.7,13.2s6.7,4.2,6.5,0c-.4-8.8.2-17.7-5.8-24.8-2.8-3.3-6.8-6.1-8-10.3-.9-3,.6-6.2,4.1-6.2,2.7,0,4.5,2.2,5.6,4.4,1.9,3.7,7.5.4,5.6-3.3Z"/><path class="cls-2" d="M56.1,222.9a8.57,8.57,0,0,0-4.2,11.3c2,4.7,7.3,7.2,12.2,7.2,11.9,0,19.2-13,13.6-23.4-3-5.6-8.4-9.7-11.8-15.1-3.8-6-6.9-13.1-7.7-20.3-.7-6.1,2.1-17.2,10.6-15.6,8.3,1.5,6.5,13.1-1.5,13.3-4.2.1-4.2,6.6,0,6.5,11.1-.3,18-13.2,10.1-22-8.7-9.7-22.5-1.9-25.2,8.9-3.2,13,4.1,28,12,37.9,4,5,11.3,10.2,8.4,17.5a9.12,9.12,0,0,1-8.5,5.7c-2.9,0-9.9-4.1-4.7-6.4,3.8-1.5.5-7.1-3.3-5.5Z"/><path class="cls-2" d="M60.8,123c5.3-.1,11.2,7.1,8,12.1-2.1,3.3-5.7,5-7.5,8.7A18.73,18.73,0,0,0,63.2,163c2.5,3.3,8.2.1,5.6-3.3a12.53,12.53,0,0,1-1.7-13c2-4.4,7.2-6.1,8.6-10.9,2.7-9.3-5.6-19.6-14.9-19.4-4.2.2-4.2,6.7,0,6.6Z"/><path class="cls-2" d="M56.9,131.3c4.2,0,4.2-6.5,0-6.5s-4.2,6.5,0,6.5Z"/><path class="cls-2" d="M74.7,198.6c4.2,0,4.2-6.5,0-6.5s-4.2,6.5,0,6.5Z"/><path class="cls-2" d="M53.7,253.4c6.2,6.5,14.9,3.4,21.7-.1,3.7-1.9.4-7.6-3.3-5.6-4.1,2.1-9.9,5.2-13.8,1.2-2.9-3.1-7.5,1.5-4.6,4.5Z"/><path class="cls-2" d="M58.7,262.7c-6.4,4.8-10,14.2-6.8,22A12.78,12.78,0,0,0,71.2,290c3.2-2.3,5.2-5.9,6.4-9.6s2.9-9.4.6-12.9c-2.9-4.5-15.9-10.4-19.2-3.7-1.8,3.8,3.8,7.1,5.6,3.3l.3-.6c-.6.5-1.3,1-1.9,1.5,3.1-1.2,9.6.6,9.6,4.3,0,3.9-1.7,9.6-4.8,12.2-4.1,3.5-9.8.8-10.4-4.3-.5-4.2,1.2-9.2,4.6-11.7s.1-8.3-3.3-5.8Z"/><path class="cls-2" d="M68.5,275.6v-.3a3.4,3.4,0,0,0-3.3-3.3,3.33,3.33,0,0,0-3.3,3.3v.3a3.3,3.3,0,0,0,6.6,0Z"/><path class="cls-2" d="M58,308.3c-2.7-2.8,4.2-5.6,5.7-5.8a5.91,5.91,0,0,1,6.3,2.9c2.3,3.8,1.2,8.8-1,12.4-5,8.4-14.2,13.4-17.8,22.8-3.2,8.2-.3,17.5,5.7,23.6,3.3,3.4,7.5,5.6,11,8.7a13.65,13.65,0,0,1,4.1,5.4c.7,1.9,1.4,8.3-2.9,6.8-4-1.4-5.7,4.9-1.7,6.3,4.4,1.6,8.8-.9,10.7-5s1-8.9-1.1-12.7c-5.4-9.8-20-12.2-20.6-25.1-.6-12.4,14.4-19.2,19.3-29.3,3.8-7.7,2.7-19.1-6.3-22.6-8.8-3.4-25,6.9-15.9,16.2,2.9,3,7.5-1.7,4.5-4.6Z"/><path class="cls-2" d="M62.1,387v-.3a3.4,3.4,0,0,0-3.3-3.3,3.33,3.33,0,0,0-3.3,3.3v.3a3.3,3.3,0,0,0,6.6,0Z"/><path class="cls-2" d="M69.1,335.5c-7.2,5.5-7.2,15-1.1,21.4,2.9,3.1,7.5-1.6,4.6-4.6s-4-8.3-.2-11.2c3.3-2.4,0-8.1-3.3-5.6Z"/><path class="cls-2" d="M55.1,323.4c4.2,0,4.2-6.5,0-6.5s-4.2,6.5,0,6.5Z"/><path class="cls-2" d="M56.6,413l4.9-5.2c1.4-1.5,3-3.9,4.7-5.1H62.9c1.8,1,3.5,3.5,4.8,5.1,1.6,1.8,3.1,3.6,4.5,5.5,2.6,3.3,7.2-1.3,4.6-4.6-2.9-3.7-6.4-9.3-10.6-11.6a3.51,3.51,0,0,0-3.3,0c-4.1,2.7-7.6,7.7-10.9,11.3-2.8,3,1.8,7.7,4.6,4.6Z"/><path class="cls-2" d="M56.6,431.5l4.9-5.2c1.4-1.5,3-3.9,4.7-5.1H62.9c1.8,1,3.5,3.5,4.8,5.1,1.6,1.8,3.1,3.6,4.5,5.5,2.6,3.3,7.2-1.3,4.6-4.6-2.9-3.7-6.4-9.3-10.6-11.6a3.51,3.51,0,0,0-3.3,0c-4.1,2.7-7.6,7.7-10.9,11.3-2.8,3.1,1.8,7.7,4.6,4.6Z"/><path class="cls-2" d="M70.5,437.4a41.28,41.28,0,0,1-16.4,13.2c-2.1,1-2.1,4.7,0,5.6,5.3,2.4,5.9,9.4,9.8,13.2a10.06,10.06,0,0,0,12,1.9l-4.5-4.5a52.23,52.23,0,0,1-14,14.5c-1.6,1.1-2.4,3.6-.7,5.1a84.13,84.13,0,0,0,16,11c3.7,1.9,7-3.7,3.3-5.6a77.28,77.28,0,0,1-14.7-9.9c-.2,1.7-.4,3.4-.7,5.1a58,58,0,0,0,16.3-16.8c1.8-2.8-1.7-6-4.5-4.5-4.1,2.3-6.7-5.1-8.1-7.7-1.7-3.1-3.8-5.9-7.1-7.4v5.6A46.4,46.4,0,0,0,76,440.7c2.6-3.4-3.1-6.6-5.5-3.3Z"/><path class="cls-2" d="M62.9,486.9a18,18,0,0,0-9,14c-.5,6.3,2.7,11.3,6.7,15.9,5.2,5.8,10.2,11.1,7.5,19.6-1,3.3-3.9,7.4-8,6.4-4.6-1.2-3.4-11.4-.5-10.3,3.9,1.5,5.6-4.8,1.7-6.3-9.9-3.7-13,11.2-9.5,17.7,4.3,8.2,15.6,6.3,20.2-.5,5.4-8.1,3.9-18.6-2-25.8-3.1-3.7-7.4-7-9.1-11.7-1.8-5.1.8-10.6,5.3-13.3,3.6-2.2.3-7.8-3.3-5.7Z"/><path class="cls-2" d="M71.9,510.8c4.2,0,4.2-6.5,0-6.5s-4.2,6.5,0,6.5Z"/><path class="cls-2" d="M58.1,473.8l.4-.4a3.25,3.25,0,0,0-4.6-4.6l-.4.4a3.25,3.25,0,1,0,4.6,4.6Z"/><path class="cls-2" d="M60.6,547.8c3.1,7.6,6.1,15.1,9.2,22.7,1-1.4,2.1-2.7,3.1-4.1-13.9,1.2-21,15.9-20,28.7.4,5.5,3.4,11.2,9.1,12.7a9.3,9.3,0,0,0,11.4-6.7c1-4.1-5.3-5.8-6.3-1.7-1,4.4-5.8,1.5-7-1.1-1.6-3.4-.9-7.8-.1-11.2,1.5-6.6,5.4-13.5,12.8-14.1,1.9-.2,4-2,3.1-4.1-3.1-7.6-6.1-15.1-9.2-22.7-1.3-3.9-7.6-2.2-6.1,1.6Z"/><path class="cls-2" d="M70.6,593.7c4.2,0,4.2-6.5,0-6.5s-4.2,6.5,0,6.5Z"/><path class="cls-2" d="M56.7,563.7c4.2,0,4.2-6.5,0-6.5s-4.2,6.5,0,6.5Z"/><path class="cls-2" d="M314,758.5c-2.2,5.2-6.4-1.8-6.4-4.7a9.12,9.12,0,0,1,5.7-8.5c7.1-2.8,12.1,4,16.9,8,10,8.1,25.3,15.7,38.5,12.4,10.6-2.6,18.4-16,9.3-24.8-8.6-8.3-22.1-1.7-22.4,9.7-.1,4.2,6.4,4.2,6.5,0,.2-7.5,10.8-9.9,13.2-2.2,2.5,8.3-8.4,11.9-14.4,11.5-7.3-.5-14.7-3.7-20.8-7.5-5.6-3.5-9.9-9.1-15.7-12.2-10.1-5.5-22.8,1.3-23.3,13-.2,5,2,10.4,6.7,12.7,4.3,2,9.8.5,11.7-4,1.7-3.9-3.9-7.3-5.5-3.4Z"/><path class="cls-2" d="M426,757.1c.2-9.4-10.2-17.5-19.4-14.9-4.7,1.3-6.2,6.1-10.3,8.3-4.5,2.4-9.6,1.6-13.6-1.4-3.3-2.5-6.6,3.1-3.3,5.6a18.93,18.93,0,0,0,19.2,1.9c3.5-1.6,5.1-4.3,7.8-6.8,4.9-4.5,13.2,1.6,13.1,7.3-.1,4.1,6.4,4.1,6.5,0Z"/><path class="cls-2" d="M414.5,764.2c4.2,0,4.2-6.5,0-6.5s-4.2,6.5,0,6.5Z"/><path class="cls-2" d="M347.3,746.4c4.2,0,4.2-6.5,0-6.5s-4.2,6.5,0,6.5Z"/><path class="cls-2" d="M424.2,753.9c3.8-2,8.1-.1,11.7,1.3,4.1,1.6,8.2,3.4,12.3,4.9,6.1,2.3,13.2,3.5,19-.3,11.4-7.3,3.2-25.3-9.7-19.5-3.8,1.7-.5,7.3,3.3,5.6,2.9-1.3,5.6,1.3,5.5,4.2-.1,3.1-3,4.9-5.8,5.5-4.8,1-9.8-1.4-14.1-3.2-7.9-3.2-17.1-8.6-25.6-4.2-3.6,2.1-.3,7.7,3.4,5.7Z"/><path class="cls-2" d="M466.9,735.2c2.5,4.9,7.6,8.5,13.3,7.4a10.68,10.68,0,0,0,8.9-10.8c-.1-6.1-4.6-10.5-8.5-14.7-2.5-2.6-4.4-5.2-5-8.9-.7-4.3-.5-8.9-.7-13.2s-6.7-4.2-6.5,0c.4,8.8-.2,17.7,5.8,24.8,2.8,3.3,6.8,6.1,8,10.3.9,3-.6,6.2-4.1,6.2-2.7,0-4.5-2.2-5.6-4.4-1.8-3.7-7.5-.4-5.6,3.3Z"/><path class="cls-2" d="M484.2,593.3a8.57,8.57,0,0,0,4.2-11.3c-2-4.7-7.3-7.2-12.2-7.2-11.9,0-19.2,13-13.6,23.4,3,5.6,8.4,9.7,11.8,15.1,3.8,6,6.9,13.1,7.7,20.3.7,6.1-2.1,17.2-10.6,15.6-8.3-1.5-6.5-13.1,1.5-13.3,4.2-.1,4.2-6.6,0-6.5-11.1.3-18,13.2-10.1,22,8.7,9.7,22.5,1.9,25.2-8.9,3.2-13-4.1-28-12-37.9-4-5-11.3-10.2-8.4-17.5a9.12,9.12,0,0,1,8.5-5.7c2.9,0,9.9,4.1,4.7,6.4-3.8,1.5-.5,7.1,3.3,5.5Z"/><path class="cls-2" d="M479.5,693.1c-5.3.1-11.2-7.1-8-12.1,2.1-3.3,5.7-5,7.5-8.7a18.73,18.73,0,0,0-1.9-19.2c-2.5-3.3-8.2-.1-5.6,3.3a12.53,12.53,0,0,1,1.7,13c-2,4.4-7.2,6.1-8.6,10.9-2.7,9.3,5.6,19.6,14.9,19.4,4.2-.1,4.2-6.6,0-6.6Z"/><path class="cls-2" d="M483.4,691.4c4.2,0,4.2-6.5,0-6.5s-4.2,6.5,0,6.5Z"/><path class="cls-2" d="M465.6,624.2c4.2,0,4.2-6.5,0-6.5s-4.2,6.5,0,6.5Z"/><path class="cls-2" d="M486.5,562.8c-6.2-6.5-14.9-3.4-21.7.1-3.7,1.9-.4,7.6,3.3,5.6,4.1-2.1,9.9-5.2,13.8-1.2,2.9,3.1,7.5-1.5,4.6-4.5Z"/><path class="cls-2" d="M481.5,553.5c6.4-4.8,10-14.2,6.8-22a12.78,12.78,0,0,0-19.3-5.3c-3.2,2.3-5.2,5.9-6.4,9.6s-2.9,9.4-.6,12.9c2.9,4.5,15.9,10.4,19.2,3.7,1.8-3.8-3.8-7.1-5.6-3.3l-.3.6c.6-.5,1.3-1,1.9-1.5-3.1,1.2-9.6-.6-9.6-4.3,0-3.9,1.7-9.6,4.8-12.2,4.1-3.5,9.8-.8,10.4,4.3.5,4.2-1.2,9.2-4.6,11.7s0,8.3,3.3,5.8Z"/><path class="cls-2" d="M471.8,540.6v.3a3.4,3.4,0,0,0,3.3,3.3,3.33,3.33,0,0,0,3.3-3.3v-.3a3.4,3.4,0,0,0-3.3-3.3,3.33,3.33,0,0,0-3.3,3.3Z"/><path class="cls-2" d="M482.2,507.9c2.7,2.8-4.2,5.6-5.7,5.8a5.91,5.91,0,0,1-6.3-2.9c-2.3-3.8-1.2-8.8,1-12.4,5-8.4,14.2-13.4,17.8-22.8,3.2-8.2.3-17.5-5.7-23.6-3.3-3.4-7.5-5.6-11-8.7a13.65,13.65,0,0,1-4.1-5.4c-.7-1.9-1.4-8.3,2.9-6.8,4,1.4,5.7-4.9,1.7-6.3-4.4-1.6-8.8.9-10.7,5s-1,8.9,1.1,12.7c5.4,9.8,20,12.2,20.6,25.1.6,12.4-14.4,19.2-19.3,29.3-3.8,7.7-2.7,19.1,6.3,22.6,8.8,3.4,25-6.9,15.9-16.2-2.8-3-7.4,1.6-4.5,4.6Z"/><path class="cls-2" d="M478.1,429.2v.3a3.4,3.4,0,0,0,3.3,3.3,3.33,3.33,0,0,0,3.3-3.3v-.3a3.3,3.3,0,0,0-6.6,0Z"/><path class="cls-2" d="M471.2,480.6c7.2-5.5,7.2-15,1.1-21.4-2.9-3.1-7.5,1.6-4.6,4.6s4,8.3.2,11.2c-3.3,2.5-.1,8.2,3.3,5.6Z"/><path class="cls-2" d="M485.1,499.3c4.2,0,4.2-6.5,0-6.5s-4.2,6.5,0,6.5Z"/><path class="cls-2" d="M483.6,403.2l-4.9,5.2c-1.4,1.5-3,3.9-4.7,5.1h3.3c-1.8-1-3.5-3.5-4.8-5.1-1.6-1.8-3.1-3.6-4.5-5.5-2.6-3.3-7.2,1.3-4.6,4.6,2.9,3.7,6.4,9.3,10.6,11.6a3.51,3.51,0,0,0,3.3,0c4.1-2.7,7.6-7.7,10.9-11.3,2.9-3-1.7-7.7-4.6-4.6Z"/><path class="cls-2" d="M483.6,384.7l-4.9,5.2c-1.4,1.5-3,3.9-4.7,5.1h3.3c-1.8-1-3.5-3.5-4.8-5.1-1.6-1.8-3.1-3.6-4.5-5.5-2.6-3.3-7.2,1.3-4.6,4.6,2.9,3.7,6.4,9.3,10.6,11.6a3.51,3.51,0,0,0,3.3,0c4.1-2.7,7.6-7.7,10.9-11.3,2.9-3.1-1.7-7.7-4.6-4.6Z"/><path class="cls-2" d="M469.8,378.8a41.28,41.28,0,0,1,16.4-13.2c2.1-1,2.1-4.7,0-5.6-5.3-2.4-5.9-9.4-9.8-13.2a10.06,10.06,0,0,0-12-1.9l4.5,4.5a52.23,52.23,0,0,1,14-14.5c1.6-1.1,2.4-3.6.7-5.1a84.13,84.13,0,0,0-16-11c-3.7-1.9-7,3.7-3.3,5.6a77.28,77.28,0,0,1,14.7,9.9c.2-1.7.4-3.4.7-5.1A58,58,0,0,0,463.4,346c-1.8,2.8,1.7,6,4.5,4.5,4.1-2.3,6.7,5.1,8.1,7.7,1.7,3.1,3.8,5.9,7.1,7.4V360a46.4,46.4,0,0,0-18.8,15.5c-2.6,3.4,3,6.6,5.5,3.3Z"/><path class="cls-2" d="M477.4,329.3a18,18,0,0,0,9-14c.5-6.3-2.7-11.3-6.7-15.9-5.2-5.8-10.2-11.1-7.5-19.6,1-3.3,3.9-7.4,8-6.4,4.6,1.2,3.4,11.4.5,10.3-3.9-1.5-5.6,4.8-1.7,6.3,9.9,3.7,13-11.2,9.5-17.7-4.3-8.2-15.6-6.3-20.2.5-5.4,8.1-3.9,18.6,2,25.8,3.1,3.7,7.4,7,9.1,11.7,1.8,5.1-.8,10.6-5.3,13.3-3.6,2.2-.3,7.8,3.3,5.7Z"/><path class="cls-2" d="M468.4,311.9c4.2,0,4.2-6.5,0-6.5s-4.2,6.5,0,6.5Z"/><path class="cls-2" d="M482.1,342.4l-.4.4a3.25,3.25,0,1,0,4.6,4.6l.4-.4a3.25,3.25,0,0,0-4.6-4.6Z"/><path class="cls-2" d="M479.6,268.3c-3.1-7.6-6.1-15.1-9.2-22.7-1,1.4-2.1,2.7-3.1,4.1,13.9-1.2,21-15.9,20-28.7-.4-5.5-3.4-11.2-9.1-12.7a9.3,9.3,0,0,0-11.4,6.7c-1,4.1,5.3,5.8,6.3,1.7,1-4.4,5.8-1.5,7,1.1,1.6,3.4.9,7.8.1,11.2-1.5,6.6-5.4,13.5-12.8,14.1-1.9.2-4,2-3.1,4.1,3.1,7.6,6.1,15.1,9.2,22.7,1.4,4,7.7,2.3,6.1-1.6Z"/><path class="cls-2" d="M469.7,229c4.2,0,4.2-6.5,0-6.5s-4.2,6.5,0,6.5Z"/><path class="cls-2" d="M483.5,259c4.2,0,4.2-6.5,0-6.5s-4.1,6.5,0,6.5Z"/><path class="cls-2" d="M226.3,57.7c2.2-5.2,6.4,1.8,6.4,4.7a9.12,9.12,0,0,1-5.7,8.5c-7.1,2.8-12.1-4-16.9-8-10-8.1-25.3-15.7-38.5-12.4-10.6,2.6-18.4,16-9.3,24.8,8.6,8.3,22.1,1.7,22.4-9.7.1-4.2-6.4-4.2-6.5,0-.2,7.5-10.8,9.9-13.2,2.2-2.5-8.3,8.4-11.9,14.4-11.5,7.3.5,14.7,3.7,20.8,7.5,5.6,3.5,9.9,9.1,15.7,12.2,10.1,5.5,22.8-1.3,23.3-13,.2-5-2-10.4-6.7-12.7-4.3-2-9.8-.5-11.7,4-1.8,3.9,3.8,7.3,5.5,3.4Z"/><path class="cls-2" d="M114.2,59.1c-.2,9.4,10.2,17.5,19.4,14.9,4.7-1.3,6.2-6.1,10.3-8.3,4.5-2.4,9.6-1.6,13.6,1.4,3.3,2.5,6.6-3.1,3.3-5.6a18.93,18.93,0,0,0-19.2-1.9c-3.5,1.6-5.1,4.3-7.8,6.8-4.9,4.5-13.2-1.6-13.1-7.3.1-4.2-6.4-4.2-6.5,0Z"/><path class="cls-2" d="M125.7,58.5c4.2,0,4.2-6.5,0-6.5s-4.2,6.5,0,6.5Z"/><path class="cls-2" d="M193,76.3c4.2,0,4.2-6.5,0-6.5s-4.2,6.5,0,6.5Z"/><path class="cls-2" d="M116,62.2c-3.8,2-8.1.1-11.7-1.3-4.1-1.6-8.2-3.4-12.3-4.9-6.1-2.3-13.2-3.5-19,.3-11.4,7.3-3.2,25.3,9.7,19.5,3.8-1.7.5-7.3-3.3-5.6-2.9,1.3-5.6-1.3-5.5-4.2.1-3.1,3-4.9,5.8-5.5,4.8-1,9.8,1.4,14.1,3.2,7.9,3.2,17.1,8.6,25.6,4.2,3.6-2,.4-7.6-3.4-5.7Z"/><path class="cls-2" d="M73.3,81c-2.5-4.9-7.6-8.5-13.3-7.4a10.68,10.68,0,0,0-8.9,10.8c.1,6.1,4.6,10.5,8.5,14.7,2.5,2.6,4.4,5.2,5,8.9.7,4.3.5,8.9.7,13.2s6.7,4.2,6.5,0c-.4-8.8.2-17.7-5.8-24.8-2.8-3.3-6.8-6.1-8-10.3-.9-3,.6-6.2,4.1-6.2,2.7,0,4.5,2.2,5.6,4.4,1.9,3.7,7.5.4,5.6-3.3Z"/><path class="cls-2" d="M56.1,222.9a8.57,8.57,0,0,0-4.2,11.3c2,4.7,7.3,7.2,12.2,7.2,11.9,0,19.2-13,13.6-23.4-3-5.6-8.4-9.7-11.8-15.1-3.8-6-6.9-13.1-7.7-20.3-.7-6.1,2.1-17.2,10.6-15.6,8.3,1.5,6.5,13.1-1.5,13.3-4.2.1-4.2,6.6,0,6.5,11.1-.3,18-13.2,10.1-22-8.7-9.7-22.5-1.9-25.2,8.9-3.2,13,4.1,28,12,37.9,4,5,11.3,10.2,8.4,17.5a9.12,9.12,0,0,1-8.5,5.7c-2.9,0-9.9-4.1-4.7-6.4,3.8-1.5.5-7.1-3.3-5.5Z"/><path class="cls-2" d="M60.8,123c5.3-.1,11.2,7.1,8,12.1-2.1,3.3-5.7,5-7.5,8.7A18.73,18.73,0,0,0,63.2,163c2.5,3.3,8.2.1,5.6-3.3a12.53,12.53,0,0,1-1.7-13c2-4.4,7.2-6.1,8.6-10.9,2.7-9.3-5.6-19.6-14.9-19.4-4.2.2-4.2,6.7,0,6.6Z"/><path class="cls-2" d="M56.9,131.3c4.2,0,4.2-6.5,0-6.5s-4.2,6.5,0,6.5Z"/><path class="cls-2" d="M74.7,198.6c4.2,0,4.2-6.5,0-6.5s-4.2,6.5,0,6.5Z"/><path class="cls-2" d="M53.7,253.4c6.2,6.5,14.9,3.4,21.7-.1,3.7-1.9.4-7.6-3.3-5.6-4.1,2.1-9.9,5.2-13.8,1.2-2.9-3.1-7.5,1.5-4.6,4.5Z"/><path class="cls-2" d="M58.7,262.7c-6.4,4.8-10,14.2-6.8,22A12.78,12.78,0,0,0,71.2,290c3.2-2.3,5.2-5.9,6.4-9.6s2.9-9.4.6-12.9c-2.9-4.5-15.9-10.4-19.2-3.7-1.8,3.8,3.8,7.1,5.6,3.3l.3-.6c-.6.5-1.3,1-1.9,1.5,3.1-1.2,9.6.6,9.6,4.3,0,3.9-1.7,9.6-4.8,12.2-4.1,3.5-9.8.8-10.4-4.3-.5-4.2,1.2-9.2,4.6-11.7s.1-8.3-3.3-5.8Z"/><path class="cls-2" d="M68.5,275.6v-.3a3.4,3.4,0,0,0-3.3-3.3,3.33,3.33,0,0,0-3.3,3.3v.3a3.3,3.3,0,0,0,6.6,0Z"/><path class="cls-2" d="M58,308.3c-2.7-2.8,4.2-5.6,5.7-5.8a5.91,5.91,0,0,1,6.3,2.9c2.3,3.8,1.2,8.8-1,12.4-5,8.4-14.2,13.4-17.8,22.8-3.2,8.2-.3,17.5,5.7,23.6,3.3,3.4,7.5,5.6,11,8.7a13.65,13.65,0,0,1,4.1,5.4c.7,1.9,1.4,8.3-2.9,6.8-4-1.4-5.7,4.9-1.7,6.3,4.4,1.6,8.8-.9,10.7-5s1-8.9-1.1-12.7c-5.4-9.8-20-12.2-20.6-25.1-.6-12.4,14.4-19.2,19.3-29.3,3.8-7.7,2.7-19.1-6.3-22.6-8.8-3.4-25,6.9-15.9,16.2,2.9,3,7.5-1.7,4.5-4.6Z"/><path class="cls-2" d="M62.1,387v-.3a3.4,3.4,0,0,0-3.3-3.3,3.33,3.33,0,0,0-3.3,3.3v.3a3.3,3.3,0,0,0,6.6,0Z"/><path class="cls-2" d="M69.1,335.5c-7.2,5.5-7.2,15-1.1,21.4,2.9,3.1,7.5-1.6,4.6-4.6s-4-8.3-.2-11.2c3.3-2.4,0-8.1-3.3-5.6Z"/><path class="cls-2" d="M55.1,323.4c4.2,0,4.2-6.5,0-6.5s-4.2,6.5,0,6.5Z"/><path class="cls-2" d="M56.6,413l4.9-5.2c1.4-1.5,3-3.9,4.7-5.1H62.9c1.8,1,3.5,3.5,4.8,5.1,1.6,1.8,3.1,3.6,4.5,5.5,2.6,3.3,7.2-1.3,4.6-4.6-2.9-3.7-6.4-9.3-10.6-11.6a3.51,3.51,0,0,0-3.3,0c-4.1,2.7-7.6,7.7-10.9,11.3-2.8,3,1.8,7.7,4.6,4.6Z"/><path class="cls-2" d="M56.6,431.5l4.9-5.2c1.4-1.5,3-3.9,4.7-5.1H62.9c1.8,1,3.5,3.5,4.8,5.1,1.6,1.8,3.1,3.6,4.5,5.5,2.6,3.3,7.2-1.3,4.6-4.6-2.9-3.7-6.4-9.3-10.6-11.6a3.51,3.51,0,0,0-3.3,0c-4.1,2.7-7.6,7.7-10.9,11.3-2.8,3.1,1.8,7.7,4.6,4.6Z"/><path class="cls-2" d="M70.5,437.4a41.28,41.28,0,0,1-16.4,13.2c-2.1,1-2.1,4.7,0,5.6,5.3,2.4,5.9,9.4,9.8,13.2a10.06,10.06,0,0,0,12,1.9l-4.5-4.5a52.23,52.23,0,0,1-14,14.5c-1.6,1.1-2.4,3.6-.7,5.1a84.13,84.13,0,0,0,16,11c3.7,1.9,7-3.7,3.3-5.6a77.28,77.28,0,0,1-14.7-9.9c-.2,1.7-.4,3.4-.7,5.1a58,58,0,0,0,16.3-16.8c1.8-2.8-1.7-6-4.5-4.5-4.1,2.3-6.7-5.1-8.1-7.7-1.7-3.1-3.8-5.9-7.1-7.4v5.6A46.4,46.4,0,0,0,76,440.7c2.6-3.4-3.1-6.6-5.5-3.3Z"/><path class="cls-2" d="M62.9,486.9a18,18,0,0,0-9,14c-.5,6.3,2.7,11.3,6.7,15.9,5.2,5.8,10.2,11.1,7.5,19.6-1,3.3-3.9,7.4-8,6.4-4.6-1.2-3.4-11.4-.5-10.3,3.9,1.5,5.6-4.8,1.7-6.3-9.9-3.7-13,11.2-9.5,17.7,4.3,8.2,15.6,6.3,20.2-.5,5.4-8.1,3.9-18.6-2-25.8-3.1-3.7-7.4-7-9.1-11.7-1.8-5.1.8-10.6,5.3-13.3,3.6-2.2.3-7.8-3.3-5.7Z"/><path class="cls-2" d="M71.9,510.8c4.2,0,4.2-6.5,0-6.5s-4.2,6.5,0,6.5Z"/><path class="cls-2" d="M58.1,473.8l.4-.4a3.25,3.25,0,0,0-4.6-4.6l-.4.4a3.25,3.25,0,1,0,4.6,4.6Z"/><path class="cls-2" d="M60.6,547.8c3.1,7.6,6.1,15.1,9.2,22.7,1-1.4,2.1-2.7,3.1-4.1-13.9,1.2-21,15.9-20,28.7.4,5.5,3.4,11.2,9.1,12.7a9.3,9.3,0,0,0,11.4-6.7c1-4.1-5.3-5.8-6.3-1.7-1,4.4-5.8,1.5-7-1.1-1.6-3.4-.9-7.8-.1-11.2,1.5-6.6,5.4-13.5,12.8-14.1,1.9-.2,4-2,3.1-4.1-3.1-7.6-6.1-15.1-9.2-22.7-1.3-3.9-7.6-2.2-6.1,1.6Z"/><path class="cls-2" d="M70.6,593.7c4.2,0,4.2-6.5,0-6.5s-4.2,6.5,0,6.5Z"/><path class="cls-2" d="M56.7,563.7c4.2,0,4.2-6.5,0-6.5s-4.2,6.5,0,6.5Z"/><path class="cls-2" d="M314,758.5c-2.2,5.2-6.4-1.8-6.4-4.7a9.12,9.12,0,0,1,5.7-8.5c7.1-2.8,12.1,4,16.9,8,10,8.1,25.3,15.7,38.5,12.4,10.6-2.6,18.4-16,9.3-24.8-8.6-8.3-22.1-1.7-22.4,9.7-.1,4.2,6.4,4.2,6.5,0,.2-7.5,10.8-9.9,13.2-2.2,2.5,8.3-8.4,11.9-14.4,11.5-7.3-.5-14.7-3.7-20.8-7.5-5.6-3.5-9.9-9.1-15.7-12.2-10.1-5.5-22.8,1.3-23.3,13-.2,5,2,10.4,6.7,12.7,4.3,2,9.8.5,11.7-4,1.7-3.9-3.9-7.3-5.5-3.4Z"/><path class="cls-2" d="M426,757.1c.2-9.4-10.2-17.5-19.4-14.9-4.7,1.3-6.2,6.1-10.3,8.3-4.5,2.4-9.6,1.6-13.6-1.4-3.3-2.5-6.6,3.1-3.3,5.6a18.93,18.93,0,0,0,19.2,1.9c3.5-1.6,5.1-4.3,7.8-6.8,4.9-4.5,13.2,1.6,13.1,7.3-.1,4.1,6.4,4.1,6.5,0Z"/><path class="cls-2" d="M414.5,764.2c4.2,0,4.2-6.5,0-6.5s-4.2,6.5,0,6.5Z"/><path class="cls-2" d="M347.3,746.4c4.2,0,4.2-6.5,0-6.5s-4.2,6.5,0,6.5Z"/><path class="cls-2" d="M424.2,753.9c3.8-2,8.1-.1,11.7,1.3,4.1,1.6,8.2,3.4,12.3,4.9,6.1,2.3,13.2,3.5,19-.3,11.4-7.3,3.2-25.3-9.7-19.5-3.8,1.7-.5,7.3,3.3,5.6,2.9-1.3,5.6,1.3,5.5,4.2-.1,3.1-3,4.9-5.8,5.5-4.8,1-9.8-1.4-14.1-3.2-7.9-3.2-17.1-8.6-25.6-4.2-3.6,2.1-.3,7.7,3.4,5.7Z"/><path class="cls-2" d="M466.9,735.2c2.5,4.9,7.6,8.5,13.3,7.4a10.68,10.68,0,0,0,8.9-10.8c-.1-6.1-4.6-10.5-8.5-14.7-2.5-2.6-4.4-5.2-5-8.9-.7-4.3-.5-8.9-.7-13.2s-6.7-4.2-6.5,0c.4,8.8-.2,17.7,5.8,24.8,2.8,3.3,6.8,6.1,8,10.3.9,3-.6,6.2-4.1,6.2-2.7,0-4.5-2.2-5.6-4.4-1.8-3.7-7.5-.4-5.6,3.3Z"/><path class="cls-2" d="M484.2,593.3a8.57,8.57,0,0,0,4.2-11.3c-2-4.7-7.3-7.2-12.2-7.2-11.9,0-19.2,13-13.6,23.4,3,5.6,8.4,9.7,11.8,15.1,3.8,6,6.9,13.1,7.7,20.3.7,6.1-2.1,17.2-10.6,15.6-8.3-1.5-6.5-13.1,1.5-13.3,4.2-.1,4.2-6.6,0-6.5-11.1.3-18,13.2-10.1,22,8.7,9.7,22.5,1.9,25.2-8.9,3.2-13-4.1-28-12-37.9-4-5-11.3-10.2-8.4-17.5a9.12,9.12,0,0,1,8.5-5.7c2.9,0,9.9,4.1,4.7,6.4-3.8,1.5-.5,7.1,3.3,5.5Z"/><path class="cls-2" d="M479.5,693.1c-5.3.1-11.2-7.1-8-12.1,2.1-3.3,5.7-5,7.5-8.7a18.73,18.73,0,0,0-1.9-19.2c-2.5-3.3-8.2-.1-5.6,3.3a12.53,12.53,0,0,1,1.7,13c-2,4.4-7.2,6.1-8.6,10.9-2.7,9.3,5.6,19.6,14.9,19.4,4.2-.1,4.2-6.6,0-6.6Z"/><path class="cls-2" d="M483.4,691.4c4.2,0,4.2-6.5,0-6.5s-4.2,6.5,0,6.5Z"/><path class="cls-2" d="M465.6,624.2c4.2,0,4.2-6.5,0-6.5s-4.2,6.5,0,6.5Z"/><path class="cls-2" d="M486.5,562.8c-6.2-6.5-14.9-3.4-21.7.1-3.7,1.9-.4,7.6,3.3,5.6,4.1-2.1,9.9-5.2,13.8-1.2,2.9,3.1,7.5-1.5,4.6-4.5Z"/><path class="cls-2" d="M481.5,553.5c6.4-4.8,10-14.2,6.8-22a12.78,12.78,0,0,0-19.3-5.3c-3.2,2.3-5.2,5.9-6.4,9.6s-2.9,9.4-.6,12.9c2.9,4.5,15.9,10.4,19.2,3.7,1.8-3.8-3.8-7.1-5.6-3.3l-.3.6c.6-.5,1.3-1,1.9-1.5-3.1,1.2-9.6-.6-9.6-4.3,0-3.9,1.7-9.6,4.8-12.2,4.1-3.5,9.8-.8,10.4,4.3.5,4.2-1.2,9.2-4.6,11.7s0,8.3,3.3,5.8Z"/><path class="cls-2" d="M471.8,540.6v.3a3.4,3.4,0,0,0,3.3,3.3,3.33,3.33,0,0,0,3.3-3.3v-.3a3.4,3.4,0,0,0-3.3-3.3,3.33,3.33,0,0,0-3.3,3.3Z"/><path class="cls-2" d="M482.2,507.9c2.7,2.8-4.2,5.6-5.7,5.8a5.91,5.91,0,0,1-6.3-2.9c-2.3-3.8-1.2-8.8,1-12.4,5-8.4,14.2-13.4,17.8-22.8,3.2-8.2.3-17.5-5.7-23.6-3.3-3.4-7.5-5.6-11-8.7a13.65,13.65,0,0,1-4.1-5.4c-.7-1.9-1.4-8.3,2.9-6.8,4,1.4,5.7-4.9,1.7-6.3-4.4-1.6-8.8.9-10.7,5s-1,8.9,1.1,12.7c5.4,9.8,20,12.2,20.6,25.1.6,12.4-14.4,19.2-19.3,29.3-3.8,7.7-2.7,19.1,6.3,22.6,8.8,3.4,25-6.9,15.9-16.2-2.8-3-7.4,1.6-4.5,4.6Z"/><path class="cls-2" d="M478.1,429.2v.3a3.4,3.4,0,0,0,3.3,3.3,3.33,3.33,0,0,0,3.3-3.3v-.3a3.3,3.3,0,0,0-6.6,0Z"/><path class="cls-2" d="M471.2,480.6c7.2-5.5,7.2-15,1.1-21.4-2.9-3.1-7.5,1.6-4.6,4.6s4,8.3.2,11.2c-3.3,2.5-.1,8.2,3.3,5.6Z"/><path class="cls-2" d="M485.1,499.3c4.2,0,4.2-6.5,0-6.5s-4.2,6.5,0,6.5Z"/><path class="cls-2" d="M483.6,403.2l-4.9,5.2c-1.4,1.5-3,3.9-4.7,5.1h3.3c-1.8-1-3.5-3.5-4.8-5.1-1.6-1.8-3.1-3.6-4.5-5.5-2.6-3.3-7.2,1.3-4.6,4.6,2.9,3.7,6.4,9.3,10.6,11.6a3.51,3.51,0,0,0,3.3,0c4.1-2.7,7.6-7.7,10.9-11.3,2.9-3-1.7-7.7-4.6-4.6Z"/><path class="cls-2" d="M483.6,384.7l-4.9,5.2c-1.4,1.5-3,3.9-4.7,5.1h3.3c-1.8-1-3.5-3.5-4.8-5.1-1.6-1.8-3.1-3.6-4.5-5.5-2.6-3.3-7.2,1.3-4.6,4.6,2.9,3.7,6.4,9.3,10.6,11.6a3.51,3.51,0,0,0,3.3,0c4.1-2.7,7.6-7.7,10.9-11.3,2.9-3.1-1.7-7.7-4.6-4.6Z"/><path class="cls-2" d="M469.8,378.8a41.28,41.28,0,0,1,16.4-13.2c2.1-1,2.1-4.7,0-5.6-5.3-2.4-5.9-9.4-9.8-13.2a10.06,10.06,0,0,0-12-1.9l4.5,4.5a52.23,52.23,0,0,1,14-14.5c1.6-1.1,2.4-3.6.7-5.1a84.13,84.13,0,0,0-16-11c-3.7-1.9-7,3.7-3.3,5.6a77.28,77.28,0,0,1,14.7,9.9c.2-1.7.4-3.4.7-5.1A58,58,0,0,0,463.4,346c-1.8,2.8,1.7,6,4.5,4.5,4.1-2.3,6.7,5.1,8.1,7.7,1.7,3.1,3.8,5.9,7.1,7.4V360a46.4,46.4,0,0,0-18.8,15.5c-2.6,3.4,3,6.6,5.5,3.3Z"/><path class="cls-2" d="M477.4,329.3a18,18,0,0,0,9-14c.5-6.3-2.7-11.3-6.7-15.9-5.2-5.8-10.2-11.1-7.5-19.6,1-3.3,3.9-7.4,8-6.4,4.6,1.2,3.4,11.4.5,10.3-3.9-1.5-5.6,4.8-1.7,6.3,9.9,3.7,13-11.2,9.5-17.7-4.3-8.2-15.6-6.3-20.2.5-5.4,8.1-3.9,18.6,2,25.8,3.1,3.7,7.4,7,9.1,11.7,1.8,5.1-.8,10.6-5.3,13.3-3.6,2.2-.3,7.8,3.3,5.7Z"/><path class="cls-2" d="M468.4,311.9c4.2,0,4.2-6.5,0-6.5s-4.2,6.5,0,6.5Z"/><path class="cls-2" d="M482.1,342.4l-.4.4a3.25,3.25,0,1,0,4.6,4.6l.4-.4a3.25,3.25,0,0,0-4.6-4.6Z"/><path class="cls-2" d="M479.6,268.3c-3.1-7.6-6.1-15.1-9.2-22.7-1,1.4-2.1,2.7-3.1,4.1,13.9-1.2,21-15.9,20-28.7-.4-5.5-3.4-11.2-9.1-12.7a9.3,9.3,0,0,0-11.4,6.7c-1,4.1,5.3,5.8,6.3,1.7,1-4.4,5.8-1.5,7,1.1,1.6,3.4.9,7.8.1,11.2-1.5,6.6-5.4,13.5-12.8,14.1-1.9.2-4,2-3.1,4.1,3.1,7.6,6.1,15.1,9.2,22.7,1.4,4,7.7,2.3,6.1-1.6Z"/><path class="cls-2" d="M469.7,229c4.2,0,4.2-6.5,0-6.5s-4.2,6.5,0,6.5Z"/><path class="cls-2" d="M483.5,259c4.2,0,4.2-6.5,0-6.5s-4.1,6.5,0,6.5Z"/><path class="cls-2" d="M226.3,57.7c2.2-5.2,6.4,1.8,6.4,4.7a9.12,9.12,0,0,1-5.7,8.5c-7.1,2.8-12.1-4-16.9-8-10-8.1-25.3-15.7-38.5-12.4-10.6,2.6-18.4,16-9.3,24.8,8.6,8.3,22.1,1.7,22.4-9.7.1-4.2-6.4-4.2-6.5,0-.2,7.5-10.8,9.9-13.2,2.2-2.5-8.3,8.4-11.9,14.4-11.5,7.3.5,14.7,3.7,20.8,7.5,5.6,3.5,9.9,9.1,15.7,12.2,10.1,5.5,22.8-1.3,23.3-13,.2-5-2-10.4-6.7-12.7-4.3-2-9.8-.5-11.7,4-1.8,3.9,3.8,7.3,5.5,3.4Z"/><path class="cls-2" d="M114.2,59.1c-.2,9.4,10.2,17.5,19.4,14.9,4.7-1.3,6.2-6.1,10.3-8.3,4.5-2.4,9.6-1.6,13.6,1.4,3.3,2.5,6.6-3.1,3.3-5.6a18.93,18.93,0,0,0-19.2-1.9c-3.5,1.6-5.1,4.3-7.8,6.8-4.9,4.5-13.2-1.6-13.1-7.3.1-4.2-6.4-4.2-6.5,0Z"/><path class="cls-2" d="M125.7,58.5c4.2,0,4.2-6.5,0-6.5s-4.2,6.5,0,6.5Z"/><path class="cls-2" d="M193,76.3c4.2,0,4.2-6.5,0-6.5s-4.2,6.5,0,6.5Z"/><path class="cls-2" d="M116,62.2c-3.8,2-8.1.1-11.7-1.3-4.1-1.6-8.2-3.4-12.3-4.9-6.1-2.3-13.2-3.5-19,.3-11.4,7.3-3.2,25.3,9.7,19.5,3.8-1.7.5-7.3-3.3-5.6-2.9,1.3-5.6-1.3-5.5-4.2.1-3.1,3-4.9,5.8-5.5,4.8-1,9.8,1.4,14.1,3.2,7.9,3.2,17.1,8.6,25.6,4.2,3.6-2,.4-7.6-3.4-5.7Z"/><path class="cls-2" d="M73.3,81c-2.5-4.9-7.6-8.5-13.3-7.4a10.68,10.68,0,0,0-8.9,10.8c.1,6.1,4.6,10.5,8.5,14.7,2.5,2.6,4.4,5.2,5,8.9.7,4.3.5,8.9.7,13.2s6.7,4.2,6.5,0c-.4-8.8.2-17.7-5.8-24.8-2.8-3.3-6.8-6.1-8-10.3-.9-3,.6-6.2,4.1-6.2,2.7,0,4.5,2.2,5.6,4.4,1.9,3.7,7.5.4,5.6-3.3Z"/><path class="cls-2" d="M56.1,222.9a8.57,8.57,0,0,0-4.2,11.3c2,4.7,7.3,7.2,12.2,7.2,11.9,0,19.2-13,13.6-23.4-3-5.6-8.4-9.7-11.8-15.1-3.8-6-6.9-13.1-7.7-20.3-.7-6.1,2.1-17.2,10.6-15.6,8.3,1.5,6.5,13.1-1.5,13.3-4.2.1-4.2,6.6,0,6.5,11.1-.3,18-13.2,10.1-22-8.7-9.7-22.5-1.9-25.2,8.9-3.2,13,4.1,28,12,37.9,4,5,11.3,10.2,8.4,17.5a9.12,9.12,0,0,1-8.5,5.7c-2.9,0-9.9-4.1-4.7-6.4,3.8-1.5.5-7.1-3.3-5.5Z"/><path class="cls-2" d="M60.8,123c5.3-.1,11.2,7.1,8,12.1-2.1,3.3-5.7,5-7.5,8.7A18.73,18.73,0,0,0,63.2,163c2.5,3.3,8.2.1,5.6-3.3a12.53,12.53,0,0,1-1.7-13c2-4.4,7.2-6.1,8.6-10.9,2.7-9.3-5.6-19.6-14.9-19.4-4.2.2-4.2,6.7,0,6.6Z"/><path class="cls-2" d="M56.9,131.3c4.2,0,4.2-6.5,0-6.5s-4.2,6.5,0,6.5Z"/><path class="cls-2" d="M74.7,198.6c4.2,0,4.2-6.5,0-6.5s-4.2,6.5,0,6.5Z"/><path class="cls-2" d="M53.7,253.4c6.2,6.5,14.9,3.4,21.7-.1,3.7-1.9.4-7.6-3.3-5.6-4.1,2.1-9.9,5.2-13.8,1.2-2.9-3.1-7.5,1.5-4.6,4.5Z"/><path class="cls-2" d="M58.7,262.7c-6.4,4.8-10,14.2-6.8,22A12.78,12.78,0,0,0,71.2,290c3.2-2.3,5.2-5.9,6.4-9.6s2.9-9.4.6-12.9c-2.9-4.5-15.9-10.4-19.2-3.7-1.8,3.8,3.8,7.1,5.6,3.3l.3-.6c-.6.5-1.3,1-1.9,1.5,3.1-1.2,9.6.6,9.6,4.3,0,3.9-1.7,9.6-4.8,12.2-4.1,3.5-9.8.8-10.4-4.3-.5-4.2,1.2-9.2,4.6-11.7s.1-8.3-3.3-5.8Z"/><path class="cls-2" d="M68.5,275.6v-.3a3.4,3.4,0,0,0-3.3-3.3,3.33,3.33,0,0,0-3.3,3.3v.3a3.3,3.3,0,0,0,6.6,0Z"/><path class="cls-2" d="M58,308.3c-2.7-2.8,4.2-5.6,5.7-5.8a5.91,5.91,0,0,1,6.3,2.9c2.3,3.8,1.2,8.8-1,12.4-5,8.4-14.2,13.4-17.8,22.8-3.2,8.2-.3,17.5,5.7,23.6,3.3,3.4,7.5,5.6,11,8.7a13.65,13.65,0,0,1,4.1,5.4c.7,1.9,1.4,8.3-2.9,6.8-4-1.4-5.7,4.9-1.7,6.3,4.4,1.6,8.8-.9,10.7-5s1-8.9-1.1-12.7c-5.4-9.8-20-12.2-20.6-25.1-.6-12.4,14.4-19.2,19.3-29.3,3.8-7.7,2.7-19.1-6.3-22.6-8.8-3.4-25,6.9-15.9,16.2,2.9,3,7.5-1.7,4.5-4.6Z"/><path class="cls-2" d="M62.1,387v-.3a3.4,3.4,0,0,0-3.3-3.3,3.33,3.33,0,0,0-3.3,3.3v.3a3.3,3.3,0,0,0,6.6,0Z"/><path class="cls-2" d="M69.1,335.5c-7.2,5.5-7.2,15-1.1,21.4,2.9,3.1,7.5-1.6,4.6-4.6s-4-8.3-.2-11.2c3.3-2.4,0-8.1-3.3-5.6Z"/><path class="cls-2" d="M55.1,323.4c4.2,0,4.2-6.5,0-6.5s-4.2,6.5,0,6.5Z"/><path class="cls-2" d="M56.6,413l4.9-5.2c1.4-1.5,3-3.9,4.7-5.1H62.9c1.8,1,3.5,3.5,4.8,5.1,1.6,1.8,3.1,3.6,4.5,5.5,2.6,3.3,7.2-1.3,4.6-4.6-2.9-3.7-6.4-9.3-10.6-11.6a3.51,3.51,0,0,0-3.3,0c-4.1,2.7-7.6,7.7-10.9,11.3-2.8,3,1.8,7.7,4.6,4.6Z"/><path class="cls-2" d="M56.6,431.5l4.9-5.2c1.4-1.5,3-3.9,4.7-5.1H62.9c1.8,1,3.5,3.5,4.8,5.1,1.6,1.8,3.1,3.6,4.5,5.5,2.6,3.3,7.2-1.3,4.6-4.6-2.9-3.7-6.4-9.3-10.6-11.6a3.51,3.51,0,0,0-3.3,0c-4.1,2.7-7.6,7.7-10.9,11.3-2.8,3.1,1.8,7.7,4.6,4.6Z"/><path class="cls-2" d="M70.5,437.4a41.28,41.28,0,0,1-16.4,13.2c-2.1,1-2.1,4.7,0,5.6,5.3,2.4,5.9,9.4,9.8,13.2a10.06,10.06,0,0,0,12,1.9l-4.5-4.5a52.23,52.23,0,0,1-14,14.5c-1.6,1.1-2.4,3.6-.7,5.1a84.13,84.13,0,0,0,16,11c3.7,1.9,7-3.7,3.3-5.6a77.28,77.28,0,0,1-14.7-9.9c-.2,1.7-.4,3.4-.7,5.1a58,58,0,0,0,16.3-16.8c1.8-2.8-1.7-6-4.5-4.5-4.1,2.3-6.7-5.1-8.1-7.7-1.7-3.1-3.8-5.9-7.1-7.4v5.6A46.4,46.4,0,0,0,76,440.7c2.6-3.4-3.1-6.6-5.5-3.3Z"/><path class="cls-2" d="M62.9,486.9a18,18,0,0,0-9,14c-.5,6.3,2.7,11.3,6.7,15.9,5.2,5.8,10.2,11.1,7.5,19.6-1,3.3-3.9,7.4-8,6.4-4.6-1.2-3.4-11.4-.5-10.3,3.9,1.5,5.6-4.8,1.7-6.3-9.9-3.7-13,11.2-9.5,17.7,4.3,8.2,15.6,6.3,20.2-.5,5.4-8.1,3.9-18.6-2-25.8-3.1-3.7-7.4-7-9.1-11.7-1.8-5.1.8-10.6,5.3-13.3,3.6-2.2.3-7.8-3.3-5.7Z"/><path class="cls-2" d="M71.9,510.8c4.2,0,4.2-6.5,0-6.5s-4.2,6.5,0,6.5Z"/><path class="cls-2" d="M58.1,473.8l.4-.4a3.25,3.25,0,0,0-4.6-4.6l-.4.4a3.25,3.25,0,1,0,4.6,4.6Z"/><path class="cls-2" d="M60.6,547.8c3.1,7.6,6.1,15.1,9.2,22.7,1-1.4,2.1-2.7,3.1-4.1-13.9,1.2-21,15.9-20,28.7.4,5.5,3.4,11.2,9.1,12.7a9.3,9.3,0,0,0,11.4-6.7c1-4.1-5.3-5.8-6.3-1.7-1,4.4-5.8,1.5-7-1.1-1.6-3.4-.9-7.8-.1-11.2,1.5-6.6,5.4-13.5,12.8-14.1,1.9-.2,4-2,3.1-4.1-3.1-7.6-6.1-15.1-9.2-22.7-1.3-3.9-7.6-2.2-6.1,1.6Z"/><path class="cls-2" d="M70.6,593.7c4.2,0,4.2-6.5,0-6.5s-4.2,6.5,0,6.5Z"/><path class="cls-2" d="M56.7,563.7c4.2,0,4.2-6.5,0-6.5s-4.2,6.5,0,6.5Z"/><path class="cls-2" d="M314,758.5c-2.2,5.2-6.4-1.8-6.4-4.7a9.12,9.12,0,0,1,5.7-8.5c7.1-2.8,12.1,4,16.9,8,10,8.1,25.3,15.7,38.5,12.4,10.6-2.6,18.4-16,9.3-24.8-8.6-8.3-22.1-1.7-22.4,9.7-.1,4.2,6.4,4.2,6.5,0,.2-7.5,10.8-9.9,13.2-2.2,2.5,8.3-8.4,11.9-14.4,11.5-7.3-.5-14.7-3.7-20.8-7.5-5.6-3.5-9.9-9.1-15.7-12.2-10.1-5.5-22.8,1.3-23.3,13-.2,5,2,10.4,6.7,12.7,4.3,2,9.8.5,11.7-4,1.7-3.9-3.9-7.3-5.5-3.4Z"/><path class="cls-2" d="M426,757.1c.2-9.4-10.2-17.5-19.4-14.9-4.7,1.3-6.2,6.1-10.3,8.3-4.5,2.4-9.6,1.6-13.6-1.4-3.3-2.5-6.6,3.1-3.3,5.6a18.93,18.93,0,0,0,19.2,1.9c3.5-1.6,5.1-4.3,7.8-6.8,4.9-4.5,13.2,1.6,13.1,7.3-.1,4.1,6.4,4.1,6.5,0Z"/><path class="cls-2" d="M414.5,764.2c4.2,0,4.2-6.5,0-6.5s-4.2,6.5,0,6.5Z"/><path class="cls-2" d="M347.3,746.4c4.2,0,4.2-6.5,0-6.5s-4.2,6.5,0,6.5Z"/><path class="cls-2" d="M424.2,753.9c3.8-2,8.1-.1,11.7,1.3,4.1,1.6,8.2,3.4,12.3,4.9,6.1,2.3,13.2,3.5,19-.3,11.4-7.3,3.2-25.3-9.7-19.5-3.8,1.7-.5,7.3,3.3,5.6,2.9-1.3,5.6,1.3,5.5,4.2-.1,3.1-3,4.9-5.8,5.5-4.8,1-9.8-1.4-14.1-3.2-7.9-3.2-17.1-8.6-25.6-4.2-3.6,2.1-.3,7.7,3.4,5.7Z"/><path class="cls-2" d="M466.9,735.2c2.5,4.9,7.6,8.5,13.3,7.4a10.68,10.68,0,0,0,8.9-10.8c-.1-6.1-4.6-10.5-8.5-14.7-2.5-2.6-4.4-5.2-5-8.9-.7-4.3-.5-8.9-.7-13.2s-6.7-4.2-6.5,0c.4,8.8-.2,17.7,5.8,24.8,2.8,3.3,6.8,6.1,8,10.3.9,3-.6,6.2-4.1,6.2-2.7,0-4.5-2.2-5.6-4.4-1.8-3.7-7.5-.4-5.6,3.3Z"/><path class="cls-2" d="M484.2,593.3a8.57,8.57,0,0,0,4.2-11.3c-2-4.7-7.3-7.2-12.2-7.2-11.9,0-19.2,13-13.6,23.4,3,5.6,8.4,9.7,11.8,15.1,3.8,6,6.9,13.1,7.7,20.3.7,6.1-2.1,17.2-10.6,15.6-8.3-1.5-6.5-13.1,1.5-13.3,4.2-.1,4.2-6.6,0-6.5-11.1.3-18,13.2-10.1,22,8.7,9.7,22.5,1.9,25.2-8.9,3.2-13-4.1-28-12-37.9-4-5-11.3-10.2-8.4-17.5a9.12,9.12,0,0,1,8.5-5.7c2.9,0,9.9,4.1,4.7,6.4-3.8,1.5-.5,7.1,3.3,5.5Z"/><path class="cls-2" d="M479.5,693.1c-5.3.1-11.2-7.1-8-12.1,2.1-3.3,5.7-5,7.5-8.7a18.73,18.73,0,0,0-1.9-19.2c-2.5-3.3-8.2-.1-5.6,3.3a12.53,12.53,0,0,1,1.7,13c-2,4.4-7.2,6.1-8.6,10.9-2.7,9.3,5.6,19.6,14.9,19.4,4.2-.1,4.2-6.6,0-6.6Z"/><path class="cls-2" d="M483.4,691.4c4.2,0,4.2-6.5,0-6.5s-4.2,6.5,0,6.5Z"/><path class="cls-2" d="M465.6,624.2c4.2,0,4.2-6.5,0-6.5s-4.2,6.5,0,6.5Z"/><path class="cls-2" d="M486.5,562.8c-6.2-6.5-14.9-3.4-21.7.1-3.7,1.9-.4,7.6,3.3,5.6,4.1-2.1,9.9-5.2,13.8-1.2,2.9,3.1,7.5-1.5,4.6-4.5Z"/><path class="cls-2" d="M481.5,553.5c6.4-4.8,10-14.2,6.8-22a12.78,12.78,0,0,0-19.3-5.3c-3.2,2.3-5.2,5.9-6.4,9.6s-2.9,9.4-.6,12.9c2.9,4.5,15.9,10.4,19.2,3.7,1.8-3.8-3.8-7.1-5.6-3.3l-.3.6c.6-.5,1.3-1,1.9-1.5-3.1,1.2-9.6-.6-9.6-4.3,0-3.9,1.7-9.6,4.8-12.2,4.1-3.5,9.8-.8,10.4,4.3.5,4.2-1.2,9.2-4.6,11.7s0,8.3,3.3,5.8Z"/><path class="cls-2" d="M471.8,540.6v.3a3.4,3.4,0,0,0,3.3,3.3,3.33,3.33,0,0,0,3.3-3.3v-.3a3.4,3.4,0,0,0-3.3-3.3,3.33,3.33,0,0,0-3.3,3.3Z"/><path class="cls-2" d="M482.2,507.9c2.7,2.8-4.2,5.6-5.7,5.8a5.91,5.91,0,0,1-6.3-2.9c-2.3-3.8-1.2-8.8,1-12.4,5-8.4,14.2-13.4,17.8-22.8,3.2-8.2.3-17.5-5.7-23.6-3.3-3.4-7.5-5.6-11-8.7a13.65,13.65,0,0,1-4.1-5.4c-.7-1.9-1.4-8.3,2.9-6.8,4,1.4,5.7-4.9,1.7-6.3-4.4-1.6-8.8.9-10.7,5s-1,8.9,1.1,12.7c5.4,9.8,20,12.2,20.6,25.1.6,12.4-14.4,19.2-19.3,29.3-3.8,7.7-2.7,19.1,6.3,22.6,8.8,3.4,25-6.9,15.9-16.2-2.8-3-7.4,1.6-4.5,4.6Z"/><path class="cls-2" d="M478.1,429.2v.3a3.4,3.4,0,0,0,3.3,3.3,3.33,3.33,0,0,0,3.3-3.3v-.3a3.3,3.3,0,0,0-6.6,0Z"/><path class="cls-2" d="M471.2,480.6c7.2-5.5,7.2-15,1.1-21.4-2.9-3.1-7.5,1.6-4.6,4.6s4,8.3.2,11.2c-3.3,2.5-.1,8.2,3.3,5.6Z"/><path class="cls-2" d="M485.1,499.3c4.2,0,4.2-6.5,0-6.5s-4.2,6.5,0,6.5Z"/><path class="cls-2" d="M483.6,403.2l-4.9,5.2c-1.4,1.5-3,3.9-4.7,5.1h3.3c-1.8-1-3.5-3.5-4.8-5.1-1.6-1.8-3.1-3.6-4.5-5.5-2.6-3.3-7.2,1.3-4.6,4.6,2.9,3.7,6.4,9.3,10.6,11.6a3.51,3.51,0,0,0,3.3,0c4.1-2.7,7.6-7.7,10.9-11.3,2.9-3-1.7-7.7-4.6-4.6Z"/><path class="cls-2" d="M483.6,384.7l-4.9,5.2c-1.4,1.5-3,3.9-4.7,5.1h3.3c-1.8-1-3.5-3.5-4.8-5.1-1.6-1.8-3.1-3.6-4.5-5.5-2.6-3.3-7.2,1.3-4.6,4.6,2.9,3.7,6.4,9.3,10.6,11.6a3.51,3.51,0,0,0,3.3,0c4.1-2.7,7.6-7.7,10.9-11.3,2.9-3.1-1.7-7.7-4.6-4.6Z"/><path class="cls-2" d="M469.8,378.8a41.28,41.28,0,0,1,16.4-13.2c2.1-1,2.1-4.7,0-5.6-5.3-2.4-5.9-9.4-9.8-13.2a10.06,10.06,0,0,0-12-1.9l4.5,4.5a52.23,52.23,0,0,1,14-14.5c1.6-1.1,2.4-3.6.7-5.1a84.13,84.13,0,0,0-16-11c-3.7-1.9-7,3.7-3.3,5.6a77.28,77.28,0,0,1,14.7,9.9c.2-1.7.4-3.4.7-5.1A58,58,0,0,0,463.4,346c-1.8,2.8,1.7,6,4.5,4.5,4.1-2.3,6.7,5.1,8.1,7.7,1.7,3.1,3.8,5.9,7.1,7.4V360a46.4,46.4,0,0,0-18.8,15.5c-2.6,3.4,3,6.6,5.5,3.3Z"/><path class="cls-2" d="M477.4,329.3a18,18,0,0,0,9-14c.5-6.3-2.7-11.3-6.7-15.9-5.2-5.8-10.2-11.1-7.5-19.6,1-3.3,3.9-7.4,8-6.4,4.6,1.2,3.4,11.4.5,10.3-3.9-1.5-5.6,4.8-1.7,6.3,9.9,3.7,13-11.2,9.5-17.7-4.3-8.2-15.6-6.3-20.2.5-5.4,8.1-3.9,18.6,2,25.8,3.1,3.7,7.4,7,9.1,11.7,1.8,5.1-.8,10.6-5.3,13.3-3.6,2.2-.3,7.8,3.3,5.7Z"/><path class="cls-2" d="M468.4,311.9c4.2,0,4.2-6.5,0-6.5s-4.2,6.5,0,6.5Z"/><path class="cls-2" d="M482.1,342.4l-.4.4a3.25,3.25,0,1,0,4.6,4.6l.4-.4a3.25,3.25,0,0,0-4.6-4.6Z"/><path class="cls-2" d="M479.6,268.3c-3.1-7.6-6.1-15.1-9.2-22.7-1,1.4-2.1,2.7-3.1,4.1,13.9-1.2,21-15.9,20-28.7-.4-5.5-3.4-11.2-9.1-12.7a9.3,9.3,0,0,0-11.4,6.7c-1,4.1,5.3,5.8,6.3,1.7,1-4.4,5.8-1.5,7,1.1,1.6,3.4.9,7.8.1,11.2-1.5,6.6-5.4,13.5-12.8,14.1-1.9.2-4,2-3.1,4.1,3.1,7.6,6.1,15.1,9.2,22.7,1.4,4,7.7,2.3,6.1-1.6Z"/><path class="cls-2" d="M469.7,229c4.2,0,4.2-6.5,0-6.5s-4.2,6.5,0,6.5Z"/><path class="cls-2" d="M483.5,259c4.2,0,4.2-6.5,0-6.5s-4.1,6.5,0,6.5Z"/><path class="cls-2" d="M220.6,761.8a8.57,8.57,0,0,0,11.3,4.2c4.7-2,7.2-7.3,7.2-12.2,0-11.9-13-19.2-23.4-13.6-5.6,3-9.7,8.4-15.1,11.8-6,3.8-13.1,6.9-20.3,7.7-6.1.7-17.2-2.1-15.6-10.6,1.5-8.3,13.1-6.5,13.3,1.5.1,4.2,6.6,4.2,6.5,0-.3-11.1-13.2-18-22-10.1-9.7,8.7-1.9,22.5,8.9,25.2,13,3.2,28-4.1,37.9-12,5-4,10.2-11.3,17.5-8.4a9.12,9.12,0,0,1,5.7,8.5c0,2.9-4.1,9.9-6.4,4.7-1.5-3.9-7.1-.5-5.5,3.3Z"/><path class="cls-2" d="M120.7,757.1c-.1-5.3,7.1-11.2,12.1-8,3.3,2.1,5,5.7,8.7,7.5a18.73,18.73,0,0,0,19.2-1.9c3.3-2.5.1-8.2-3.3-5.6a12.53,12.53,0,0,1-13,1.7c-4.4-2-6.1-7.2-10.9-8.6-9.3-2.7-19.6,5.6-19.4,14.9.2,4.1,6.7,4.2,6.6,0Z"/><path class="cls-2" d="M125.7,764.2c4.2,0,4.2-6.5,0-6.5s-4.2,6.5,0,6.5Z"/><path class="cls-2" d="M193,746.4c4.2,0,4.2-6.5,0-6.5s-4.2,6.5,0,6.5Z"/><path class="cls-2" d="M119.3,748.3c-8.4-4.4-17.6,1-25.6,4.2-4.3,1.7-9.3,4.1-14.1,3.2-2.7-.5-5.7-2.4-5.8-5.5-.1-2.9,2.6-5.5,5.5-4.2,3.8,1.7,7.1-3.9,3.3-5.6-12.8-5.8-21,12.3-9.7,19.5,5.8,3.7,12.9,2.5,19,.3,4.2-1.5,8.2-3.3,12.3-4.9,3.7-1.4,7.9-3.3,11.7-1.3s7.1-3.7,3.4-5.7Z"/><path class="cls-2" d="M67.7,731.9c-1.1,2.2-2.9,4.4-5.6,4.4-3,0-4.8-2.5-4.3-5.4.9-4.7,5.3-7.7,8.2-11.2,6.1-7.1,5.5-15.9,5.8-24.8.2-4.2-6.3-4.2-6.5,0s-.1,8.2-.6,12.3-2.3,6.9-5.1,9.9c-3.9,4.1-8.3,8.6-8.5,14.7A10.77,10.77,0,0,0,60,742.6c5.7,1.1,10.8-2.5,13.3-7.4,1.9-3.7-3.7-7-5.6-3.3Z"/><path class="cls-2" d="M60.8,699.7c9.4.2,17.5-10.2,14.9-19.4-1.3-4.7-6.1-6.2-8.3-10.3-2.4-4.5-1.6-9.6,1.4-13.6,2.5-3.3-3.1-6.6-5.6-3.3a18.93,18.93,0,0,0-1.9,19.2c1.6,3.5,4.3,5.1,6.8,7.8,4.5,4.9-1.6,13.2-7.3,13.1-4.2-.1-4.2,6.4,0,6.5Z"/><path class="cls-2" d="M56.9,691.4c4.2,0,4.2-6.5,0-6.5s-4.2,6.5,0,6.5Z"/><path class="cls-2" d="M74.7,624.2c4.2,0,4.2-6.5,0-6.5s-4.2,6.5,0,6.5Z"/><path class="cls-2" d="M319.6,55.4a8.57,8.57,0,0,0-11.3-4.2c-4.7,2-7.2,7.3-7.2,12.2,0,11.9,13,19.2,23.4,13.6,5.6-3,9.7-8.4,15.1-11.8,6-3.8,13.1-6.9,20.3-7.7,6.1-.7,17.2,2.1,15.6,10.6-1.5,8.3-13.1,6.5-13.3-1.5-.1-4.2-6.6-4.2-6.5,0,.3,11.1,13.2,18,22,10.1,9.7-8.7,1.9-22.5-8.9-25.2-13-3.2-28,4.1-37.9,12-5,4-10.2,11.3-17.5,8.4a9.12,9.12,0,0,1-5.7-8.5c0-2.9,4.1-9.9,6.4-4.7,1.5,3.9,7.1.5,5.5-3.3Z"/><path class="cls-2" d="M419.5,60.1c.1,5.3-7.1,11.2-12.1,8-3.3-2.1-5-5.7-8.7-7.5a18.73,18.73,0,0,0-19.2,1.9c-3.3,2.5-.1,8.2,3.3,5.6a12.53,12.53,0,0,1,13-1.7c4.4,2,6.1,7.2,10.9,8.6,9.3,2.7,19.6-5.6,19.4-14.9-.2-4.1-6.7-4.2-6.6,0Z"/><path class="cls-2" d="M414.5,59.5c4.2,0,4.2-6.5,0-6.5s-4.2,6.5,0,6.5Z"/><path class="cls-2" d="M347.3,77.3c4.2,0,4.2-6.5,0-6.5s-4.2,6.5,0,6.5Z"/><path class="cls-2" d="M420.9,68.9c8.4,4.4,17.6-1,25.6-4.2,4.3-1.7,9.3-4.1,14.1-3.2,2.7.5,5.7,2.4,5.8,5.5.1,2.9-2.6,5.5-5.5,4.2-3.8-1.7-7.1,3.9-3.3,5.6,12.8,5.8,21-12.3,9.7-19.5-5.8-3.7-12.9-2.5-19-.3-4.2,1.5-8.2,3.3-12.3,4.9-3.7,1.4-7.9,3.3-11.7,1.3s-7.1,3.7-3.4,5.7Z"/><path class="cls-2" d="M472.6,85.3c1.1-2.2,2.9-4.4,5.6-4.4,3,0,4.8,2.5,4.3,5.4-.9,4.7-5.3,7.7-8.2,11.2-6.1,7.1-5.5,15.9-5.8,24.8-.2,4.2,6.3,4.2,6.5,0s.1-8.2.6-12.3,2.3-6.9,5.1-9.9c3.9-4.1,8.3-8.6,8.5-14.7a10.77,10.77,0,0,0-8.9-10.8c-5.7-1.1-10.8,2.5-13.3,7.4-2,3.7,3.7,7,5.6,3.3Z"/><path class="cls-2" d="M479.5,117.5c-9.4-.2-17.5,10.2-14.9,19.4,1.3,4.7,6.1,6.2,8.3,10.3,2.4,4.5,1.6,9.6-1.4,13.6-2.5,3.3,3.1,6.6,5.6,3.3a18.93,18.93,0,0,0,1.9-19.2c-1.6-3.5-4.3-5.1-6.8-7.8-4.5-4.9,1.6-13.2,7.3-13.1,4.2.1,4.2-6.4,0-6.5Z"/><path class="cls-2" d="M483.4,132.3c4.2,0,4.2-6.5,0-6.5s-4.2,6.5,0,6.5Z"/><path class="cls-2" d="M465.6,199.6c4.2,0,4.2-6.5,0-6.5s-4.2,6.5,0,6.5Z"/><path class="cls-2" d="M68,617.8c-8.7-7.4-21.5,6.7-13.5,14.8a14.05,14.05,0,0,0,6.3,3.5c3.2,1,7.4,1,9.5,4.1a6.76,6.76,0,0,1-.4,7.9c-3.4,3.7-9.1,1.4-8.8-3.6.3-4.2-6.3-4.2-6.5,0-.9,14.2,19.9,15.7,23,2.5a13.46,13.46,0,0,0-5.3-13.9c-3.2-2.1-6.9-2.2-10.4-3.5-1.9-.7-3.7-1.9-3.3-4.1.3-1.4,3.2-4.4,4.7-3.1,3.2,2.7,7.9-1.9,4.7-4.6Z"/><path class="cls-2" d="M264.6,739.6c-2.4,4.8-7.4,6.3-12.2,7.9a24.14,24.14,0,0,1-14.8.4c-4-1.2-5.7,5.1-1.7,6.3,6.7,2,13,1.4,19.5-.8,6-2,11.9-4.5,14.8-10.5,1.9-3.8-3.7-7.1-5.6-3.3Z"/><path class="cls-2" d="M265.5,744.1a38.78,38.78,0,0,0,37.6,9.2c4-1.2,2.3-7.5-1.7-6.3a32.43,32.43,0,0,1-31.3-7.5c-3.1-2.9-7.7,1.7-4.6,4.6Z"/><path class="cls-2" d="M267.9,762.3c4.2,0,4.2-6.5,0-6.5s-4.2,6.5,0,6.5Z"/><path class="cls-2" d="M249.2,763.8h.2a3.4,3.4,0,0,0,3.3-3.3,3.33,3.33,0,0,0-3.3-3.3h-.2a3.3,3.3,0,0,0,0,6.6Z"/><path class="cls-2" d="M285.5,764.1c4.2,0,4.2-6.5,0-6.5s-4.2,6.5,0,6.5Z"/><path class="cls-2" d="M472.3,199.4c8.7,7.4,21.5-6.7,13.5-14.8a14.05,14.05,0,0,0-6.3-3.5c-3.2-1-7.4-1-9.5-4.1a6.76,6.76,0,0,1,.4-7.9c3.4-3.7,9.1-1.4,8.8,3.6-.3,4.2,6.3,4.2,6.5,0,.9-14.2-19.9-15.7-23-2.5a13.46,13.46,0,0,0,5.3,13.9c3.2,2.1,6.9,2.2,10.4,3.5,1.9.7,3.7,1.9,3.3,4.1-.3,1.4-3.2,4.4-4.7,3.1-3.3-2.7-7.9,1.9-4.7,4.6Z"/><path class="cls-2" d="M275.6,77.6c2.4-4.8,7.4-6.3,12.2-7.9a24.14,24.14,0,0,1,14.8-.4c4,1.2,5.7-5.1,1.7-6.3-6.7-2-13-1.4-19.5.8-6,2-11.9,4.5-14.8,10.5-1.9,3.8,3.7,7.1,5.6,3.3Z"/><path class="cls-2" d="M274.8,73.1a38.78,38.78,0,0,0-37.6-9.2c-4,1.2-2.3,7.5,1.7,6.3a32.43,32.43,0,0,1,31.3,7.5c3,2.9,7.6-1.7,4.6-4.6Z"/><path class="cls-2" d="M272.4,61.4c4.2,0,4.2-6.5,0-6.5s-4.2,6.5,0,6.5Z"/><path class="cls-2" d="M291,53.4h-.2a3.4,3.4,0,0,0-3.3,3.3,3.33,3.33,0,0,0,3.3,3.3h.2a3.4,3.4,0,0,0,3.3-3.3,3.33,3.33,0,0,0-3.3-3.3Z"/><path class="cls-2" d="M254.8,59.7c4.2,0,4.2-6.5,0-6.5s-4.2,6.5,0,6.5Z"/><path class="cls-2" d="M99.8,702.5V114.7a14.77,14.77,0,0,1,14.8-14.8h311a14.77,14.77,0,0,1,14.8,14.8V702.6a14.77,14.77,0,0,1-14.8,14.8h-311A14.85,14.85,0,0,1,99.8,702.5Z"/><path class="cls-1" d="M228,221.8c5.7-13.7,9.9-29.9,1.4-43.4-7.7-12.2-21.7-14.3-34.3-8.5-11.3,5.2-19.7,16-22.8,27.9-3.2,12.5,0,25.5,6.9,36.1s16.8,18.7,26.3,26.8c11.1,9.4,21.4,19.4,29.9,31.3a146.85,146.85,0,0,1,20.7,41.3c4.1,13.6,6.1,29.2.3,42.6a35.17,35.17,0,0,1-41.8,19.8c-8.3-2.5-16.1-8.1-20.2-15.8s-3.4-19.3,6.3-22.2c4-1.2,2.3-7.5-1.7-6.3-14.1,4.3-16.4,20.9-9.8,32.4,7,12.3,21.3,19.9,35.2,19.9a41.84,41.84,0,0,0,35-19.6c7.5-12.1,8.1-26.9,5.8-40.5-5-29.7-22.9-57.9-44.6-78.3-17.8-16.7-48.1-34.5-42.6-63.4,2.8-14.8,17.5-31.7,34.2-28.5,8.2,1.6,13.5,9.4,15,17.2,2,10.1-1.8,20.4-5.6,29.5-1.5,3.8,4.8,5.5,6.4,1.7Z"/><path class="cls-1" d="M188.4,163.8c-17.1-.1-31.9,12.2-37.7,27.9-6.8,18.3-.7,39.4,10.2,54.8,11.6,16.3,27.9,27.4,43.9,38.8,14.3,10.1,33.5,25.2,31.1,45.1-1.2,10.5-11.7,17.2-21.6,12.4-9.3-4.6-9.2-17.7-2-24,3.2-2.8-1.5-7.4-4.6-4.6C194.2,326,201,349,219,350.8c8.5.8,16.9-3.3,20.8-11,4.2-8.3,3.1-18.3-.4-26.6-7.8-18.3-25.6-29.3-41.2-40.3C179.9,260,161.8,244,156,221.5c-3-11.7-2.3-24.6,4.4-34.9,6.1-9.5,16.4-16.2,27.9-16.1,4.3-.2,4.3-6.7.1-6.7Z"/><path class="cls-1" d="M137.1,208a48.34,48.34,0,0,0-23.6-10.6c-2.5-.4-5.4,2.2-3.7,4.8a57.9,57.9,0,0,1,7.6,17.9c1.5,5.7,3,11.4,6.8,16,6.1,7.6,18.1,9.8,24,.8,2.3-3.5-3.3-6.8-5.6-3.3s-7.4,3.3-10.7,1.1c-3.7-2.6-5.6-7.2-6.9-11.3-2.6-8.6-4.5-16.7-9.6-24.4-1.2,1.6-2.5,3.2-3.7,4.8a40.72,40.72,0,0,1,20.7,9c3.3,2.4,7.9-2.2,4.7-4.8Z"/><path class="cls-1" d="M134.5,187.2a27.53,27.53,0,0,1-3.1-29.5c4-8.1,9.6-16.6,2.8-24.9-2.5-3-6.6.8-5.1,3.9,2.6,5.5,7.7,8.2,12.3,11.6A24.42,24.42,0,0,1,151.5,167c.2,4.2,6.7,4.2,6.5,0a32.09,32.09,0,0,0-7.8-19.6c-4.6-5.2-12.4-7.6-15.5-14l-5.1,3.9c3.9,4.8-.8,11.4-3.1,15.7a36,36,0,0,0-4.3,13.2,34.94,34.94,0,0,0,7.7,25.6c2.6,3.3,7.2-1.3,4.6-4.6Z"/><path class="cls-1" d="M142.4,179.9c4.2,0,4.2-6.5,0-6.5s-4.2,6.5,0,6.5Z"/><path class="cls-1" d="M135.5,228.5c4.2,0,4.2-6.5,0-6.5s-4.2,6.5,0,6.5Z"/><path class="cls-1" d="M162.8,262.2c-14.4-5.1-27.1,11.7-17.8,24,4.6,6.1,12.4,8.9,18.7,12.9,7.6,4.8,14.4,11,17.4,19.7,5.1,15.3-1.1,36-16.2,43.3-15.8,7.7-38.4-4.4-43.9-20.4-3.2-9.2-.9-20.6,8.6-25,9.1-4.3,19.9,2.2,18.6,12.6-.5,4.1,6,4.1,6.5,0,1-8.2-4.2-16.1-11.7-19.2-7.7-3.2-16.5-.6-22.4,5-14.6,13.8-5.9,35.9,7.9,46.4,15.3,11.6,36.6,13.4,50-1.9,12.2-13.9,15.1-36.8,4.1-52.3-6.3-8.9-15.7-14.1-24.9-19.4-4.4-2.6-9.5-5.8-9.3-11.6.2-6.8,6.8-10.1,12.8-8,3.9,1.6,5.6-4.7,1.6-6.1Z"/><path class="cls-1" d="M123.3,301.3c-8.9-6.4-3-19.1.7-26.6-1.7.2-3.4.4-5.1.7,3.7,3.9,7.3,7.8,11,11.7,3.2,3.5,8,8.4,5.2,13.5-2,3.7,3.6,7,5.6,3.3,3-5.6,1.6-11.5-2-16.4-4.4-6-10.2-11.2-15.2-16.6a3.21,3.21,0,0,0-5.1.7c-5.7,11.3-10.8,26.6,1.6,35.6,3.4,2.2,6.6-3.4,3.3-5.9Z"/><path class="cls-1" d="M126.8,298.8c4.2,0,4.2-6.5,0-6.5s-4.2,6.5,0,6.5Z"/><path class="cls-1" d="M133.7,346.6c4.2,0,4.2-6.5,0-6.5s-4.2,6.5,0,6.5Z"/><path class="cls-1" d="M145,351.8c4.2,0,4.2-6.5,0-6.5s-4.2,6.5,0,6.5Z"/><path class="cls-1" d="M159.8,350.9c4.2,0,4.2-6.5,0-6.5s-4.2,6.5,0,6.5Z"/><path class="cls-1" d="M179.7,155.5c1.8-3.7,3.6-7.6,6.6-10.5,4.3-4.2,9.3-3.4,14.7-1.9,9.5,2.7,18.3,2.7,27.2-1.8l-4.5-1.2c4.2,7.6,9.3,16.9,5,25.6-1.9,3.7,3.8,7,5.6,3.3,5.5-11.1.5-22.2-5-32.2a3.46,3.46,0,0,0-4.5-1.2,26,26,0,0,1-17.1,2.5c-5.3-1.1-10.4-3.5-15.9-2.9-9.2,1-14.2,9.3-17.8,16.9-1.8,3.9,3.8,7.2,5.7,3.4Z"/><path class="cls-1" d="M198,156.4h.9a3.4,3.4,0,0,0,3.3-3.3,3.33,3.33,0,0,0-3.3-3.3H198a3.4,3.4,0,0,0-3.3,3.3,3.27,3.27,0,0,0,3.3,3.3Z"/><path class="cls-1" d="M212.1,157.5v.9a3.4,3.4,0,0,0,3.3,3.3,3.33,3.33,0,0,0,3.3-3.3v-.9a3.4,3.4,0,0,0-3.3-3.3,3.47,3.47,0,0,0-3.3,3.3Z"/><path class="cls-1" d="M176.3,285.8h.9a3.4,3.4,0,0,0,3.3-3.3,3.33,3.33,0,0,0-3.3-3.3h-.9a3.4,3.4,0,0,0-3.3,3.3,3.33,3.33,0,0,0,3.3,3.3Z"/><path class="cls-1" d="M189.3,293.6c4.2,0,4.2-6.5,0-6.5s-4.2,6.5,0,6.5Z"/><path class="cls-1" d="M200.6,303.2c4.2,0,4.2-6.5,0-6.5s-4.2,6.5,0,6.5Z"/><path class="cls-1" d="M137.9,259.1v-.9a3.4,3.4,0,0,0-3.3-3.3,3.33,3.33,0,0,0-3.3,3.3v.9a3.3,3.3,0,1,0,6.6,0Z"/><path class="cls-1" d="M119.8,253.7c4.2,0,4.2-6.5,0-6.5s-4.2,6.5,0,6.5Z"/><path class="cls-1" d="M206.9,376a22.11,22.11,0,0,0,38.8,1c2.1-3.6-3.5-6.9-5.6-3.3-6.5,11-21.8,10.3-27.6-1-1.9-3.7-7.5-.4-5.6,3.3Z"/><path class="cls-1" d="M318.5,220c-5.7-13.6-11.5-34.7,3.8-44.5,13.6-8.7,30.6,4.7,36.5,16.7,6.4,12.9,3.9,27.1-3.9,38.8-7.4,11-18.3,19.2-28.2,27.7-22.9,19.5-41,45-49.4,74.1-3.9,13.5-5.6,28.6-.9,42.1a42.25,42.25,0,0,0,29,27.3,41.76,41.76,0,0,0,42.2-13.7c5-6.1,8.2-14,6.7-22A19.21,19.21,0,0,0,341,351.3c-4-1.2-5.7,5.1-1.7,6.3,8.2,2.5,10.3,11.8,7.7,19.1-2.7,7.5-9.1,13.4-16,16.8a34.86,34.86,0,0,1-41.2-8.1c-10.1-11.2-11-27.4-8.4-41.5,2.8-15,9.1-29.3,17-42.3a150.41,150.41,0,0,1,28.9-34.7c9.5-8.4,19.9-16,28.1-25.7,8.1-9.5,14.1-21.4,13.8-34.2A43.52,43.52,0,0,0,353,174.8c-11.5-9.1-29-12.2-39.5,0-11.7,13.6-7.5,32-1.2,47,1.6,3.8,7.9,2.1,6.2-1.8Z"/><path class="cls-1" d="M351.8,170.3c22.4-.1,35.7,22.4,33.8,42.8-2.2,23.4-19.4,41.5-37.3,55-15.6,11.7-34.1,21.6-44.5,38.8-4.8,8.1-7.7,17.8-5.5,27.2a20.9,20.9,0,0,0,17,16.3c9,1.5,18.6-2.6,22.4-11.2a21.74,21.74,0,0,0-5.3-25.2c-3.1-2.7-7.8,1.8-4.6,4.6,6.2,5.4,7.5,16.2,1,22s-17.8,4.2-22.3-3.3c-5-8.5-1.8-19.4,2.9-27.2,4.9-8.1,12-14.6,19.5-20.2,15.6-11.9,32.6-21.9,45.4-37.1,12.5-14.9,20.6-34.3,17.1-54-3.4-18.9-19.9-35.2-39.6-35.1-4.1.1-4.2,6.6,0,6.6Z"/><path class="cls-1" d="M407.8,212.6a42.48,42.48,0,0,1,20.7-9c-1.2-1.6-2.5-3.2-3.7-4.8-5,7.7-6.9,15.8-9.6,24.4-1.2,4-2.9,8.1-6.3,10.8-3.2,2.6-8.7,3.4-11.3-.6-2.3-3.5-7.9-.2-5.6,3.3,5.9,9,17.9,6.8,24-.8,3.6-4.4,5.2-9.9,6.6-15.3a59.56,59.56,0,0,1,7.7-18.6c1.7-2.6-1.1-5.2-3.7-4.8A48.34,48.34,0,0,0,403,207.8c-3.1,2.8,1.6,7.4,4.8,4.8Z"/><path class="cls-1" d="M410.4,191.8a34.81,34.81,0,0,0,7.7-25.6,36.6,36.6,0,0,0-4.3-13.2c-2.3-4.3-7-10.9-3.1-15.7l-5.1-3.9c-3.1,6.5-10.9,8.9-15.5,14a31,31,0,0,0-7.8,19.6c-.2,4.2,6.3,4.2,6.5,0a24.42,24.42,0,0,1,10.1-18.7c4.6-3.4,9.7-6.2,12.3-11.6,1.5-3.1-2.6-7-5.1-3.9-6.8,8.3-1.2,16.9,2.8,24.9a27.73,27.73,0,0,1-3.1,29.5c-2.6,3.3,2,7.9,4.6,4.6Z"/><path class="cls-1" d="M397.8,179.9c4.2,0,4.2-6.5,0-6.5s-4.2,6.5,0,6.5Z"/><path class="cls-1" d="M404.8,228.5c4.2,0,4.2-6.5,0-6.5s-4.2,6.5,0,6.5Z"/><path class="cls-1" d="M379.1,268.5c5.1-1.8,11,.2,12.5,5.8s-2.4,9.7-6.8,12.5c-7.9,5-16.4,9-23,15.8-13.4,13.9-14,36.1-3.8,52,4.6,7.1,11.3,13,19.5,15.3,9.5,2.7,19.7.3,28.2-4.3,15.5-8.4,28.7-28.7,17.8-45.9-4.9-7.8-14.7-12.7-23.9-10.3-8.6,2.3-15.1,11-13.9,20,.5,4.1,7,4.2,6.5,0a12.63,12.63,0,0,1,14.7-13.9c9,1.6,14.2,10.3,13.9,18.9-.6,17.8-21.8,32.6-38.9,29.8-16.9-2.8-25.7-22.1-24.3-37.7.8-9.4,5.6-17.2,12.8-23,6.4-5.2,14.3-8.2,20.7-13.3,6.1-4.7,9.1-12.2,6-19.6a15.6,15.6,0,0,0-19.8-8.4c-3.8,1.4-2.1,7.7,1.8,6.3Z"/><path class="cls-1" d="M420.3,307c12.4-9,7.3-24.2,1.6-35.6-.9-1.9-3.7-2.1-5.1-.7-5.1,5.4-10.9,10.6-15.2,16.6-3.6,4.9-5,10.9-2,16.4,2,3.7,7.6.4,5.6-3.3-2.7-5.1,2-10,5.2-13.5,3.6-3.9,7.3-7.8,11-11.7-1.7-.2-3.4-.4-5.1-.7,3.8,7.5,9.6,20.2.7,26.6-3.4,2.7-.1,8.3,3.3,5.9Z"/><path class="cls-1" d="M413.5,298.8c4.2,0,4.2-6.5,0-6.5s-4.2,6.5,0,6.5Z"/><path class="cls-1" d="M406.5,346.6c4.2,0,4.2-6.5,0-6.5s-4.2,6.5,0,6.5Z"/><path class="cls-1" d="M395.2,351.8c4.2,0,4.2-6.5,0-6.5s-4.2,6.5,0,6.5Z"/><path class="cls-1" d="M380.5,350.9c4.2,0,4.2-6.5,0-6.5s-4.2,6.5,0,6.5Z"/><path class="cls-1" d="M366.2,152.2c-3.6-7.5-8.7-15.9-17.8-16.9-5.3-.6-10.1,1.6-15.2,2.7a26.69,26.69,0,0,1-17.8-2.3,3.29,3.29,0,0,0-4.5,1.2c-5.5,10-10.5,21.1-5,32.2,1.9,3.8,7.5.5,5.6-3.3-4.3-8.7.8-18,5-25.6l-4.5,1.2c8.9,4.5,17.8,4.5,27.2,1.8,5.1-1.4,10-2.4,14.3,1.5,3.2,2.9,5.2,7,7,10.9,1.9,3.7,7.5.4,5.7-3.4Z"/><path class="cls-1" d="M342.3,149.9h-.9a3.4,3.4,0,0,0-3.3,3.3,3.33,3.33,0,0,0,3.3,3.3h.9a3.3,3.3,0,1,0,0-6.6Z"/><path class="cls-1" d="M321.7,157.5v.9a3.4,3.4,0,0,0,3.3,3.3,3.33,3.33,0,0,0,3.3-3.3v-.9a3.4,3.4,0,0,0-3.3-3.3,3.47,3.47,0,0,0-3.3,3.3Z"/><path class="cls-1" d="M364,279.3h-.9a3.4,3.4,0,0,0-3.3,3.3,3.33,3.33,0,0,0,3.3,3.3h.9a3.3,3.3,0,1,0,0-6.6Z"/><path class="cls-1" d="M351,293.6c4.2,0,4.2-6.5,0-6.5s-4.2,6.5,0,6.5Z"/><path class="cls-1" d="M339.7,303.2c4.2,0,4.2-6.5,0-6.5s-4.2,6.5,0,6.5Z"/><path class="cls-1" d="M408.9,259.1v-.9a3.4,3.4,0,0,0-3.3-3.3,3.33,3.33,0,0,0-3.3,3.3v.9a3.3,3.3,0,1,0,6.6,0Z"/><path class="cls-1" d="M420.4,253.7c4.2,0,4.2-6.5,0-6.5s-4.2,6.5,0,6.5Z"/><path class="cls-1" d="M327.7,372.7c-5.8,11.2-21,12-27.6,1-2.1-3.6-7.8-.3-5.6,3.3a22.11,22.11,0,0,0,38.8-1c1.9-3.7-3.7-7-5.6-3.3Z"/><path class="cls-1" d="M221.7,597.2c5.7,13.6,11.5,34.7-3.8,44.5-13.6,8.7-30.6-4.7-36.5-16.7-6.4-12.9-3.9-27.1,3.9-38.8,7.4-11,18.3-19.2,28.2-27.7,22.9-19.5,41-45,49.4-74.1,3.9-13.5,5.6-28.6.9-42.1a42.25,42.25,0,0,0-29-27.3,41.76,41.76,0,0,0-42.2,13.7c-5,6.1-8.2,14-6.7,22a19.21,19.21,0,0,0,13.3,15.2c4,1.2,5.7-5.1,1.7-6.3-8.2-2.5-10.3-11.8-7.7-19.1,2.7-7.5,9.1-13.4,16-16.8a34.86,34.86,0,0,1,41.2,8.1c10.1,11.2,11,27.4,8.4,41.5-2.8,15-9.1,29.3-17,42.3a150.41,150.41,0,0,1-28.9,34.7c-9.5,8.4-19.9,16-28.1,25.7-8.1,9.5-14.1,21.4-13.8,34.2a43.52,43.52,0,0,0,16.2,32.2c11.5,9.1,29,12.2,39.5,0,11.7-13.6,7.5-32,1.2-47-1.5-3.8-7.8-2.1-6.2,1.8Z"/><path class="cls-1" d="M188.4,646.9c-22.4.1-35.7-22.4-33.8-42.8,2.2-23.4,19.4-41.5,37.3-55,15.6-11.7,34.1-21.6,44.5-38.8,4.8-8.1,7.7-17.8,5.5-27.2a20.9,20.9,0,0,0-17-16.3c-9-1.5-18.6,2.6-22.4,11.2a21.74,21.74,0,0,0,5.3,25.2c3.1,2.7,7.8-1.8,4.6-4.6-6.2-5.4-7.5-16.2-1-22s17.8-4.2,22.3,3.3c5,8.5,1.8,19.4-2.9,27.2-4.9,8.1-12,14.6-19.5,20.2-15.6,11.9-32.6,21.9-45.4,37.1-12.5,14.9-20.6,34.3-17.1,54,3.4,18.9,19.9,35.2,39.6,35.1,4.2-.1,4.2-6.6,0-6.6Z"/><path class="cls-1" d="M132.5,604.6a42.48,42.48,0,0,1-20.7,9c1.2,1.6,2.5,3.2,3.7,4.8,5-7.7,6.9-15.8,9.6-24.4,1.2-4,2.9-8.1,6.3-10.8,3.2-2.6,8.7-3.4,11.3.6,2.3,3.5,7.9.2,5.6-3.3-5.9-9-17.9-6.8-24,.8-3.6,4.4-5.2,9.9-6.6,15.3a59.56,59.56,0,0,1-7.7,18.6c-1.7,2.6,1.1,5.2,3.7,4.8a48.34,48.34,0,0,0,23.6-10.6c3-2.8-1.6-7.4-4.8-4.8Z"/><path class="cls-1" d="M129.9,625.4a34.81,34.81,0,0,0-7.7,25.6,36.6,36.6,0,0,0,4.3,13.2c2.3,4.3,7,10.9,3.1,15.7l5.1,3.9c3.1-6.5,10.9-8.9,15.5-14a31,31,0,0,0,7.8-19.6c.2-4.2-6.3-4.2-6.5,0a24.42,24.42,0,0,1-10.1,18.7c-4.6,3.4-9.7,6.2-12.3,11.6-1.5,3.1,2.6,7,5.1,3.9,6.8-8.3,1.2-16.9-2.8-24.9a27.73,27.73,0,0,1,3.1-29.5c2.6-3.3-2-7.9-4.6-4.6Z"/><path class="cls-1" d="M142.4,643.8c4.2,0,4.2-6.5,0-6.5s-4.2,6.5,0,6.5Z"/><path class="cls-1" d="M135.5,595.2c4.2,0,4.2-6.5,0-6.5s-4.2,6.5,0,6.5Z"/><path class="cls-1" d="M161.1,548.7c-5.1,1.8-11-.2-12.5-5.8s2.4-9.7,6.8-12.5c7.9-5,16.4-9,23-15.8,13.4-13.9,14-36.1,3.8-52-4.6-7.1-11.3-13-19.5-15.3-9.5-2.7-19.7-.3-28.2,4.3-15.5,8.4-28.7,28.7-17.8,45.9,4.9,7.8,14.7,12.7,23.9,10.3,8.6-2.3,15.1-11,13.9-20-.5-4.1-7-4.2-6.5,0a12.63,12.63,0,0,1-14.7,13.9c-9-1.6-14.2-10.3-13.9-18.9.6-17.8,21.8-32.6,38.9-29.8,16.9,2.8,25.7,22.1,24.3,37.7-.8,9.4-5.6,17.2-12.8,23-6.4,5.2-14.3,8.2-20.7,13.3-6.1,4.7-9.1,12.2-6,19.6a15.6,15.6,0,0,0,19.8,8.4c3.9-1.4,2.2-7.7-1.8-6.3Z"/><path class="cls-1" d="M120,510.2c-12.4,9-7.3,24.2-1.6,35.6.9,1.9,3.7,2.1,5.1.7,5.1-5.4,10.9-10.6,15.2-16.6,3.6-4.9,5-10.9,2-16.4-2-3.7-7.6-.4-5.6,3.3,2.7,5.1-2,10-5.2,13.5-3.6,3.9-7.3,7.8-11,11.7,1.7.2,3.4.4,5.1.7-3.8-7.5-9.6-20.2-.7-26.6,3.3-2.7.1-8.3-3.3-5.9Z"/><path class="cls-1" d="M126.8,524.9c4.2,0,4.2-6.5,0-6.5s-4.2,6.5,0,6.5Z"/><path class="cls-1" d="M133.7,477.1c4.2,0,4.2-6.5,0-6.5s-4.2,6.5,0,6.5Z"/><path class="cls-1" d="M145,471.9c4.2,0,4.2-6.5,0-6.5s-4.2,6.5,0,6.5Z"/><path class="cls-1" d="M159.8,472.8c4.2,0,4.2-6.5,0-6.5s-4.2,6.5,0,6.5Z"/><path class="cls-1" d="M174,665c3.6,7.5,8.7,15.9,17.8,16.9,5.3.6,10.1-1.6,15.2-2.7a26.69,26.69,0,0,1,17.8,2.3,3.29,3.29,0,0,0,4.5-1.2c5.5-10,10.5-21.1,5-32.2-1.9-3.8-7.5-.5-5.6,3.3,4.3,8.7-.8,18-5,25.6l4.5-1.2c-8.9-4.5-17.8-4.5-27.2-1.8-5.1,1.4-10,2.4-14.3-1.5-3.2-2.9-5.2-7-7-10.9-1.9-3.7-7.5-.4-5.7,3.4Z"/><path class="cls-1" d="M198,667.3h.9a3.4,3.4,0,0,0,3.3-3.3,3.33,3.33,0,0,0-3.3-3.3H198a3.4,3.4,0,0,0-3.3,3.3,3.33,3.33,0,0,0,3.3,3.3Z"/><path class="cls-1" d="M218.6,659.7v-.9a3.4,3.4,0,0,0-3.3-3.3,3.33,3.33,0,0,0-3.3,3.3v.9a3.4,3.4,0,0,0,3.3,3.3,3.47,3.47,0,0,0,3.3-3.3Z"/><path class="cls-1" d="M176.3,537.9h.9a3.4,3.4,0,0,0,3.3-3.3,3.33,3.33,0,0,0-3.3-3.3h-.9a3.4,3.4,0,0,0-3.3,3.3,3.33,3.33,0,0,0,3.3,3.3Z"/><path class="cls-1" d="M189.3,530.1c4.2,0,4.2-6.5,0-6.5s-4.2,6.5,0,6.5Z"/><path class="cls-1" d="M200.6,520.6c4.2,0,4.2-6.5,0-6.5s-4.2,6.5,0,6.5Z"/><path class="cls-1" d="M131.3,558.1v.9a3.4,3.4,0,0,0,3.3,3.3,3.33,3.33,0,0,0,3.3-3.3v-.9a3.3,3.3,0,0,0-6.6,0Z"/><path class="cls-1" d="M119.8,570c4.2,0,4.2-6.5,0-6.5s-4.2,6.5,0,6.5Z"/><path class="cls-1" d="M212.5,444.5c5.8-11.2,21-12,27.6-1,2.1,3.6,7.8.3,5.6-3.3a22.11,22.11,0,0,0-38.8,1c-1.9,3.7,3.7,7,5.6,3.3Z"/><path class="cls-1" d="M312.3,595.4c-5.7,13.7-9.9,29.9-1.4,43.4,7.7,12.2,21.7,14.3,34.3,8.5,11.3-5.2,19.7-16,22.8-27.9,3.2-12.5,0-25.5-6.9-36.1s-16.8-18.7-26.3-26.8c-11.1-9.4-21.4-19.4-29.9-31.3a146.85,146.85,0,0,1-20.7-41.3c-4.1-13.6-6.1-29.2-.3-42.6a35.17,35.17,0,0,1,41.8-19.8c8.3,2.5,16.1,8.1,20.2,15.8s3.4,19.3-6.3,22.2c-4,1.2-2.3,7.5,1.7,6.3,14.1-4.3,16.4-20.9,9.8-32.4-7-12.3-21.3-19.9-35.2-19.9a41.84,41.84,0,0,0-35,19.6c-7.5,12.1-8.1,26.9-5.8,40.5,5,29.7,22.9,57.9,44.6,78.3,17.8,16.7,48.1,34.5,42.6,63.4-2.8,14.8-17.5,31.7-34.2,28.5-8.2-1.6-13.5-9.4-15-17.2-2-10.1,1.8-20.4,5.6-29.5,1.5-3.8-4.8-5.5-6.4-1.7Z"/><path class="cls-1" d="M351.8,653.4c17.1.1,31.9-12.2,37.7-27.9,6.8-18.3.7-39.4-10.2-54.8-11.6-16.3-27.9-27.4-43.9-38.8-14.3-10.1-33.5-25.2-31.1-45.1,1.2-10.5,11.7-17.2,21.6-12.4,9.3,4.6,9.2,17.7,2,24-3.2,2.8,1.5,7.4,4.6,4.6,13.5-11.8,6.7-34.8-11.3-36.6-8.5-.8-16.9,3.3-20.8,11-4.2,8.3-3.1,18.3.4,26.6,7.8,18.3,25.6,29.3,41.2,40.3,18.3,12.9,36.4,28.9,42.2,51.4,3,11.7,2.3,24.6-4.4,34.9-6.1,9.5-16.4,16.2-27.9,16.1-4.3.2-4.3,6.7-.1,6.7Z"/><path class="cls-1" d="M403.2,609.2a48.34,48.34,0,0,0,23.6,10.6c2.5.4,5.4-2.2,3.7-4.8a57.9,57.9,0,0,1-7.6-17.9c-1.5-5.7-3-11.4-6.8-16-6.1-7.6-18.1-9.8-24-.8-2.3,3.5,3.3,6.8,5.6,3.3s7.4-3.3,10.7-1.1c3.7,2.6,5.6,7.2,6.9,11.3,2.6,8.6,4.5,16.7,9.6,24.4,1.2-1.6,2.5-3.2,3.7-4.8a40.72,40.72,0,0,1-20.7-9c-3.3-2.4-8,2.2-4.7,4.8Z"/><path class="cls-1" d="M405.8,630a27.53,27.53,0,0,1,3.1,29.5c-4,8.1-9.6,16.6-2.8,24.9,2.5,3,6.6-.8,5.1-3.9-2.6-5.5-7.7-8.2-12.3-11.6a24.42,24.42,0,0,1-10.1-18.7c-.2-4.2-6.7-4.2-6.5,0a32.09,32.09,0,0,0,7.8,19.6c4.6,5.2,12.4,7.6,15.5,14l5.1-3.9c-3.9-4.8.8-11.4,3.1-15.7a36,36,0,0,0,4.3-13.2,34.94,34.94,0,0,0-7.7-25.6c-2.6-3.3-7.2,1.3-4.6,4.6Z"/><path class="cls-1" d="M397.8,643.8c4.2,0,4.2-6.5,0-6.5s-4.2,6.5,0,6.5Z"/><path class="cls-1" d="M404.8,595.2c4.2,0,4.2-6.5,0-6.5s-4.2,6.5,0,6.5Z"/><path class="cls-1" d="M377.4,555c14.4,5.1,27.1-11.7,17.8-24-4.6-6.1-12.4-8.9-18.7-12.9-7.6-4.8-14.4-11-17.4-19.7-5.1-15.3,1.1-36,16.2-43.3,15.8-7.7,38.4,4.4,43.9,20.4,3.2,9.2.9,20.6-8.6,25-9.1,4.3-19.9-2.2-18.6-12.6.5-4.1-6-4.1-6.5,0-1,8.2,4.2,16.1,11.7,19.2,7.7,3.2,16.5.6,22.4-5,14.6-13.8,5.9-35.9-7.9-46.4-15.3-11.6-36.6-13.4-50,1.9-12.2,13.9-15.1,36.8-4.1,52.3,6.3,8.9,15.7,14.1,24.9,19.4,4.4,2.6,9.5,5.8,9.3,11.6-.2,6.8-6.8,10.1-12.8,8-3.8-1.6-5.5,4.7-1.6,6.1Z"/><path class="cls-1" d="M417,515.9c8.9,6.4,3,19.1-.7,26.6,1.7-.2,3.4-.4,5.1-.7-3.7-3.9-7.3-7.8-11-11.7-3.2-3.5-8-8.4-5.2-13.5,2-3.7-3.6-7-5.6-3.3-3,5.6-1.6,11.5,2,16.4,4.4,6,10.2,11.2,15.2,16.6a3.21,3.21,0,0,0,5.1-.7c5.7-11.3,10.8-26.6-1.6-35.6-3.4-2.2-6.7,3.4-3.3,5.9Z"/><path class="cls-1" d="M413.5,524.9c4.2,0,4.2-6.5,0-6.5s-4.2,6.5,0,6.5Z"/><path class="cls-1" d="M406.5,477.1c4.2,0,4.2-6.5,0-6.5s-4.2,6.5,0,6.5Z"/><path class="cls-1" d="M395.2,471.9c4.2,0,4.2-6.5,0-6.5s-4.2,6.5,0,6.5Z"/><path class="cls-1" d="M380.5,472.8c4.2,0,4.2-6.5,0-6.5s-4.2,6.5,0,6.5Z"/><path class="cls-1" d="M360.6,661.7c-1.8,3.7-3.6,7.6-6.6,10.5-4.3,4.2-9.3,3.4-14.7,1.9-9.5-2.7-18.3-2.7-27.2,1.8l4.5,1.2c-4.2-7.6-9.3-16.9-5-25.6,1.9-3.7-3.8-7-5.6-3.3-5.5,11.1-.5,22.2,5,32.2a3.46,3.46,0,0,0,4.5,1.2,26,26,0,0,1,17.1-2.5c5.3,1.1,10.4,3.5,15.9,2.9,9.2-1,14.2-9.3,17.8-16.9,1.7-3.9-3.9-7.2-5.7-3.4Z"/><path class="cls-1" d="M342.3,660.8h-.9a3.4,3.4,0,0,0-3.3,3.3,3.33,3.33,0,0,0,3.3,3.3h.9a3.4,3.4,0,0,0,3.3-3.3,3.33,3.33,0,0,0-3.3-3.3Z"/><path class="cls-1" d="M328.2,659.7v-.9a3.4,3.4,0,0,0-3.3-3.3,3.33,3.33,0,0,0-3.3,3.3v.9a3.4,3.4,0,0,0,3.3,3.3,3.47,3.47,0,0,0,3.3-3.3Z"/><path class="cls-1" d="M364,531.4h-.9a3.4,3.4,0,0,0-3.3,3.3,3.33,3.33,0,0,0,3.3,3.3h.9a3.3,3.3,0,0,0,0-6.6Z"/><path class="cls-1" d="M351,530.1c4.2,0,4.2-6.5,0-6.5s-4.2,6.5,0,6.5Z"/><path class="cls-1" d="M339.7,520.6c4.2,0,4.2-6.5,0-6.5s-4.2,6.5,0,6.5Z"/><path class="cls-1" d="M402.4,558.1v.9a3.4,3.4,0,0,0,3.3,3.3A3.33,3.33,0,0,0,409,559v-.9a3.3,3.3,0,1,0-6.6,0Z"/><path class="cls-1" d="M420.4,570c4.2,0,4.2-6.5,0-6.5s-4.2,6.5,0,6.5Z"/><path class="cls-1" d="M333.3,441.2a22.11,22.11,0,0,0-38.8-1c-2.1,3.6,3.5,6.9,5.6,3.3,6.5-11,21.8-10.3,27.6,1,1.9,3.7,7.5.4,5.6-3.3Z"/><path class="cls-1" d="M260.8,513.5c-3.7,29.3-25.1,51-48.1,67.4-9.7,6.9-20.5,15.6-20.9,28.7-.4,10.9,8.1,20.7,18.7,22.6,4.1.7,5.9-5.6,1.7-6.3a16.82,16.82,0,0,1-12.8-10.1c-2.3-5.7-.6-11.6,2.7-16.5,3.6-5.3,8.8-9.1,14-12.8s10.1-7.3,14.9-11.4c18.7-15.9,33.3-36.8,36.4-61.6.4-4.1-6.1-4.1-6.6,0Z"/><path class="cls-1" d="M214.8,627.5c-5.3-11.2,0-23.5,11-28.3,3.8-1.7.5-7.3-3.3-5.6-14.5,6.4-20,23.1-13.4,37.2,1.9,3.7,7.5.4,5.7-3.3Z"/><path class="cls-1" d="M256.7,561A95.19,95.19,0,0,1,235,587.4a3.29,3.29,0,0,0,0,4.6,34.52,34.52,0,0,1,7.6,34.3c-1.3,4,5,5.7,6.3,1.7a41.39,41.39,0,0,0-9.3-40.7v4.6a101.07,101.07,0,0,0,22.7-27.7c2-3.5-3.6-6.8-5.6-3.2Z"/><path class="cls-1" d="M272.6,513.5c3.2,24.8,17.7,45.7,36.4,61.6,4.6,3.9,9.4,7.5,14.3,11,5.1,3.6,10.5,7.4,14.2,12.6,3.5,4.9,5.4,11.2,3.1,17a16.61,16.61,0,0,1-12.8,10.1c-4.1.7-2.4,7,1.7,6.3,10.5-1.9,19.1-11.7,18.7-22.6-.5-13-11.2-21.7-20.9-28.7-23-16.4-44.4-38.1-48.1-67.4-.6-4-7.1-4-6.6.1Z"/><path class="cls-1" d="M330.7,630.8c6.7-14.1,1.2-30.8-13.4-37.2-3.8-1.7-7.1,3.9-3.3,5.6,11.1,4.8,16.3,17.1,11,28.3-1.7,3.7,3.9,7,5.7,3.3Z"/><path class="cls-1" d="M277.6,564.3A99.61,99.61,0,0,0,300.3,592v-4.6a41.34,41.34,0,0,0-9.3,40.7c1.3,4,7.6,2.3,6.3-1.7a34.75,34.75,0,0,1,7.6-34.3,3.29,3.29,0,0,0,0-4.6,95.19,95.19,0,0,1-21.7-26.4c-2-3.7-7.6-.4-5.6,3.2Z"/><path class="cls-1" d="M251.6,595.3a54.44,54.44,0,0,0,36.5-.3c3.9-1.4,2.2-7.7-1.7-6.3a48,48,0,0,1-33,.3c-4-1.4-5.7,4.9-1.8,6.3Z"/><path class="cls-1" d="M254.7,610.5a132.21,132.21,0,0,1,12.1,15.8c1.3,1.9,4.5,2.3,5.6,0A80.13,80.13,0,0,1,283.9,609c2.7-3.1-1.8-7.8-4.6-4.6A89.13,89.13,0,0,0,266.8,623h5.6a155.75,155.75,0,0,0-13.2-17.1c-2.7-3.2-7.3,1.4-4.5,4.6Z"/><path class="cls-1" d="M269.5,580.4c4.2,0,4.2-6.5,0-6.5s-4.2,6.5,0,6.5Z"/><path class="cls-1" d="M174.3,386.8c-8.7.9-16.3,6.6-23.8,10.7-8.2,4.5-16.8,8.7-26.3,9.6-2.9.3-4.8,4.5-1.6,6.1,9.6,4.6,19.2,9.6,29.1,13.7,8.9,3.7,18.4,4.1,27.8,2.3,4.1-.8,2.4-7.1-1.7-6.3a42.34,42.34,0,0,1-26.7-3.4c-8.4-3.9-16.7-8-25.1-12-.5,2-1.1,4-1.6,6.1,8.7-.8,16.7-3.8,24.4-7.7,4-2,7.8-4.2,11.7-6.4,4.3-2.4,9-5.7,14-6.2,4-.4,4-6.9-.2-6.5Z"/><path class="cls-1" d="M178.7,408.1v-.6a3.4,3.4,0,0,0-3.3-3.3,3.33,3.33,0,0,0-3.3,3.3v.6a3.4,3.4,0,0,0,3.3,3.3,3.33,3.33,0,0,0,3.3-3.3Z"/><path class="cls-1" d="M122.9,381.5a26.21,26.21,0,0,0,17.3,8.6c4.2.4,4.1-6.1,0-6.5a19.65,19.65,0,0,1-12.7-6.7c-2.8-3.2-7.4,1.4-4.6,4.6Z"/><path class="cls-1" d="M128,444.6a20.08,20.08,0,0,1,10.7-5.5c4.1-.7,2.4-7-1.7-6.3a25.45,25.45,0,0,0-13.6,7.2c-3,2.9,1.7,7.5,4.6,4.6Z"/><path class="cls-1" d="M362.6,434.7c8.7-.9,16.3-6.6,23.8-10.7,8.2-4.5,16.8-8.7,26.3-9.6,2.9-.3,4.8-4.5,1.6-6.1-9.6-4.6-19.2-9.6-29.1-13.7-8.9-3.7-18.4-4.1-27.8-2.3-4.1.8-2.4,7.1,1.7,6.3a42.34,42.34,0,0,1,26.7,3.4c8.4,3.9,16.7,8,25.1,12,.5-2,1.1-4,1.6-6.1-8.7.8-16.7,3.8-24.4,7.7-4,2-7.8,4.2-11.7,6.4-4.3,2.4-9,5.7-14,6.2-3.9.3-4,6.9.2,6.5Z"/><path class="cls-1" d="M358.2,413.3v.6a3.4,3.4,0,0,0,3.3,3.3,3.33,3.33,0,0,0,3.3-3.3v-.6a3.3,3.3,0,1,0-6.6,0Z"/><path class="cls-1" d="M414.1,440a26.21,26.21,0,0,0-17.3-8.6c-4.2-.4-4.1,6.1,0,6.5a19.65,19.65,0,0,1,12.7,6.7c2.7,3.1,7.3-1.5,4.6-4.6Z"/><path class="cls-1" d="M408.9,376.9a20.08,20.08,0,0,1-10.7,5.5c-4.1.7-2.4,7,1.7,6.3a25.45,25.45,0,0,0,13.6-7.2c3-3-1.6-7.6-4.6-4.6Z"/><path class="cls-1" d="M241.5,643.9c2.4,13.9,14.4,25.5,28.9,25.4a25.91,25.91,0,0,0,18.1-7.4c5.3-5.3,7.5-12.7,9.3-19.7,1.1-4.1-5.2-5.8-6.3-1.7-2.9,11.1-7.9,22.2-21.1,22.4-11.8.1-20.8-9.6-22.7-20.7-.6-4.1-6.9-2.4-6.2,1.7Z"/><path class="cls-1" d="M269.2,647.5c4.2,0,4.2-6.5,0-6.5s-4.1,6.5,0,6.5Z"/><path class="cls-1" d="M267.3,303.7c-3.2-24.8-17.7-45.7-36.4-61.6-4.6-3.9-9.4-7.5-14.3-11-5.1-3.6-10.5-7.4-14.2-12.6-3.5-4.9-5.4-11.2-3.1-17a16.61,16.61,0,0,1,12.8-10.1c4.1-.7,2.4-7-1.7-6.3-10.5,1.9-19.1,11.7-18.7,22.6.5,13,11.2,21.7,20.9,28.7,23,16.4,44.4,38.1,48.1,67.4.6,4,7.1,4,6.6-.1Z"/><path class="cls-1" d="M209.2,186.4c-6.7,14.1-1.2,30.8,13.4,37.2,3.8,1.7,7.1-3.9,3.3-5.6-11.1-4.8-16.3-17.1-11-28.3,1.7-3.7-3.9-7-5.7-3.3Z"/><path class="cls-1" d="M262.3,252.9a99.61,99.61,0,0,0-22.7-27.7v4.6a41.34,41.34,0,0,0,9.3-40.7c-1.3-4-7.6-2.3-6.3,1.7a34.75,34.75,0,0,1-7.6,34.3,3.29,3.29,0,0,0,0,4.6,95.19,95.19,0,0,1,21.7,26.4c2,3.7,7.6.4,5.6-3.2Z"/><path class="cls-1" d="M279.1,303.7c3.7-29.3,25.1-51,48.1-67.4,9.7-6.9,20.5-15.6,20.9-28.7.4-10.9-8.1-20.7-18.7-22.6-4.1-.7-5.9,5.6-1.7,6.3a16.82,16.82,0,0,1,12.8,10.1c2.3,5.7.6,11.6-2.7,16.5-3.6,5.3-8.8,9.1-14,12.8s-10.1,7.3-14.9,11.4c-18.7,15.9-33.3,36.8-36.4,61.6-.4,4.1,6.1,4.1,6.6,0Z"/><path class="cls-1" d="M325.1,189.7c5.3,11.2,0,23.5-11,28.3-3.8,1.7-.5,7.3,3.3,5.6,14.5-6.4,20-23.1,13.4-37.2-1.8-3.7-7.5-.4-5.7,3.3Z"/><path class="cls-1" d="M283.2,256.2a95.19,95.19,0,0,1,21.7-26.4,3.29,3.29,0,0,0,0-4.6,34.52,34.52,0,0,1-7.6-34.3c1.3-4-5-5.7-6.3-1.7a41.39,41.39,0,0,0,9.3,40.7v-4.6A101.07,101.07,0,0,0,277.6,253c-2,3.5,3.6,6.8,5.6,3.2Z"/><path class="cls-1" d="M253.3,228.2a48,48,0,0,1,33,.3c3.9,1.5,5.6-4.8,1.7-6.3a53.25,53.25,0,0,0-36.5-.3c-3.8,1.4-2.1,7.7,1.8,6.3Z"/><path class="cls-1" d="M259.3,211.3a155.75,155.75,0,0,0,13.2-17.1h-5.6a80.86,80.86,0,0,0,12.5,18.6c2.8,3.2,7.3-1.5,4.6-4.6a80.13,80.13,0,0,1-11.5-17.3c-1.1-2.3-4.4-1.9-5.6,0a153.71,153.71,0,0,1-12.1,15.8c-2.9,3.2,1.7,7.8,4.5,4.6Z"/><path class="cls-1" d="M269.5,243.3c4.2,0,4.2-6.5,0-6.5s-4.2,6.5,0,6.5Z"/><path class="cls-1" d="M247.8,175c1.9-11.2,10.8-20.7,22.7-20.7,13.2,0,18.3,11.4,21.1,22.4,1.1,4.1,7.3,2.3,6.3-1.7-1.8-6.9-3.9-13.9-8.8-19.2a26,26,0,0,0-18.6-7.9c-14.5-.1-26.5,11.5-28.9,25.4-.8,4.1,5.5,5.8,6.2,1.7Z"/><path class="cls-1" d="M269.2,176.2c4.2,0,4.2-6.5,0-6.5s-4.1,6.5,0,6.5Z"/></g></g></svg>